<svg width="420" height="511" viewBox="0 0 420 511" fill="none" xmlns="http://www.w3.org/2000/svg">
<g filter="url(#filter0_d_3_129)">
<g clip-path="url(#clip0_3_129)">
<rect x="4" y="6" width="400" height="491" rx="12" fill="#788372"/>
<path d="M-10.6054 581.077C107.4 648.034 363.545 529 363.545 424C363.545 20.1176 493.69 -32.7603 375.685 -99.7177C257.68 -166.675 75.544 -68.5539 -31.1272 119.442C-137.798 307.438 -128.61 514.119 -10.6054 581.077Z" fill="#F6F3EF"/>
<path d="M77.617 473.175C77.216 472.928 76.8459 472.619 76.5066 472.249C76.1673 471.91 76.0902 471.416 76.2752 470.769C76.2444 470.399 76.2598 470.044 76.3215 469.705C76.414 469.365 76.4757 469.134 76.5066 469.011C76.6608 469.011 76.7533 468.933 76.7842 468.779C76.815 468.594 76.8304 468.44 76.8304 468.317C76.8304 468.07 76.923 467.653 77.108 467.067C77.2931 466.481 77.4782 465.864 77.6632 465.217C77.91 464.692 78.1413 464.137 78.3572 463.551C78.604 462.965 78.7274 462.61 78.7274 462.487C78.7274 462.24 78.7891 461.993 78.9124 461.747C79.0358 461.469 79.1746 461.207 79.3288 460.96C79.4831 460.59 79.591 460.189 79.6527 459.757C79.7452 459.295 79.7915 458.94 79.7915 458.693C79.9766 458.292 80.1771 457.86 80.393 457.398C80.6089 456.935 80.7785 456.457 80.9019 455.963C81.087 455.439 81.3646 454.668 81.7347 453.65C82.1048 452.601 82.4904 451.553 82.8914 450.504C83.169 449.918 83.4311 449.316 83.6779 448.7C83.9555 448.052 84.2022 447.512 84.4182 447.08C84.6341 446.618 84.7883 446.386 84.8808 446.386C84.8808 446.386 84.8808 446.34 84.8808 446.247C84.8808 446.124 84.8808 446.001 84.8808 445.877C84.8808 445.723 85.0042 445.43 85.251 444.998C85.4977 444.536 85.729 444.057 85.9449 443.564C86.2534 443.101 86.4693 442.669 86.5927 442.268C86.7161 441.837 86.7777 441.621 86.7777 441.621C86.7777 441.621 86.8394 441.528 86.9628 441.343C87.0862 441.127 87.2096 440.958 87.3329 440.834C88.1349 440.402 88.8135 440.187 89.3687 440.187C89.9547 440.187 90.3557 440.557 90.5716 441.297C90.8184 441.975 90.9263 442.454 90.8955 442.731C90.8646 442.978 90.7567 443.286 90.5716 443.656C90.3248 444.212 90.001 444.921 89.6 445.785C89.199 446.618 88.7826 447.512 88.3508 448.468C87.919 449.424 87.5026 450.35 87.1016 451.244C86.7315 452.108 86.423 452.848 86.1763 453.465C85.9604 454.082 85.8524 454.467 85.8524 454.622L83.9092 459.387C83.7858 459.603 83.5854 460.158 83.3078 461.053C83.0302 461.916 82.7063 462.965 82.3362 464.199C81.966 465.402 81.5805 466.636 81.1795 467.9C80.8094 469.134 80.4392 470.26 80.0691 471.278C79.884 471.802 79.7144 472.234 79.5602 472.573C79.4059 472.943 79.2517 473.221 79.0975 473.406C78.9433 473.591 78.7582 473.683 78.5423 473.683C78.4189 473.683 78.2801 473.637 78.1259 473.545C77.9717 473.452 77.802 473.329 77.617 473.175ZM93.9953 473.082C93.7177 473.113 93.3322 472.974 92.8387 472.666C92.376 472.388 91.8671 472.033 91.3119 471.601C90.7875 471.17 90.2786 470.722 89.7851 470.26C89.3224 469.797 88.9523 469.396 88.6747 469.057C88.1812 468.347 87.5489 467.391 86.7777 466.188C86.0375 464.985 85.4823 463.721 85.1122 462.394C84.8962 461.407 84.6649 460.621 84.4182 460.035C84.2022 459.418 84.0943 458.878 84.0943 458.416L84.1406 455.547L87.518 455.316C87.6722 456.981 87.919 458.369 88.2583 459.48C88.5976 460.559 88.9985 461.531 89.4612 462.394C89.8313 463.196 90.2323 463.983 90.6641 464.754C91.1268 465.525 91.6357 466.173 92.1909 466.697C92.9003 467.468 93.5327 468.039 94.0879 468.409C94.6431 468.779 95.0595 468.964 95.3371 468.964C95.9231 469.242 96.3549 469.504 96.6325 469.751C96.9101 469.998 97.0952 470.213 97.1877 470.399C97.2802 470.584 97.3111 470.753 97.2802 470.907C97.3111 471 97.2957 471.2 97.234 471.509C97.1723 471.848 97.0798 472.172 96.9564 472.481C96.833 472.82 96.6634 473.036 96.4474 473.128C96.2315 473.344 95.9539 473.468 95.6146 473.498C95.2754 473.56 94.7356 473.421 93.9953 473.082ZM83.2615 455.408L86.6389 452.91C86.7315 452.817 86.9937 452.571 87.4255 452.17C87.8881 451.738 88.7672 451.028 90.0627 450.041L96.1698 445.091C96.941 444.69 97.6504 444.243 98.2981 443.749C98.9458 443.256 99.4856 442.87 99.9174 442.592C100.442 442.222 100.982 441.837 101.537 441.436C102.092 441.035 102.431 440.85 102.555 440.881C102.801 440.757 103.094 440.881 103.434 441.251C103.773 441.59 104.051 442.006 104.266 442.5C104.513 442.962 104.621 443.317 104.59 443.564C104.652 443.872 104.606 444.135 104.452 444.35C104.297 444.566 103.896 444.859 103.249 445.23C102.478 445.569 101.861 445.893 101.398 446.201C100.966 446.51 100.719 446.741 100.658 446.895C100.658 446.895 100.334 447.142 99.6861 447.635C99.0384 448.129 98.2673 448.684 97.3728 449.301C96.139 450.134 95.1211 450.874 94.3192 451.522C93.5481 452.139 93.0391 452.632 92.7924 453.002C92.669 453.002 92.5456 453.049 92.4223 453.141C92.3297 453.234 92.2218 453.265 92.0984 453.234C92.0984 453.234 91.975 453.326 91.7283 453.511C91.4815 453.665 91.2964 453.835 91.1731 454.02C91.1114 454.174 90.9726 454.375 90.7567 454.622C90.5716 454.868 90.3403 454.976 90.0627 454.946C89.8468 455.069 89.4612 455.331 88.906 455.732C88.3508 456.102 87.7648 456.519 87.1479 456.981C86.5618 457.444 86.0529 457.86 85.6211 458.23C85.1893 458.601 84.9579 458.816 84.9271 458.878L83.2615 455.408ZM101.387 470.028C101.264 469.782 100.987 469.535 100.555 469.288C100.154 469.041 99.9532 468.856 99.9532 468.733C99.9532 468.61 99.8761 468.424 99.7219 468.178C99.5985 467.9 99.4751 467.7 99.3518 467.576C99.1975 467.391 99.2438 466.944 99.4906 466.235C99.7373 465.494 100.107 464.6 100.601 463.551C101.094 462.502 101.634 461.438 102.22 460.359C102.467 460.112 102.714 459.788 102.961 459.387C103.207 458.986 103.392 458.724 103.516 458.601C103.516 458.477 103.562 458.369 103.655 458.277C103.747 458.153 103.855 458.092 103.978 458.092L104.349 457.351C104.41 457.228 104.595 456.981 104.904 456.611C105.243 456.241 105.644 455.84 106.107 455.408C106.569 454.946 107.032 454.514 107.495 454.113C107.988 453.712 108.389 453.419 108.698 453.234C109.345 452.802 110.008 452.601 110.687 452.632C111.396 452.663 111.998 452.879 112.491 453.28C112.584 453.372 112.784 453.558 113.093 453.835C113.432 454.113 113.802 454.421 114.203 454.76C114.635 455.1 115.005 455.408 115.314 455.686L117.026 457.213L116.239 459.526C115.838 460.76 115.73 461.839 115.915 462.765C116.1 463.69 116.393 464.492 116.794 465.17C116.948 465.51 117.149 465.772 117.396 465.957C117.673 466.142 118.028 466.265 118.46 466.327C118.707 466.358 118.938 466.45 119.154 466.605C119.37 466.759 119.478 467.006 119.478 467.345C119.478 468.085 119.339 468.625 119.061 468.964C118.815 469.273 118.537 469.458 118.228 469.519C117.211 469.643 116.239 469.535 115.314 469.196C114.388 468.856 113.556 467.977 112.815 466.558C112.692 466.373 112.522 466.034 112.306 465.541C112.121 465.016 112.013 464.677 111.983 464.523C111.859 464.677 111.689 464.877 111.474 465.124C111.289 465.34 111.103 465.541 110.918 465.726C108.728 467.946 106.847 469.396 105.274 470.075C103.732 470.722 102.436 470.707 101.387 470.028ZM103.932 466.188C104.148 466.219 104.487 466.111 104.95 465.864C105.413 465.587 106.03 465.14 106.801 464.523C107.849 463.628 108.713 462.888 109.392 462.302C110.07 461.716 110.733 460.96 111.381 460.035L112.399 458.369C112.09 457.66 111.813 457.197 111.566 456.981C111.319 456.765 111.073 456.657 110.826 456.657C110.425 456.657 109.947 456.92 109.392 457.444C108.836 457.937 108.204 458.678 107.495 459.665C106.816 460.621 106.045 461.824 105.181 463.273C104.78 463.952 104.472 464.615 104.256 465.263C104.04 465.88 103.932 466.188 103.932 466.188ZM123.609 471.139C123.362 471.046 123.038 470.8 122.637 470.399C122.236 469.967 121.881 469.504 121.573 469.011C121.265 468.486 121.11 468.054 121.11 467.715C121.265 467.376 121.465 466.774 121.712 465.911C121.989 465.047 122.298 464.075 122.637 462.996C122.884 462.657 123.069 462.271 123.192 461.839C123.347 461.377 123.485 460.96 123.609 460.59C123.856 460.035 124.133 459.403 124.442 458.693C124.75 457.984 125.043 457.259 125.321 456.519C125.629 455.778 125.907 455.131 126.153 454.575C126.585 453.65 126.94 452.848 127.218 452.17C127.526 451.46 127.819 450.766 128.097 450.088C128.405 449.409 128.729 448.653 129.068 447.82C129.531 446.864 129.947 445.924 130.317 444.998C130.718 444.042 131.058 443.194 131.335 442.454C131.644 441.713 131.829 441.189 131.89 440.881C131.86 440.634 131.89 440.464 131.983 440.372C132.076 440.248 132.199 440.171 132.353 440.14C132.507 440.048 132.754 439.986 133.093 439.955C133.433 439.924 133.664 439.909 133.787 439.909C134.158 439.971 134.528 440.279 134.898 440.834C135.299 441.359 135.499 441.806 135.499 442.176C135.499 442.669 135.253 443.595 134.759 444.952C134.296 446.278 133.618 447.851 132.723 449.671C131.644 451.984 130.826 453.773 130.271 455.038C129.747 456.303 129.392 457.197 129.207 457.722C129.022 458.246 128.945 458.585 128.976 458.739C128.976 458.739 129.099 458.693 129.346 458.601C129.593 458.508 129.963 458.292 130.456 457.953C130.796 457.737 131.181 457.459 131.613 457.12C132.045 456.781 132.461 456.472 132.862 456.195C133.294 455.917 133.633 455.747 133.88 455.686C134.034 455.562 134.25 455.408 134.528 455.223C134.805 455.038 135.067 454.868 135.314 454.714C135.9 454.282 136.363 454.144 136.702 454.298C137.041 454.452 137.35 454.714 137.628 455.084C137.967 455.485 138.09 455.917 137.998 456.38C137.936 456.812 137.458 457.382 136.563 458.092C135.885 458.585 135.16 459.063 134.389 459.526C133.618 459.958 132.908 460.343 132.261 460.683C131.644 461.022 131.196 461.299 130.919 461.515C130.919 461.515 131.058 461.716 131.335 462.117C131.613 462.518 131.875 462.903 132.122 463.273C132.369 463.767 132.677 464.399 133.047 465.17C133.417 465.911 133.695 466.435 133.88 466.743C134.219 467.237 134.559 467.561 134.898 467.715C135.268 467.869 135.808 467.823 136.517 467.576C136.98 467.453 137.365 467.468 137.674 467.623C138.013 467.746 138.291 467.962 138.507 468.27C138.63 468.517 138.692 468.764 138.692 469.011C138.692 469.257 138.491 469.55 138.09 469.89C137.227 470.476 136.378 470.969 135.546 471.37C134.744 471.802 133.972 471.771 133.232 471.278C132.584 470.784 131.968 470.229 131.382 469.612C130.826 468.964 130.194 468.178 129.485 467.252C129.485 467.129 129.392 466.867 129.207 466.466C129.022 466.065 128.899 465.834 128.837 465.772C128.714 465.525 128.575 465.309 128.42 465.124C128.297 464.908 128.235 464.8 128.235 464.8C128.143 464.461 128.02 464.183 127.865 463.967C127.742 463.752 127.572 463.628 127.356 463.597C127.233 463.69 127.094 463.844 126.94 464.06C126.786 464.276 126.632 464.538 126.477 464.847C126.292 465.309 126.107 465.772 125.922 466.235C125.737 466.666 125.583 467.144 125.459 467.669C125.336 468.162 125.259 468.764 125.228 469.473C125.259 469.812 125.12 470.183 124.812 470.584C124.503 470.954 124.102 471.139 123.609 471.139ZM145.124 470.352C144.877 470.414 144.553 470.445 144.152 470.445C143.751 470.414 143.397 470.368 143.088 470.306C142.81 470.213 142.672 470.121 142.672 470.028C142.672 469.874 142.595 469.797 142.44 469.797C142.44 469.797 142.271 469.674 141.931 469.427C141.592 469.149 141.284 468.949 141.006 468.825C140.728 468.394 140.543 467.9 140.451 467.345C140.389 466.759 140.574 465.741 141.006 464.291C141.037 463.304 141.315 462.271 141.839 461.191C142.363 460.081 143.026 459.002 143.828 457.953C144.63 456.904 145.463 455.979 146.327 455.177C147.19 454.344 147.961 453.727 148.64 453.326C149.072 452.894 149.642 452.663 150.352 452.632C151.092 452.601 151.74 452.74 152.295 453.049C152.604 453.203 152.943 453.511 153.313 453.974C153.683 454.437 154.038 454.93 154.377 455.454C154.716 455.948 154.979 456.395 155.164 456.796C155.256 457.135 155.333 457.444 155.395 457.722C155.487 457.968 155.549 458.277 155.58 458.647C155.611 459.017 155.58 459.572 155.487 460.312C155.333 460.868 155.194 461.438 155.071 462.024C154.979 462.579 154.932 463.15 154.932 463.736C154.871 464.322 154.932 464.739 155.117 464.985C155.333 465.232 155.642 465.248 156.043 465.032C156.413 464.847 156.798 464.831 157.199 464.985C157.6 465.109 157.878 465.355 158.032 465.726C158.217 466.065 158.171 466.512 157.893 467.067C157.708 467.468 157.415 467.854 157.014 468.224C156.613 468.594 156.166 468.903 155.673 469.149C155.179 469.365 154.701 469.473 154.238 469.473C153.899 469.473 153.56 469.35 153.22 469.103C152.881 468.825 152.573 468.455 152.295 467.993C152.018 467.53 151.786 467.021 151.601 466.466L151.324 465.402L149.658 466.929C149.257 467.36 148.856 467.761 148.455 468.131C148.085 468.471 147.854 468.718 147.761 468.872C147.607 469.149 147.298 469.396 146.836 469.612C146.404 469.828 145.833 470.075 145.124 470.352ZM146.373 465.911C146.897 465.602 147.345 465.232 147.715 464.8C148.116 464.368 148.501 463.89 148.871 463.366C149.242 462.811 149.642 462.225 150.074 461.608C150.599 460.898 150.969 460.328 151.185 459.896C151.431 459.464 151.617 459.002 151.74 458.508C151.617 458.169 151.447 457.814 151.231 457.444C151.015 457.043 150.799 456.827 150.583 456.796C150.151 456.796 149.627 457.058 149.01 457.583C148.424 458.107 147.776 458.863 147.067 459.85C146.944 460.004 146.789 460.251 146.604 460.59C146.419 460.929 146.234 461.253 146.049 461.562C145.895 461.839 145.787 462.024 145.725 462.117C145.633 462.24 145.494 462.533 145.309 462.996C145.155 463.428 145.016 463.875 144.892 464.338C144.769 464.769 144.707 465.078 144.707 465.263C144.707 465.448 144.723 465.649 144.754 465.864C144.815 466.08 144.97 466.219 145.216 466.281C145.463 466.343 145.849 466.219 146.373 465.911ZM165.72 471.278C164.733 471.278 163.823 471.062 162.99 470.63C162.188 470.167 161.54 469.612 161.047 468.964C160.553 468.286 160.306 467.638 160.306 467.021C160.306 466.743 160.353 466.543 160.445 466.42C160.569 466.296 160.738 466.235 160.954 466.235C161.108 466.265 161.293 466.343 161.509 466.466C161.725 466.589 161.941 466.728 162.157 466.882C162.651 467.222 163.19 467.437 163.776 467.53C164.362 467.623 164.887 467.592 165.349 467.437C165.812 467.252 166.074 466.975 166.136 466.605C166.136 466.481 166.074 466.219 165.951 465.818C165.828 465.417 165.673 465.032 165.488 464.661C164.717 463.52 164.239 462.441 164.054 461.423C163.869 460.374 163.746 459.325 163.684 458.277C163.684 457.845 163.884 457.367 164.285 456.842C164.686 456.287 165.18 455.747 165.766 455.223C166.414 454.668 167.123 454.144 167.894 453.65C168.696 453.157 169.483 452.74 170.254 452.401C171.025 452.062 171.673 451.861 172.197 451.799C172.752 451.799 173.338 451.83 173.955 451.892C174.603 451.923 175.035 452.031 175.251 452.216C175.682 452.555 176.083 453.11 176.453 453.881C176.824 454.652 177.009 455.3 177.009 455.825C177.009 456.071 176.87 456.38 176.592 456.75C176.345 457.089 176.114 457.475 175.898 457.907C175.775 458.122 175.667 458.354 175.574 458.601C175.482 458.847 175.374 459.094 175.251 459.341C175.065 459.773 174.726 459.958 174.233 459.896C173.77 459.804 173.338 459.557 172.937 459.156C172.536 458.724 172.336 458.23 172.336 457.675C172.336 457.213 172.475 456.812 172.752 456.472C173.03 456.133 173.169 455.902 173.169 455.778C173.169 455.717 173.138 455.67 173.076 455.64C173.014 455.609 172.906 455.593 172.752 455.593C172.536 455.593 172.182 455.686 171.688 455.871C171.225 456.025 170.732 456.256 170.207 456.565C169.683 456.873 169.205 457.243 168.773 457.675C168.465 458.015 168.203 458.385 167.987 458.786C167.802 459.156 167.709 459.557 167.709 459.989C167.709 460.42 167.786 460.929 167.94 461.515C168.125 462.071 168.326 462.533 168.542 462.903C168.604 462.965 168.696 463.135 168.819 463.412C168.974 463.659 169.143 463.967 169.328 464.338C170.47 466.682 170.655 468.424 169.884 469.566C169.143 470.707 167.755 471.278 165.72 471.278ZM195.59 470.676C195.004 470.83 194.387 470.938 193.739 471C193.122 471.093 192.582 470.907 192.12 470.445C191.842 470.013 191.595 469.627 191.379 469.288C191.164 468.949 191.025 468.347 190.963 467.484C190.932 466.898 190.963 466.265 191.056 465.587C191.179 464.877 191.225 464.368 191.194 464.06C191.441 462.919 191.503 462.101 191.379 461.608C191.287 461.114 191.164 460.868 191.009 460.868C190.67 460.806 190.13 461.053 189.39 461.608C188.681 462.163 187.832 462.95 186.845 463.967C185.889 464.955 184.856 466.08 183.745 467.345C183.159 468.147 182.728 468.748 182.45 469.149C182.203 469.519 182.018 469.705 181.895 469.705C181.34 469.705 180.831 469.612 180.368 469.427C179.905 469.242 179.535 468.98 179.258 468.64C178.98 468.301 178.81 467.946 178.749 467.576C178.749 467.453 178.826 467.129 178.98 466.605C179.134 466.049 179.319 465.417 179.535 464.708C179.751 463.998 179.952 463.335 180.137 462.718C180.353 462.101 180.507 461.67 180.599 461.423C180.877 460.621 181.201 459.649 181.571 458.508C181.972 457.336 182.327 456.303 182.635 455.408C182.758 455.007 182.974 454.437 183.283 453.696C183.591 452.925 183.9 452.154 184.208 451.383C184.517 450.612 184.733 450.041 184.856 449.671C184.948 449.424 185.118 448.993 185.365 448.376C185.612 447.728 185.874 447.019 186.151 446.247C186.46 445.476 186.737 444.767 186.984 444.119C187.262 443.441 187.447 442.947 187.539 442.639C187.508 442.361 187.524 442.114 187.586 441.898C187.678 441.652 187.771 441.467 187.863 441.343C187.987 441.343 188.125 441.343 188.28 441.343C188.434 441.312 188.511 441.297 188.511 441.297C188.511 441.235 188.711 441.297 189.112 441.482C189.544 441.667 189.961 441.898 190.362 442.176C190.793 442.423 191.009 442.639 191.009 442.824C191.164 443.225 191.179 443.749 191.056 444.397C190.932 445.014 190.608 445.954 190.084 447.219C189.745 447.713 189.405 448.453 189.066 449.44C188.758 450.427 188.449 451.26 188.141 451.938C188.017 452.154 187.832 452.54 187.586 453.095C187.37 453.619 187.108 454.252 186.799 454.992C186.521 455.701 186.244 456.457 185.966 457.259C185.689 458.061 185.442 458.847 185.226 459.618C184.918 460.359 184.81 460.852 184.902 461.099C184.995 461.346 185.365 461.068 186.013 460.266C186.876 459.341 187.678 458.508 188.418 457.768C189.19 457.028 189.899 456.441 190.547 456.01C191.225 455.547 191.827 455.346 192.351 455.408C192.629 455.47 192.983 455.67 193.415 456.01C193.878 456.318 194.31 456.688 194.711 457.12C195.142 457.521 195.42 457.907 195.543 458.277C195.667 458.709 195.744 459.125 195.775 459.526C195.836 459.927 195.852 460.498 195.821 461.238C195.79 461.947 195.713 463.011 195.59 464.43C195.405 465.479 195.281 466.235 195.22 466.697C195.158 467.129 195.173 467.437 195.266 467.623C195.389 467.808 195.574 468.008 195.821 468.224C196.284 468.594 196.469 469.041 196.376 469.566C196.284 470.059 196.022 470.429 195.59 470.676ZM203.172 469.473C203.049 469.473 202.787 469.381 202.386 469.196C201.985 469.011 201.784 468.918 201.784 468.918C201.784 468.795 201.738 468.64 201.646 468.455C201.584 468.27 201.553 468.116 201.553 467.993C201.337 467.869 201.121 467.669 200.905 467.391C200.689 467.114 200.643 466.805 200.767 466.466C200.952 466.127 201.198 465.618 201.507 464.939C201.846 464.23 202.201 463.443 202.571 462.579C202.972 461.685 203.342 460.821 203.681 459.989C204.021 459.156 204.314 458.446 204.56 457.86C204.807 457.243 204.946 456.873 204.977 456.75C204.977 456.627 204.992 456.411 205.023 456.102C205.085 455.794 205.285 455.532 205.624 455.316C206.025 455.038 206.442 455.023 206.874 455.269C207.306 455.516 207.676 455.948 207.984 456.565C208.293 457.151 208.447 457.845 208.447 458.647C208.447 458.863 208.293 459.418 207.984 460.312C207.676 461.176 207.259 462.209 206.735 463.412C206.241 464.615 205.686 465.834 205.069 467.067C204.607 467.962 204.252 468.594 204.005 468.964C203.789 469.304 203.512 469.473 203.172 469.473ZM209.465 451.753C209.094 451.753 208.647 451.583 208.123 451.244C207.629 450.905 207.182 450.473 206.781 449.949C206.38 449.424 206.18 448.869 206.18 448.283C206.18 448.129 206.318 447.851 206.596 447.45C206.874 447.019 207.136 446.602 207.383 446.201C207.66 445.8 207.799 445.569 207.799 445.507C208.046 445.507 208.339 445.553 208.678 445.646C209.017 445.738 209.295 445.846 209.511 445.97C209.85 446.741 210.297 447.404 210.853 447.959C211.408 448.484 211.685 449.085 211.685 449.764C211.685 450.442 211.516 450.951 211.176 451.29C210.837 451.599 210.267 451.753 209.465 451.753ZM227.253 475.21C227.253 475.21 227.099 475.149 226.79 475.025C226.482 474.933 226.143 474.84 225.772 474.748C225.433 474.655 225.171 474.609 224.986 474.609C224.492 474.485 224.138 474.208 223.922 473.776C223.706 473.375 223.66 472.928 223.783 472.434C223.906 472.311 223.999 472.049 224.061 471.648C224.122 471.247 224.153 470.923 224.153 470.676C224.277 470.429 224.354 470.26 224.384 470.167C224.415 470.044 224.492 469.735 224.616 469.242C224.708 468.718 224.863 467.993 225.078 467.067C225.325 466.111 225.587 465.093 225.865 464.014C226.173 462.934 226.466 461.901 226.744 460.914C227.022 459.927 227.268 459.094 227.484 458.416C227.731 457.737 227.901 457.351 227.993 457.259C227.993 457.259 227.993 457.213 227.993 457.12C227.993 456.997 227.993 456.873 227.993 456.75C227.993 456.75 228.009 456.611 228.04 456.334C228.101 456.025 228.255 455.686 228.502 455.316C228.626 454.976 228.734 454.606 228.826 454.205C228.919 453.804 228.965 453.542 228.965 453.419C229.088 453.265 229.258 452.894 229.474 452.308C229.721 451.691 229.952 451.09 230.168 450.504C230.353 450.01 230.553 449.486 230.769 448.931C231.016 448.376 231.216 447.898 231.371 447.497C231.556 447.096 231.648 446.895 231.648 446.895C231.648 446.772 231.648 446.71 231.648 446.71C231.648 446.679 231.648 446.664 231.648 446.664C231.772 446.54 232.065 445.924 232.527 444.813C233.021 443.672 233.684 442.207 234.517 440.418C234.64 440.171 234.825 439.786 235.072 439.261C235.319 438.706 235.442 438.367 235.442 438.243C235.905 437.781 236.352 437.626 236.784 437.781C237.247 437.904 237.648 438.166 237.987 438.567C238.357 438.968 238.619 439.338 238.773 439.678L239.236 440.418L237.524 443.749C237.031 444.613 236.599 445.399 236.229 446.109C235.889 446.818 235.72 447.234 235.72 447.358C235.72 447.358 235.643 447.543 235.488 447.913C235.365 448.283 235.211 448.761 235.026 449.347C234.841 449.902 234.656 450.458 234.471 451.013C234.131 451.969 233.807 452.771 233.499 453.419C233.191 454.036 233.036 454.406 233.036 454.529C233.036 454.467 233.345 454.421 233.962 454.39C234.609 454.359 235.411 454.344 236.367 454.344C237.324 454.344 238.295 454.344 239.282 454.344C240.3 454.313 241.21 454.298 242.012 454.298C242.814 454.267 243.369 454.221 243.678 454.159L246.083 453.928L247.379 449.81C247.626 448.946 247.95 447.898 248.351 446.664C248.751 445.43 249.106 444.381 249.415 443.518C249.908 442.099 250.433 441.112 250.988 440.557C251.543 439.971 252.006 439.678 252.376 439.678C252.468 439.678 252.638 439.77 252.885 439.955C253.162 440.109 253.44 440.294 253.717 440.51C253.995 440.726 254.165 440.927 254.226 441.112C254.596 441.451 254.766 441.837 254.735 442.268C254.735 442.7 254.489 443.271 253.995 443.98C253.502 444.813 253.085 445.723 252.746 446.71C252.437 447.666 252.16 448.453 251.913 449.07C251.913 449.44 251.867 449.748 251.774 449.995C251.682 450.211 251.574 450.381 251.45 450.504C251.389 450.566 251.265 450.797 251.08 451.198C250.895 451.599 250.726 452 250.571 452.401C250.417 452.802 250.34 453.049 250.34 453.141C250.34 453.357 250.294 453.619 250.201 453.928C250.109 454.236 250.001 454.452 249.877 454.575C249.816 454.76 249.677 455.223 249.461 455.963C249.245 456.704 248.998 457.583 248.721 458.601C248.443 459.588 248.15 460.559 247.842 461.515C247.533 462.441 247.256 463.212 247.009 463.829C247.009 464.045 246.932 464.322 246.777 464.661C246.623 464.97 246.546 465.248 246.546 465.494C246.423 465.864 246.269 466.327 246.083 466.882C245.898 467.437 245.806 467.792 245.806 467.946C245.652 468.656 245.482 469.473 245.297 470.399C245.143 471.324 245.004 472.141 244.881 472.851C244.788 473.56 244.742 473.961 244.742 474.054C243.94 474.146 243.338 474.038 242.937 473.73C242.536 473.421 242.166 473.205 241.827 473.082C241.241 472.743 240.886 472.311 240.763 471.787C240.67 471.293 240.794 470.692 241.133 469.982C241.287 469.735 241.472 469.134 241.688 468.178C241.935 467.191 242.182 466.219 242.428 465.263C242.613 464.8 242.814 464.214 243.03 463.505C243.246 462.795 243.446 462.101 243.631 461.423C243.847 460.713 244.032 460.112 244.187 459.618C244.341 459.125 244.449 458.847 244.51 458.786C244.51 458.662 244.51 458.554 244.51 458.462C244.51 458.369 244.51 458.323 244.51 458.323C244.449 458.261 244.14 458.215 243.585 458.184C243.03 458.122 242.32 458.107 241.457 458.138C240.624 458.138 239.714 458.169 238.727 458.23C237.74 458.261 236.799 458.338 235.905 458.462C235.566 458.462 235.072 458.462 234.424 458.462C233.807 458.462 233.376 458.462 233.129 458.462C232.79 458.462 232.497 458.462 232.25 458.462C232.034 458.462 231.926 458.462 231.926 458.462C231.864 458.554 231.741 458.863 231.556 459.387C231.402 459.911 231.201 460.544 230.954 461.284C230.738 462.024 230.507 462.78 230.26 463.551C230.044 464.322 229.844 465.032 229.659 465.679C229.505 466.296 229.397 466.743 229.335 467.021C229.212 467.576 229.042 468.27 228.826 469.103C228.641 469.936 228.425 470.784 228.178 471.648C227.962 472.542 227.762 473.313 227.577 473.961C227.423 474.609 227.315 475.025 227.253 475.21ZM253.866 470.028C253.743 469.782 253.465 469.535 253.034 469.288C252.633 469.041 252.432 468.856 252.432 468.733C252.432 468.61 252.355 468.424 252.201 468.178C252.077 467.9 251.954 467.7 251.831 467.576C251.676 467.391 251.723 466.944 251.969 466.235C252.216 465.494 252.586 464.6 253.08 463.551C253.573 462.502 254.113 461.438 254.699 460.359C254.946 460.112 255.193 459.788 255.439 459.387C255.686 458.986 255.871 458.724 255.995 458.601C255.995 458.477 256.041 458.369 256.133 458.277C256.226 458.153 256.334 458.092 256.457 458.092L256.827 457.351C256.889 457.228 257.074 456.981 257.383 456.611C257.722 456.241 258.123 455.84 258.586 455.408C259.048 454.946 259.511 454.514 259.974 454.113C260.467 453.712 260.868 453.419 261.176 453.234C261.824 452.802 262.487 452.601 263.166 452.632C263.875 452.663 264.477 452.879 264.97 453.28C265.063 453.372 265.263 453.558 265.572 453.835C265.911 454.113 266.281 454.421 266.682 454.76C267.114 455.1 267.484 455.408 267.793 455.686L269.504 457.213L268.718 459.526C268.317 460.76 268.209 461.839 268.394 462.765C268.579 463.69 268.872 464.492 269.273 465.17C269.427 465.51 269.628 465.772 269.875 465.957C270.152 466.142 270.507 466.265 270.939 466.327C271.185 466.358 271.417 466.45 271.633 466.605C271.849 466.759 271.957 467.006 271.957 467.345C271.957 468.085 271.818 468.625 271.54 468.964C271.293 469.273 271.016 469.458 270.707 469.519C269.689 469.643 268.718 469.535 267.793 469.196C266.867 468.856 266.034 467.977 265.294 466.558C265.171 466.373 265.001 466.034 264.785 465.541C264.6 465.016 264.492 464.677 264.461 464.523C264.338 464.677 264.168 464.877 263.952 465.124C263.767 465.34 263.582 465.541 263.397 465.726C261.207 467.946 259.326 469.396 257.753 470.075C256.211 470.722 254.915 470.707 253.866 470.028ZM256.411 466.188C256.627 466.219 256.966 466.111 257.429 465.864C257.892 465.587 258.508 465.14 259.28 464.523C260.328 463.628 261.192 462.888 261.87 462.302C262.549 461.716 263.212 460.96 263.86 460.035L264.878 458.369C264.569 457.66 264.292 457.197 264.045 456.981C263.798 456.765 263.551 456.657 263.305 456.657C262.904 456.657 262.426 456.92 261.87 457.444C261.315 457.937 260.683 458.678 259.974 459.665C259.295 460.621 258.524 461.824 257.66 463.273C257.259 463.952 256.951 464.615 256.735 465.263C256.519 465.88 256.411 466.188 256.411 466.188ZM278.077 471.046C277.738 470.985 277.368 470.784 276.967 470.445C276.566 470.075 276.196 469.674 275.856 469.242C275.548 468.779 275.347 468.394 275.255 468.085C275.255 468.024 275.209 467.946 275.116 467.854C275.054 467.761 275.024 467.715 275.024 467.715C274.9 467.623 274.823 467.222 274.792 466.512C274.792 465.772 274.838 464.955 274.931 464.06C275.024 463.166 275.131 462.456 275.255 461.932C275.409 461.438 275.64 460.775 275.949 459.942C276.257 459.079 276.519 458.308 276.735 457.629L277.985 454.946L276.134 454.437C275.918 454.375 275.733 454.252 275.579 454.066C275.455 453.881 275.394 453.727 275.394 453.604C275.394 453.357 275.532 453.002 275.81 452.54C276.088 452.077 276.288 451.846 276.412 451.846C276.566 451.877 276.843 451.892 277.244 451.892C277.676 451.892 278.093 451.877 278.494 451.846C278.894 451.815 279.141 451.784 279.234 451.753C279.357 451.691 279.481 451.614 279.604 451.522C279.727 451.398 279.82 451.229 279.882 451.013C280.036 450.674 280.175 450.411 280.298 450.226C280.421 450.041 280.591 449.764 280.807 449.394C281.023 448.993 281.192 448.653 281.316 448.376C281.47 448.098 281.701 447.713 282.01 447.219C282.164 447.003 282.334 446.741 282.519 446.432C282.704 446.124 282.935 445.862 283.213 445.646C283.49 445.399 283.938 445.23 284.554 445.137C285.202 445.014 285.757 445.152 286.22 445.553C286.467 445.862 286.606 446.155 286.636 446.432C286.667 446.71 286.544 447.065 286.266 447.497C286.02 448.021 285.727 448.499 285.387 448.931C285.079 449.332 284.786 449.795 284.508 450.319C284.015 450.997 283.922 451.383 284.231 451.476C284.539 451.568 285.403 451.506 286.821 451.29C287.716 451.136 288.364 451.229 288.765 451.568C289.166 451.907 289.397 452.339 289.459 452.864C289.551 453.604 289.474 454.051 289.227 454.205C288.981 454.359 288.271 454.437 287.099 454.437C286.359 454.56 285.727 454.637 285.202 454.668C284.678 454.668 284.292 454.668 284.045 454.668C283.645 454.699 283.382 454.714 283.259 454.714C283.136 454.714 282.951 454.745 282.704 454.807C282.457 454.868 282.272 454.976 282.149 455.131C282.056 455.254 281.948 455.439 281.825 455.686C281.701 455.809 281.516 456.133 281.27 456.657C281.023 457.182 280.714 457.752 280.344 458.369C279.912 459.665 279.542 460.914 279.234 462.117C278.956 463.289 278.709 464.461 278.494 465.633C278.401 466.219 278.416 466.651 278.54 466.929C278.694 467.175 279.095 467.33 279.743 467.391C280.082 467.422 280.576 467.422 281.223 467.391C281.871 467.33 282.411 467.237 282.843 467.114C283.182 466.959 283.537 466.805 283.907 466.651C284.277 466.466 284.616 466.281 284.925 466.096C285.202 465.942 285.48 465.787 285.757 465.633C286.035 465.448 286.174 465.355 286.174 465.355C286.328 465.109 286.544 465.155 286.821 465.494C287.13 465.803 287.346 466.142 287.469 466.512C287.469 466.882 287.392 467.33 287.238 467.854C287.084 468.347 286.513 468.872 285.526 469.427C284.138 470.291 282.75 470.815 281.362 471C279.974 471.185 278.879 471.2 278.077 471.046ZM295.615 470.352C295.368 470.414 295.044 470.445 294.643 470.445C294.242 470.414 293.887 470.368 293.579 470.306C293.301 470.213 293.163 470.121 293.163 470.028C293.163 469.874 293.085 469.797 292.931 469.797C292.931 469.797 292.762 469.674 292.422 469.427C292.083 469.149 291.775 468.949 291.497 468.825C291.219 468.394 291.034 467.9 290.942 467.345C290.88 466.759 291.065 465.741 291.497 464.291C291.528 463.304 291.805 462.271 292.33 461.191C292.854 460.081 293.517 459.002 294.319 457.953C295.121 456.904 295.954 455.979 296.818 455.177C297.681 454.344 298.452 453.727 299.131 453.326C299.563 452.894 300.133 452.663 300.843 452.632C301.583 452.601 302.231 452.74 302.786 453.049C303.094 453.203 303.434 453.511 303.804 453.974C304.174 454.437 304.529 454.93 304.868 455.454C305.207 455.948 305.469 456.395 305.655 456.796C305.747 457.135 305.824 457.444 305.886 457.722C305.978 457.968 306.04 458.277 306.071 458.647C306.102 459.017 306.071 459.572 305.978 460.312C305.824 460.868 305.685 461.438 305.562 462.024C305.469 462.579 305.423 463.15 305.423 463.736C305.361 464.322 305.423 464.739 305.608 464.985C305.824 465.232 306.133 465.248 306.534 465.032C306.904 464.847 307.289 464.831 307.69 464.985C308.091 465.109 308.369 465.355 308.523 465.726C308.708 466.065 308.662 466.512 308.384 467.067C308.199 467.468 307.906 467.854 307.505 468.224C307.104 468.594 306.657 468.903 306.163 469.149C305.67 469.365 305.192 469.473 304.729 469.473C304.39 469.473 304.051 469.35 303.711 469.103C303.372 468.825 303.064 468.455 302.786 467.993C302.508 467.53 302.277 467.021 302.092 466.466L301.814 465.402L300.149 466.929C299.748 467.36 299.347 467.761 298.946 468.131C298.576 468.471 298.344 468.718 298.252 468.872C298.098 469.149 297.789 469.396 297.327 469.612C296.895 469.828 296.324 470.075 295.615 470.352ZM296.864 465.911C297.388 465.602 297.835 465.232 298.206 464.8C298.607 464.368 298.992 463.89 299.362 463.366C299.732 462.811 300.133 462.225 300.565 461.608C301.09 460.898 301.46 460.328 301.676 459.896C301.922 459.464 302.107 459.002 302.231 458.508C302.107 458.169 301.938 457.814 301.722 457.444C301.506 457.043 301.29 456.827 301.074 456.796C300.642 456.796 300.118 457.058 299.501 457.583C298.915 458.107 298.267 458.863 297.558 459.85C297.434 460.004 297.28 460.251 297.095 460.59C296.91 460.929 296.725 461.253 296.54 461.562C296.386 461.839 296.278 462.024 296.216 462.117C296.124 462.24 295.985 462.533 295.8 462.996C295.646 463.428 295.507 463.875 295.383 464.338C295.26 464.769 295.198 465.078 295.198 465.263C295.198 465.448 295.214 465.649 295.245 465.864C295.306 466.08 295.46 466.219 295.707 466.281C295.954 466.343 296.34 466.219 296.864 465.911ZM313.064 470.676C312.602 470.522 312.185 470.275 311.815 469.936C311.476 469.597 311.337 469.041 311.399 468.27C311.46 467.808 311.553 467.33 311.676 466.836C311.8 466.312 311.954 465.803 312.139 465.309C312.232 464.754 312.34 464.199 312.463 463.644C312.617 463.088 312.864 462.564 313.203 462.071C313.604 460.929 314.021 459.804 314.452 458.693C314.884 457.552 315.254 456.364 315.563 455.131C316.025 454.02 316.442 453.033 316.812 452.17C317.213 451.306 317.691 450.195 318.246 448.838C318.555 448.129 318.817 447.342 319.033 446.479C319.279 445.584 319.65 444.798 320.143 444.119C320.359 443.842 320.513 443.61 320.606 443.425C320.729 443.209 320.853 443.009 320.976 442.824C321.192 442.392 321.516 442.191 321.948 442.222C322.41 442.253 322.719 442.376 322.873 442.592C323.397 442.808 323.767 443.209 323.983 443.795C324.199 444.35 324.276 444.751 324.215 444.998C324.215 445.338 324.091 445.708 323.844 446.109C323.721 446.232 323.598 446.417 323.474 446.664C323.351 446.88 323.166 447.173 322.919 447.543C322.796 447.944 322.672 448.345 322.549 448.746C322.426 449.147 322.287 449.517 322.133 449.856C321.978 450.195 321.809 450.535 321.624 450.874C321.439 451.213 321.315 451.491 321.254 451.707C320.976 452.416 320.667 453.11 320.328 453.789C320.02 454.437 319.742 455.131 319.495 455.871C319.249 456.58 318.986 457.336 318.709 458.138C318.431 458.909 318.077 459.649 317.645 460.359C317.429 460.667 317.305 461.084 317.275 461.608C317.275 462.132 317.213 462.641 317.09 463.135C316.874 463.69 316.673 464.199 316.488 464.661C316.334 465.124 316.257 465.417 316.257 465.541C316.041 466.219 315.871 466.898 315.748 467.576C315.624 468.224 315.424 468.795 315.146 469.288C315.146 470.028 314.946 470.491 314.545 470.676C314.144 470.861 313.65 470.861 313.064 470.676ZM323.659 471.093C323.166 471.031 322.796 470.938 322.549 470.815C322.302 470.661 321.84 470.337 321.161 469.843C320.791 469.473 320.328 468.903 319.773 468.131C319.218 467.36 318.663 466.543 318.107 465.679C317.552 464.785 317.059 464.029 316.627 463.412L319.172 460.174C319.573 460.667 319.896 461.13 320.143 461.562C320.39 461.993 320.59 462.286 320.745 462.441C321.454 463.489 322.009 464.338 322.41 464.985C322.811 465.633 323.15 466.157 323.428 466.558C323.736 466.959 324.076 467.314 324.446 467.623C324.816 467.931 325.294 468.255 325.88 468.594C325.973 468.656 326.065 468.81 326.158 469.057C326.25 469.273 326.281 469.504 326.25 469.751C326.189 470.121 325.957 470.429 325.556 470.676C325.186 470.892 324.554 471.031 323.659 471.093ZM316.951 462.533C316.766 462.009 316.719 461.423 316.812 460.775C316.935 460.097 317.197 459.649 317.598 459.433C317.722 459.217 317.845 459.079 317.969 459.017C318.123 458.924 318.215 458.816 318.246 458.693C318.308 458.57 318.462 458.4 318.709 458.184C318.986 457.968 319.233 457.768 319.449 457.583C319.943 457.274 320.482 456.904 321.068 456.472C321.685 456.01 322.271 455.547 322.827 455.084C323.413 454.622 323.891 454.221 324.261 453.881C324.662 453.542 324.909 453.326 325.001 453.234C325.094 453.11 325.279 453.033 325.556 453.002C325.865 452.971 326.158 453.018 326.435 453.141C326.806 453.234 327.099 453.434 327.314 453.743C327.561 454.051 327.685 454.483 327.685 455.038C327.777 455.377 327.577 455.794 327.083 456.287C326.62 456.75 326.034 457.213 325.325 457.675C325.078 457.829 324.739 458.061 324.307 458.369C323.906 458.678 323.551 458.971 323.243 459.248C323.027 459.372 322.703 459.588 322.271 459.896C321.87 460.174 321.516 460.451 321.207 460.729C320.961 460.883 320.667 461.161 320.328 461.562C320.02 461.932 319.665 462.209 319.264 462.394C318.277 463.32 317.676 463.767 317.46 463.736C317.275 463.705 317.105 463.304 316.951 462.533ZM333.654 470.584C332.451 470.09 331.618 469.288 331.156 468.178C330.693 467.067 330.57 465.587 330.786 463.736C330.847 462.78 330.816 462.148 330.693 461.839C330.57 461.5 330.338 461.176 329.999 460.868C329.906 460.744 329.691 460.544 329.351 460.266C329.012 459.958 328.858 459.726 328.889 459.572C328.858 459.356 328.904 459.094 329.027 458.786C329.151 458.446 329.259 458.261 329.351 458.23C329.567 458.138 329.783 458.03 329.999 457.907C330.246 457.783 330.431 457.752 330.554 457.814C330.678 457.814 330.863 457.891 331.109 458.045C331.387 458.2 331.526 458.338 331.526 458.462C331.649 458.678 331.834 458.585 332.081 458.184C332.359 457.783 332.652 457.274 332.96 456.657C333.268 456.164 333.654 455.701 334.117 455.269C334.579 454.838 335.042 454.452 335.505 454.113C335.998 453.743 336.415 453.465 336.754 453.28C336.908 453.218 337.201 453.126 337.633 453.002C338.096 452.879 338.574 452.786 339.067 452.725C339.561 452.632 339.931 452.601 340.178 452.632C340.733 452.663 341.319 452.894 341.936 453.326C342.553 453.758 343.031 454.159 343.37 454.529C343.771 454.807 344.033 455.239 344.157 455.825C344.311 456.38 344.372 456.966 344.342 457.583C344.311 458.2 344.187 458.724 343.971 459.156C343.879 459.464 343.555 459.896 343 460.451C342.445 461.006 341.828 461.546 341.149 462.071C340.501 462.564 339.946 462.903 339.484 463.088C339.083 463.181 338.605 463.258 338.049 463.32C337.494 463.351 336.97 463.351 336.476 463.32C336.014 463.258 335.69 463.181 335.505 463.088C335.289 462.965 335.104 463.011 334.949 463.227C334.826 463.412 334.718 463.937 334.626 464.8C334.595 465.14 334.595 465.433 334.626 465.679C334.687 465.926 334.749 466.111 334.811 466.235C335.027 466.605 335.243 466.882 335.458 467.067C335.674 467.222 336.075 467.268 336.661 467.206C337.247 467.144 337.833 466.79 338.419 466.142C339.036 465.463 339.592 464.924 340.085 464.523C340.208 464.307 340.471 464.168 340.872 464.106C341.303 464.014 341.812 464.045 342.398 464.199C342.738 464.415 342.892 464.754 342.861 465.217C342.861 465.679 342.614 466.358 342.121 467.252C342.028 467.468 341.766 467.792 341.334 468.224C340.933 468.625 340.486 469.041 339.993 469.473C339.53 469.874 339.144 470.167 338.836 470.352C337.911 470.846 337.001 471.077 336.106 471.046C335.212 471.015 334.394 470.861 333.654 470.584ZM337.078 460.174C337.54 460.05 337.926 459.927 338.234 459.804C338.574 459.68 338.898 459.48 339.206 459.202C339.514 458.924 339.869 458.508 340.27 457.953C340.394 457.614 340.455 457.321 340.455 457.074C340.486 456.827 340.471 456.673 340.409 456.611C340.162 456.364 339.885 456.287 339.576 456.38C339.299 456.441 338.99 456.596 338.651 456.842C338.435 456.935 338.126 457.135 337.725 457.444C337.355 457.722 336.985 458.045 336.615 458.416C336.276 458.755 335.998 459.079 335.782 459.387C335.597 459.665 335.566 459.834 335.69 459.896C335.628 460.019 335.798 460.097 336.199 460.127C336.631 460.158 336.924 460.174 337.078 460.174Z" fill="#494949"/>
<g clip-path="url(#clip1_3_129)">
<rect x="24" y="38" width="360" height="381" fill="url(#paint0_linear_3_129)"/>
<g filter="url(#filter1_f_3_129)">
<path d="M267.316 107.342C267.316 121.513 255.828 133 241.658 133C227.487 133 216 121.513 216 107.342C216 93.1716 227.487 81.6842 241.658 81.6842C255.828 81.6842 267.316 93.1716 267.316 107.342Z" fill="white"/>
<circle cx="345.079" cy="83.6579" r="25.6579" fill="white"/>
<path d="M365.211 101.421C365.211 118.426 337.111 132.211 302.447 132.211C267.784 132.211 226.263 109.741 226.263 92.7369C226.263 75.7323 254.363 61.9474 289.026 61.9474C323.689 61.9474 365.211 84.4165 365.211 101.421Z" fill="white"/>
</g>
<g filter="url(#filter2_f_3_129)">
<path d="M55.6842 302.658C55.6842 310.026 49.7107 316 42.3421 316C34.9735 316 29 310.026 29 302.658C29 295.289 34.9735 289.316 42.3421 289.316C49.7107 289.316 55.6842 295.289 55.6842 302.658Z" fill="white"/>
<circle cx="96.121" cy="290.342" r="13.3421" fill="white"/>
<path d="M106.589 299.579C106.589 308.421 91.9775 315.59 73.9526 315.59C55.9278 315.59 34.3369 303.906 34.3369 295.063C34.3369 286.221 48.9489 279.053 66.9737 279.053C84.9985 279.053 106.589 290.737 106.589 299.579Z" fill="white"/>
</g>
</g>
<rect x="25" y="39" width="358" height="379" stroke="#F5F5F5" stroke-width="2"/>
</g>
<rect x="5" y="7" width="398" height="489" rx="11" stroke="black" stroke-opacity="0.1" stroke-width="2"/>
</g>
<defs>
<filter id="filter0_d_3_129" x="0" y="0" width="420" height="511" filterUnits="userSpaceOnUse" color-interpolation-filters="sRGB">
<feFlood flood-opacity="0" result="BackgroundImageFix"/>
<feColorMatrix in="SourceAlpha" type="matrix" values="0 0 0 0 0 0 0 0 0 0 0 0 0 0 0 0 0 0 127 0" result="hardAlpha"/>
<feOffset dx="6" dy="4"/>
<feGaussianBlur stdDeviation="5"/>
<feComposite in2="hardAlpha" operator="out"/>
<feColorMatrix type="matrix" values="0 0 0 0 0 0 0 0 0 0 0 0 0 0 0 0 0 0 0.1 0"/>
<feBlend mode="normal" in2="BackgroundImageFix" result="effect1_dropShadow_3_129"/>
<feBlend mode="normal" in="SourceGraphic" in2="effect1_dropShadow_3_129" result="shape"/>
</filter>
<filter id="filter1_f_3_129" x="192" y="34" width="202.737" height="123" filterUnits="userSpaceOnUse" color-interpolation-filters="sRGB">
<feFlood flood-opacity="0" result="BackgroundImageFix"/>
<feBlend mode="normal" in="SourceGraphic" in2="BackgroundImageFix" result="shape"/>
<feGaussianBlur stdDeviation="12" result="effect1_foregroundBlur_3_129"/>
</filter>
<filter id="filter2_f_3_129" x="5" y="253" width="128.463" height="86.9999" filterUnits="userSpaceOnUse" color-interpolation-filters="sRGB">
<feFlood flood-opacity="0" result="BackgroundImageFix"/>
<feBlend mode="normal" in="SourceGraphic" in2="BackgroundImageFix" result="shape"/>
<feGaussianBlur stdDeviation="12" result="effect1_foregroundBlur_3_129"/>
</filter>
<linearGradient id="paint0_linear_3_129" x1="29" y1="38" x2="443.348" y2="320.068" gradientUnits="userSpaceOnUse">
<stop stop-color="#78AEFF"/>
<stop offset="0.979167" stop-color="#8ED0FF"/>
</linearGradient>
<clipPath id="clip0_3_129">
<rect x="4" y="6" width="400" height="491" rx="12" fill="white"/>
</clipPath>
<clipPath id="clip1_3_129">
<rect x="24" y="38" width="360" height="381" fill="white"/>
</clipPath>
</defs>
</svg>
