<svg width="420" height="511" viewBox="0 0 420 511" fill="none" xmlns="http://www.w3.org/2000/svg">
<g filter="url(#filter0_d_3_113)">
<g clip-path="url(#clip0_3_113)">
<rect x="4" y="6" width="400" height="491" rx="12" fill="#A8284D"/>
<path d="M386.15 581.077C268.145 648.034 12 529 12 424C12 20.1176 -118.145 -32.7603 -0.140394 -99.7177C117.865 -166.675 300.001 -68.5539 406.672 119.442C513.343 307.438 504.155 514.119 386.15 581.077Z" fill="#F6F3EF"/>
<path d="M89.4207 473.221C89.2973 473.344 89.0043 473.375 88.5417 473.313C88.079 473.282 87.7089 473.067 87.4313 472.666C87.2154 472.234 87.092 471.74 87.0611 471.185C87.0303 470.63 87.0303 469.859 87.0611 468.872C87.2462 467.792 87.5546 466.373 87.9865 464.615C88.4183 462.857 88.8964 460.898 89.4207 458.739C89.9759 456.549 90.5311 454.313 91.0863 452.031C91.3639 450.951 91.5798 450.041 91.734 449.301C91.9191 448.561 92.0425 448.006 92.1042 447.635C92.1967 447.234 92.243 447.034 92.243 447.034C92.2121 447.096 92.1659 447.157 92.1042 447.219C92.0733 447.281 92.0425 447.342 92.0116 447.404C91.9808 447.466 91.95 447.527 91.9191 447.589C91.9191 447.589 91.8574 447.697 91.734 447.913C91.6415 448.129 91.4256 448.499 91.0863 449.023C90.8396 449.394 90.6082 449.825 90.3923 450.319C90.1764 450.812 89.8063 451.46 89.2819 452.262C88.7884 453.187 88.2332 454.252 87.6163 455.454C86.9994 456.657 86.4751 457.614 86.0433 458.323C85.8274 458.662 85.6269 458.955 85.4418 459.202C85.2876 459.449 85.1796 459.649 85.1179 459.804C84.9946 460.143 84.7941 460.559 84.5165 461.053C84.2389 461.546 83.915 462.024 83.5449 462.487C83.3598 462.765 83.1131 463.088 82.8046 463.459C82.527 463.829 82.2803 464.168 82.0643 464.476C81.8484 464.754 81.7405 464.893 81.7405 464.893C81.6788 465.078 81.4783 465.371 81.139 465.772C80.7997 466.173 80.3833 466.62 79.8898 467.114C79.4272 467.576 78.9491 468.008 78.4556 468.409C77.376 469.273 76.4815 469.812 75.7721 470.028C75.0935 470.244 74.307 469.982 73.4125 469.242C73.0115 468.748 72.6877 468.255 72.4409 467.761C72.1942 467.237 72.0708 466.528 72.0708 465.633C72.0708 464.739 72.225 463.489 72.5334 461.885C72.7494 460.868 72.9807 459.788 73.2274 458.647C73.505 457.506 73.7826 456.411 74.0602 455.362C74.3378 454.282 74.5846 453.357 74.8005 452.586C75.0473 451.784 75.2169 451.229 75.3094 450.92C75.402 450.149 75.4174 449.748 75.3557 449.717C75.294 449.656 75.1398 449.825 74.893 450.226C74.6771 450.566 74.2761 451.275 73.6901 452.355C73.1041 453.434 72.4409 454.699 71.7006 456.148C70.9912 457.598 70.2972 459.048 69.6187 460.498C68.354 462.842 67.2899 464.8 66.4263 466.373C65.5626 467.946 64.8532 469.211 64.298 470.167C63.7428 471.093 63.311 471.787 63.0025 472.249C62.7249 472.743 62.509 473.082 62.3548 473.267C62.2314 473.483 62.1389 473.622 62.0772 473.683C61.6145 473.653 61.2136 473.437 60.8743 473.036C60.535 472.635 60.2574 472.157 60.0415 471.601C59.9798 471.293 59.9335 470.969 59.9027 470.63C59.8718 470.291 59.9027 469.92 59.9952 469.519C60.1186 469.088 60.3037 468.625 60.5504 468.131C60.9514 467.33 61.3369 466.651 61.7071 466.096C62.0772 465.541 62.3085 465.201 62.4011 465.078C62.5553 464.862 62.6787 464.631 62.7712 464.384C62.8637 464.137 62.9254 463.906 62.9563 463.69C63.1105 463.505 63.3418 463.119 63.6503 462.533C63.9896 461.947 64.3289 461.315 64.6681 460.636C64.9149 460.235 65.2542 459.68 65.686 458.971C66.1178 458.23 66.5805 457.444 67.074 456.611C67.5675 455.747 67.9993 454.961 68.3695 454.252C69.7266 451.815 70.8062 449.872 71.6081 448.422C72.4101 446.941 72.9807 446.001 73.32 445.6C73.5359 445.445 73.721 445.152 73.8752 444.721C74.0602 444.258 74.2145 443.919 74.3378 443.703C74.7697 442.839 75.2015 442.13 75.6333 441.574C76.096 440.988 76.4969 440.695 76.8362 440.695C77.083 440.695 77.3914 440.788 77.7616 440.973C78.1625 441.158 78.5481 441.42 78.9182 441.76C79.2575 442.161 79.566 442.7 79.8436 443.379C80.152 444.027 80.2137 444.89 80.0286 445.97C79.9978 446.463 79.9207 447.065 79.7973 447.774C79.6739 448.453 79.5505 449.131 79.4272 449.81C79.3038 450.489 79.1804 451.059 79.057 451.522C78.8103 452.91 78.5327 454.236 78.2242 455.501C77.9466 456.734 77.6845 457.876 77.4377 458.924C77.1909 459.973 76.9905 460.898 76.8362 461.7C76.682 462.472 76.5741 463.104 76.5124 463.597C76.4815 464.091 76.5432 464.415 76.6974 464.569C76.79 464.6 76.9133 464.569 77.0676 464.476C77.2526 464.353 77.3914 464.23 77.484 464.106C77.669 463.86 77.8387 463.613 77.9929 463.366C78.1471 463.119 78.3476 462.811 78.5944 462.441C79.0879 461.762 79.5968 461.022 80.1212 460.22C80.6764 459.387 81.3241 458.369 82.0643 457.166C82.8355 455.933 83.7454 454.421 84.7941 452.632C85.8428 450.812 87.1228 448.561 88.6342 445.877C89.3436 444.798 90.0222 443.718 90.6699 442.639C91.3176 441.559 91.9037 440.726 92.428 440.14C92.8907 439.647 93.4613 439.477 94.1399 439.631C94.8493 439.786 95.4971 440.171 96.0831 440.788C96.6691 441.405 96.993 442.161 97.0547 443.055C97.0855 443.487 96.993 444.258 96.7771 445.368C96.592 446.448 96.3299 447.666 95.9906 449.023C95.6513 450.381 95.2657 451.707 94.8339 453.002C94.7414 453.527 94.5871 454.221 94.3712 455.084C94.1553 455.948 93.924 456.827 93.6772 457.722C93.4305 458.616 93.1992 459.418 92.9832 460.127C92.7673 461.176 92.5823 462.009 92.428 462.626C92.3047 463.243 92.243 463.952 92.243 464.754C91.9654 465.248 91.7803 465.957 91.6878 466.882C91.5952 467.808 91.549 468.764 91.549 469.751C91.4256 470.954 91.1634 471.802 90.7625 472.295C90.3923 472.789 90.1456 473.02 90.0222 472.989C89.7754 472.897 89.5749 472.974 89.4207 473.221ZM98.502 470.213C98.2552 469.967 98.0701 469.597 97.9468 469.103C97.8542 468.61 97.8234 468.131 97.8542 467.669C97.8851 467.175 97.9622 466.805 98.0856 466.558C98.0856 466.312 98.1164 466.127 98.1781 466.003C98.2706 465.849 98.3015 465.71 98.2706 465.587C98.2398 465.463 98.2706 465.248 98.3632 464.939C98.4557 464.631 98.5482 464.338 98.6408 464.06C98.8567 463.567 99.1034 462.934 99.381 462.163C99.6586 461.361 99.9362 460.559 100.214 459.757C100.491 458.924 100.723 458.215 100.908 457.629C101.093 457.012 101.201 456.642 101.232 456.519C101.232 456.148 101.478 455.948 101.972 455.917C102.342 455.794 102.789 455.948 103.314 456.38C103.838 456.812 104.254 457.274 104.563 457.768C104.81 458.015 104.902 458.338 104.84 458.739C104.779 459.14 104.578 459.711 104.239 460.451C104.116 460.698 103.961 461.114 103.776 461.7C103.622 462.256 103.514 462.718 103.452 463.088C103.329 463.335 103.175 463.69 102.99 464.153C102.836 464.584 102.697 465.001 102.573 465.402C102.512 465.556 102.45 465.849 102.388 466.281C102.327 466.682 102.25 467.098 102.157 467.53C102.064 467.962 101.941 468.301 101.787 468.548C101.509 469.812 101.016 470.553 100.306 470.769C99.6278 470.985 99.0263 470.8 98.502 470.213ZM103.499 451.661C103.159 451.414 102.897 451.121 102.712 450.782C102.558 450.411 102.465 450.088 102.435 449.81C102.435 449.532 102.465 449.363 102.527 449.301C102.836 448.962 103.098 448.514 103.314 447.959C103.56 447.404 103.823 446.895 104.1 446.432C104.162 446.34 104.239 446.217 104.332 446.062C104.455 445.877 104.578 445.769 104.702 445.738C105.072 445.492 105.581 445.507 106.228 445.785C106.907 446.062 107.401 446.448 107.709 446.941C107.987 447.527 108.064 448.129 107.94 448.746C107.848 449.363 107.524 450.01 106.969 450.689C106.506 451.306 105.92 451.707 105.211 451.892C104.501 452.046 103.931 451.969 103.499 451.661ZM124.702 469.89C124.024 469.828 123.453 469.689 122.99 469.473C122.559 469.226 122.204 468.748 121.926 468.039C121.803 467.545 121.741 467.037 121.741 466.512C121.772 465.957 121.818 465.433 121.88 464.939C121.942 464.415 121.972 463.967 121.972 463.597C121.972 463.536 121.972 463.412 121.972 463.227C121.972 463.042 121.972 462.873 121.972 462.718C121.911 462.256 121.787 461.978 121.602 461.885C121.448 461.762 121.171 461.778 120.77 461.932C120.122 462.24 119.412 462.657 118.641 463.181C117.901 463.674 117.114 464.261 116.282 464.939C115.48 465.587 114.647 466.281 113.783 467.021C113.105 467.761 112.596 468.363 112.256 468.825C111.948 469.288 111.624 469.519 111.285 469.519C111.038 469.643 110.776 469.612 110.498 469.427C110.221 469.242 109.928 469.026 109.619 468.779C109.403 468.532 109.141 468.224 108.833 467.854C108.555 467.453 108.386 467.191 108.324 467.067C108.324 466.574 108.355 466.127 108.416 465.726C108.509 465.325 108.632 464.908 108.787 464.476C108.972 464.045 109.187 463.551 109.434 462.996C109.558 462.78 109.666 462.564 109.758 462.348C109.881 462.101 110.02 461.839 110.175 461.562C110.298 461.13 110.468 460.636 110.683 460.081C110.93 459.526 111.162 459.002 111.377 458.508C111.717 457.706 111.979 457.012 112.164 456.426C112.349 455.84 112.503 455.208 112.627 454.529C112.596 454.467 112.611 454.375 112.673 454.252C112.735 454.128 112.827 454.051 112.95 454.02H112.997H113.043C113.259 453.866 113.66 453.851 114.246 453.974C114.863 454.066 115.326 454.236 115.634 454.483C116.282 455.038 116.59 455.763 116.559 456.657C116.528 457.552 116.066 458.724 115.171 460.174C114.955 460.667 114.724 461.13 114.477 461.562C114.261 461.963 114.153 462.24 114.153 462.394C114.153 462.394 114.277 462.302 114.524 462.117C114.77 461.932 115.063 461.716 115.403 461.469C115.742 461.191 116.035 460.976 116.282 460.821C116.436 460.667 116.775 460.39 117.3 459.989C117.824 459.557 118.395 459.11 119.011 458.647C119.628 458.184 120.122 457.829 120.492 457.583C120.831 457.336 121.263 457.089 121.787 456.842C122.312 456.565 122.636 456.426 122.759 456.426C123.067 456.426 123.438 456.534 123.869 456.75C124.332 456.966 124.748 457.228 125.119 457.536C125.52 457.814 125.751 458.076 125.813 458.323C125.813 458.446 125.797 458.616 125.766 458.832C125.735 459.017 125.72 459.187 125.72 459.341C125.689 459.834 125.674 460.436 125.674 461.145C125.705 461.824 125.72 462.518 125.72 463.227C125.72 463.906 125.658 464.523 125.535 465.078C125.535 465.078 125.55 465.109 125.581 465.17C125.612 465.201 125.643 465.263 125.674 465.355C125.643 465.386 125.628 465.448 125.628 465.541C125.658 465.602 125.674 465.633 125.674 465.633C125.735 465.849 125.797 466.065 125.859 466.281C125.951 466.497 126.059 466.743 126.183 467.021C126.306 467.268 126.445 467.592 126.599 467.993C126.568 468.394 126.337 468.795 125.905 469.196C125.504 469.566 125.103 469.797 124.702 469.89ZM135.574 470.352C135.327 470.414 135.003 470.445 134.602 470.445C134.202 470.414 133.847 470.368 133.538 470.306C133.261 470.213 133.122 470.121 133.122 470.028C133.122 469.874 133.045 469.797 132.891 469.797C132.891 469.797 132.721 469.674 132.382 469.427C132.042 469.149 131.734 468.949 131.456 468.825C131.179 468.394 130.994 467.9 130.901 467.345C130.839 466.759 131.025 465.741 131.456 464.291C131.487 463.304 131.765 462.271 132.289 461.191C132.814 460.081 133.477 459.002 134.279 457.953C135.081 456.904 135.913 455.979 136.777 455.177C137.641 454.344 138.412 453.727 139.09 453.326C139.522 452.894 140.093 452.663 140.802 452.632C141.542 452.601 142.19 452.74 142.745 453.049C143.054 453.203 143.393 453.511 143.763 453.974C144.133 454.437 144.488 454.93 144.827 455.454C145.167 455.948 145.429 456.395 145.614 456.796C145.706 457.135 145.784 457.444 145.845 457.722C145.938 457.968 145.999 458.277 146.03 458.647C146.061 459.017 146.03 459.572 145.938 460.312C145.784 460.868 145.645 461.438 145.521 462.024C145.429 462.579 145.383 463.15 145.383 463.736C145.321 464.322 145.383 464.739 145.568 464.985C145.784 465.232 146.092 465.248 146.493 465.032C146.863 464.847 147.249 464.831 147.65 464.985C148.051 465.109 148.328 465.355 148.482 465.726C148.668 466.065 148.621 466.512 148.344 467.067C148.159 467.468 147.866 467.854 147.465 468.224C147.064 468.594 146.616 468.903 146.123 469.149C145.629 469.365 145.151 469.473 144.689 469.473C144.349 469.473 144.01 469.35 143.671 469.103C143.331 468.825 143.023 468.455 142.745 467.993C142.468 467.53 142.236 467.021 142.051 466.466L141.774 465.402L140.108 466.929C139.707 467.36 139.306 467.761 138.905 468.131C138.535 468.471 138.304 468.718 138.211 468.872C138.057 469.149 137.749 469.396 137.286 469.612C136.854 469.828 136.284 470.075 135.574 470.352ZM136.823 465.911C137.348 465.602 137.795 465.232 138.165 464.8C138.566 464.368 138.952 463.89 139.322 463.366C139.692 462.811 140.093 462.225 140.525 461.608C141.049 460.898 141.419 460.328 141.635 459.896C141.882 459.464 142.067 459.002 142.19 458.508C142.067 458.169 141.897 457.814 141.681 457.444C141.465 457.043 141.249 456.827 141.034 456.796C140.602 456.796 140.077 457.058 139.46 457.583C138.874 458.107 138.227 458.863 137.517 459.85C137.394 460.004 137.24 460.251 137.055 460.59C136.87 460.929 136.684 461.253 136.499 461.562C136.345 461.839 136.237 462.024 136.176 462.117C136.083 462.24 135.944 462.533 135.759 462.996C135.605 463.428 135.466 463.875 135.343 464.338C135.219 464.769 135.158 465.078 135.158 465.263C135.158 465.448 135.173 465.649 135.204 465.864C135.266 466.08 135.42 466.219 135.667 466.281C135.913 466.343 136.299 466.219 136.823 465.911ZM157.836 471.278C157.404 471.154 156.972 470.938 156.54 470.63C156.108 470.321 155.661 469.967 155.198 469.566C154.828 469.072 154.566 468.625 154.412 468.224C154.258 467.792 154.165 467.299 154.134 466.743C154.134 466.157 154.134 465.417 154.134 464.523C154.134 464.153 154.196 463.628 154.319 462.95C154.473 462.271 154.628 461.562 154.782 460.821C154.967 460.081 155.137 459.433 155.291 458.878C155.445 458.292 155.538 457.907 155.568 457.722C155.661 457.321 155.507 457.089 155.106 457.028C154.705 456.966 154.258 456.95 153.764 456.981C153.301 456.981 152.993 456.935 152.839 456.842C152.715 456.812 152.654 456.657 152.654 456.38C152.654 456.071 152.654 455.917 152.654 455.917C152.654 455.794 152.592 455.717 152.469 455.686C152.345 455.624 152.237 455.516 152.145 455.362C152.083 455.239 152.16 455.007 152.376 454.668C152.592 454.329 152.87 454.128 153.209 454.066C153.486 454.005 153.903 453.959 154.458 453.928C155.013 453.866 155.568 453.758 156.124 453.604C156.71 453.419 157.157 453.141 157.465 452.771C157.743 452.092 158.051 451.368 158.391 450.596C158.73 449.795 159.054 449.101 159.362 448.514C159.671 447.898 159.887 447.512 160.01 447.358C160.534 447.08 161.074 446.972 161.629 447.034C162.185 447.065 162.616 447.327 162.925 447.82C163.079 448.036 163.202 448.191 163.295 448.283C163.418 448.376 163.465 448.514 163.434 448.7C163.434 448.885 163.31 449.224 163.064 449.717C162.848 450.18 162.478 450.905 161.953 451.892C161.799 452.2 161.66 452.478 161.537 452.725C161.413 452.941 161.352 453.049 161.352 453.049C161.475 453.079 161.66 453.095 161.907 453.095C162.154 453.095 162.462 453.079 162.832 453.049C163.172 452.987 163.542 452.941 163.943 452.91C164.344 452.848 164.698 452.848 165.007 452.91C165.716 452.91 166.241 453.11 166.58 453.511C166.919 453.912 167.104 454.421 167.135 455.038C167.197 455.377 167.073 455.67 166.765 455.917C166.457 456.164 165.886 456.287 165.053 456.287C164.775 456.287 164.375 456.303 163.85 456.334C163.326 456.364 162.786 456.395 162.231 456.426C161.676 456.457 161.198 456.503 160.797 456.565C160.426 456.596 160.241 456.642 160.241 456.704C160.149 456.765 159.995 457.012 159.779 457.444C159.594 457.845 159.393 458.338 159.177 458.924C158.992 459.51 158.823 460.066 158.668 460.59C158.452 461.639 158.298 462.657 158.206 463.644C158.113 464.631 158.098 465.494 158.159 466.235C158.252 466.944 158.437 467.453 158.715 467.761C158.992 468.039 159.409 468.039 159.964 467.761C160.55 467.453 161.09 467.098 161.583 466.697C162.138 466.235 162.616 466.096 163.017 466.281C163.418 466.435 163.665 466.774 163.758 467.299C163.881 467.792 163.742 468.332 163.341 468.918C162.971 469.504 162.447 469.998 161.768 470.399C161.09 470.8 160.396 471.077 159.686 471.231C158.977 471.416 158.36 471.432 157.836 471.278ZM173.06 471.416C172.659 471.447 172.335 471.401 172.088 471.278C171.841 471.185 171.533 471.031 171.163 470.815C170.484 470.291 169.914 469.643 169.451 468.872C169.019 468.101 168.819 467.453 168.849 466.929C168.911 466.651 168.911 466.404 168.849 466.188C168.819 465.972 168.803 465.864 168.803 465.864C168.618 465.71 168.556 465.618 168.618 465.587C168.68 465.525 168.726 465.433 168.757 465.309C169.004 465.248 169.035 465.078 168.849 464.8C168.757 464.554 168.803 463.998 168.988 463.135C169.204 462.24 169.482 461.407 169.821 460.636C169.975 460.297 170.191 459.85 170.469 459.295C170.777 458.739 171.117 458.184 171.487 457.629C171.857 457.043 172.196 456.58 172.505 456.241C173.183 455.47 173.785 454.838 174.309 454.344C174.864 453.851 175.481 453.48 176.16 453.234C176.776 452.987 177.393 452.879 178.01 452.91C178.658 452.941 179.229 453.157 179.722 453.558C180.462 453.773 181.126 454.113 181.712 454.575C182.298 455.007 182.699 455.624 182.914 456.426C183.161 457.321 183.238 458.385 183.146 459.618C183.084 460.821 182.56 462.379 181.573 464.291C180.987 465.494 180.401 466.466 179.815 467.206C179.259 467.946 178.581 468.656 177.779 469.334C177.193 469.828 176.437 470.26 175.512 470.63C174.587 471 173.769 471.262 173.06 471.416ZM177.085 464.43C177.486 463.875 177.794 463.335 178.01 462.811C178.257 462.286 178.488 461.562 178.704 460.636C178.797 460.297 178.843 459.881 178.843 459.387C178.874 458.894 178.858 458.446 178.797 458.045C178.766 457.614 178.658 457.382 178.473 457.351C178.072 457.197 177.656 457.197 177.224 457.351C176.823 457.475 176.345 457.845 175.789 458.462C175.296 459.017 174.895 459.541 174.587 460.035C174.309 460.498 174.047 461.068 173.8 461.747C173.584 462.394 173.337 463.243 173.06 464.291C172.813 465.309 172.798 466.127 173.013 466.743C173.26 467.36 173.723 467.53 174.401 467.252C175.08 466.975 175.975 466.034 177.085 464.43ZM199.732 474.933C199.115 474.593 198.699 474.192 198.483 473.73C198.267 473.267 198.174 472.758 198.205 472.203C198.267 471.648 198.375 471.077 198.529 470.491C198.776 469.504 199.038 468.687 199.316 468.039C199.624 467.36 199.917 466.666 200.195 465.957C200.503 465.217 200.765 464.276 200.981 463.135C201.475 461.993 201.907 460.914 202.277 459.896C202.678 458.878 202.986 458.045 203.202 457.398C203.418 456.75 203.526 456.426 203.526 456.426C203.557 456.303 203.68 455.979 203.896 455.454C204.143 454.93 204.436 454.298 204.775 453.558C205.145 452.786 205.5 452.015 205.839 451.244C206.364 449.764 206.857 448.514 207.32 447.497C207.782 446.448 208.245 445.507 208.708 444.674C209.201 443.842 209.726 443.009 210.281 442.176C210.651 441.528 211.175 441.143 211.854 441.019C212.532 440.896 213.18 440.973 213.797 441.251C214.414 441.497 214.815 441.929 215 442.546C215.154 442.855 215.278 443.209 215.37 443.61C215.493 444.011 215.601 444.613 215.694 445.415C215.817 446.186 215.894 447.312 215.925 448.792C215.987 450.55 216.018 452.17 216.018 453.65C216.049 455.1 216.11 456.441 216.203 457.675C216.326 458.909 216.527 460.035 216.804 461.053C216.897 461.608 216.989 462.286 217.082 463.088C217.174 463.86 217.267 464.631 217.36 465.402C217.483 466.173 217.606 466.821 217.73 467.345C217.853 467.838 217.976 468.085 218.1 468.085C218.254 468.085 218.424 467.962 218.609 467.715C218.825 467.437 219.102 466.867 219.442 466.003C219.781 465.14 220.213 463.813 220.737 462.024C221.261 460.235 221.894 457.829 222.634 454.807C222.788 454.282 222.989 453.434 223.235 452.262C223.513 451.09 223.713 449.902 223.837 448.7C224.053 447.928 224.269 447.08 224.485 446.155C224.7 445.23 224.886 444.412 225.04 443.703C225.225 442.993 225.317 442.592 225.317 442.5C225.317 442.284 225.317 442.099 225.317 441.945C225.348 441.79 225.348 441.636 225.317 441.482C225.472 441.482 225.61 441.281 225.734 440.881C225.857 440.449 225.919 440.079 225.919 439.77C225.919 439.246 225.981 438.829 226.104 438.521C226.258 438.182 226.412 437.935 226.567 437.781C226.906 437.164 227.338 436.855 227.862 436.855C228.417 436.824 228.926 436.979 229.389 437.318C229.852 437.626 230.129 438.012 230.222 438.475C230.283 438.814 230.191 439.585 229.944 440.788C229.728 441.96 229.389 443.549 228.926 445.553C228.926 445.893 228.834 446.448 228.649 447.219C228.464 447.99 228.263 448.807 228.047 449.671C227.862 450.535 227.723 451.275 227.631 451.892C227.507 452.694 227.369 453.45 227.214 454.159C227.06 454.838 226.906 455.161 226.752 455.131C225.95 458.616 225.101 461.592 224.207 464.06C223.343 466.497 222.572 468.486 221.894 470.028C221.153 471.725 220.197 472.804 219.025 473.267C217.884 473.761 216.82 473.375 215.833 472.11C215.247 471.308 214.753 470.522 214.352 469.751C213.951 468.98 213.627 468.07 213.381 467.021C213.134 465.972 212.918 464.646 212.733 463.042C212.548 461.747 212.378 460.482 212.224 459.248C212.101 457.984 212.008 456.704 211.946 455.408C211.885 454.082 211.869 452.678 211.9 451.198C211.931 449.44 211.854 448.407 211.669 448.098C211.515 447.79 211.283 447.959 210.975 448.607C210.666 449.255 210.312 450.134 209.911 451.244C209.695 451.861 209.433 452.571 209.124 453.372C208.847 454.144 208.553 454.915 208.245 455.686C207.937 456.457 207.674 457.12 207.459 457.675C207.243 458.23 207.104 458.585 207.042 458.739C206.857 459.11 206.641 459.603 206.394 460.22C206.148 460.806 205.947 461.438 205.793 462.117C204.683 465.016 203.85 467.515 203.295 469.612C202.77 471.679 202.385 473.051 202.138 473.73C201.829 474.593 201.536 475.118 201.259 475.303C201.012 475.488 200.503 475.364 199.732 474.933ZM230.413 470.028C230.29 469.782 230.012 469.535 229.58 469.288C229.179 469.041 228.979 468.856 228.979 468.733C228.979 468.61 228.902 468.424 228.748 468.178C228.624 467.9 228.501 467.7 228.377 467.576C228.223 467.391 228.27 466.944 228.516 466.235C228.763 465.494 229.133 464.6 229.627 463.551C230.12 462.502 230.66 461.438 231.246 460.359C231.493 460.112 231.74 459.788 231.986 459.387C232.233 458.986 232.418 458.724 232.541 458.601C232.541 458.477 232.588 458.369 232.68 458.277C232.773 458.153 232.881 458.092 233.004 458.092L233.374 457.351C233.436 457.228 233.621 456.981 233.929 456.611C234.269 456.241 234.67 455.84 235.132 455.408C235.595 454.946 236.058 454.514 236.52 454.113C237.014 453.712 237.415 453.419 237.723 453.234C238.371 452.802 239.034 452.601 239.713 452.632C240.422 452.663 241.024 452.879 241.517 453.28C241.61 453.372 241.81 453.558 242.119 453.835C242.458 454.113 242.828 454.421 243.229 454.76C243.661 455.1 244.031 455.408 244.339 455.686L246.051 457.213L245.265 459.526C244.864 460.76 244.756 461.839 244.941 462.765C245.126 463.69 245.419 464.492 245.82 465.17C245.974 465.51 246.175 465.772 246.421 465.957C246.699 466.142 247.054 466.265 247.486 466.327C247.732 466.358 247.964 466.45 248.18 466.605C248.395 466.759 248.503 467.006 248.503 467.345C248.503 468.085 248.365 468.625 248.087 468.964C247.84 469.273 247.563 469.458 247.254 469.519C246.236 469.643 245.265 469.535 244.339 469.196C243.414 468.856 242.581 467.977 241.841 466.558C241.718 466.373 241.548 466.034 241.332 465.541C241.147 465.016 241.039 464.677 241.008 464.523C240.885 464.677 240.715 464.877 240.499 465.124C240.314 465.34 240.129 465.541 239.944 465.726C237.754 467.946 235.873 469.396 234.3 470.075C232.757 470.722 231.462 470.707 230.413 470.028ZM232.958 466.188C233.174 466.219 233.513 466.111 233.976 465.864C234.438 465.587 235.055 465.14 235.826 464.523C236.875 463.628 237.739 462.888 238.417 462.302C239.096 461.716 239.759 460.96 240.407 460.035L241.425 458.369C241.116 457.66 240.839 457.197 240.592 456.981C240.345 456.765 240.098 456.657 239.852 456.657C239.451 456.657 238.973 456.92 238.417 457.444C237.862 457.937 237.23 458.678 236.52 459.665C235.842 460.621 235.071 461.824 234.207 463.273C233.806 463.952 233.498 464.615 233.282 465.263C233.066 465.88 232.958 466.188 232.958 466.188ZM253.745 469.473C253.159 469.226 252.681 468.856 252.311 468.363C251.971 467.838 251.802 467.206 251.802 466.466C251.802 466.157 251.863 465.633 251.987 464.893C252.11 464.153 252.28 463.32 252.496 462.394C252.712 461.469 252.928 460.605 253.143 459.804C253.452 459.248 253.652 458.693 253.745 458.138C253.868 457.583 253.93 457.243 253.93 457.12C253.992 456.75 254.1 456.256 254.254 455.64C254.408 455.023 254.562 454.467 254.716 453.974C254.902 453.45 255.025 453.157 255.087 453.095C255.241 452.941 255.503 452.848 255.873 452.817C256.243 452.786 256.613 452.833 256.984 452.956C257.354 453.049 257.6 453.249 257.724 453.558C258.063 453.928 258.248 454.483 258.279 455.223C258.341 455.963 258.202 456.827 257.863 457.814C257.585 458.431 257.307 459.156 257.03 459.989C256.752 460.821 256.505 461.592 256.29 462.302C256.104 462.98 255.997 463.443 255.966 463.69L254.3 463.644C254.824 463.15 255.318 462.641 255.781 462.117C256.243 461.562 256.583 461.13 256.798 460.821C257.323 460.112 257.77 459.526 258.14 459.063C258.541 458.57 259.05 457.984 259.667 457.305C260.284 456.596 260.947 456.102 261.656 455.825C262.366 455.516 262.89 455.362 263.23 455.362C263.908 455.485 264.51 455.84 265.034 456.426C265.589 456.981 265.928 457.814 266.052 458.924C266.052 459.356 266.006 459.865 265.913 460.451C265.851 461.037 265.82 461.33 265.82 461.33C265.82 461.33 266.067 461.022 266.561 460.405C267.085 459.788 267.779 459.094 268.643 458.323C269.229 457.891 269.799 457.644 270.355 457.583C270.91 457.49 271.403 457.675 271.835 458.138C272.637 458.57 273.223 459.325 273.593 460.405C273.963 461.485 274.087 462.703 273.963 464.06C273.871 464.862 273.871 465.51 273.963 466.003C274.087 466.466 274.21 466.882 274.333 467.252C274.734 467.808 274.796 468.301 274.519 468.733C274.241 469.134 273.994 469.334 273.778 469.334C273.47 469.334 273.007 469.273 272.39 469.149C271.773 469.026 271.203 468.81 270.678 468.502C270.185 468.193 269.938 467.777 269.938 467.252V464.384C269.938 463.705 269.907 463.212 269.846 462.903C269.815 462.564 269.738 462.348 269.614 462.256C269.275 462.071 268.859 462.209 268.365 462.672C267.872 463.135 267.332 463.798 266.746 464.661C266.191 465.494 265.589 466.435 264.941 467.484C264.355 468.44 263.877 469.026 263.507 469.242C263.137 469.427 262.782 469.412 262.443 469.196C261.764 468.98 261.333 468.687 261.148 468.317C260.993 467.916 260.978 467.468 261.101 466.975C261.255 466.45 261.441 465.772 261.656 464.939C261.903 464.106 262.135 463.304 262.35 462.533C262.566 461.731 262.705 461.145 262.767 460.775C262.643 460.528 262.428 460.451 262.119 460.544C261.842 460.605 261.549 460.744 261.24 460.96C260.87 461.207 260.469 461.469 260.037 461.747C259.636 462.024 259.158 462.61 258.603 463.505C258.233 464.091 257.816 464.739 257.354 465.448C256.891 466.127 256.459 466.743 256.058 467.299C255.688 467.854 255.38 468.239 255.133 468.455C254.917 469.011 254.716 469.365 254.531 469.519C254.346 469.643 254.084 469.627 253.745 469.473ZM282.353 470.954C281.613 470.954 280.965 470.568 280.41 469.797C279.886 468.995 279.562 468.039 279.438 466.929C279.469 466.682 279.5 466.327 279.531 465.864C279.593 465.402 279.654 464.924 279.716 464.43C279.839 463.844 280.009 463.088 280.225 462.163C280.441 461.238 280.672 460.312 280.919 459.387C281.166 458.431 281.382 457.614 281.567 456.935C281.752 456.226 281.86 455.809 281.89 455.686C282.076 455.254 282.492 455.146 283.14 455.362C283.787 455.578 284.343 456.04 284.805 456.75C284.99 456.997 285.098 457.29 285.129 457.629C285.191 457.968 285.145 458.462 284.99 459.11C284.867 459.757 284.62 460.713 284.25 461.978C283.911 463.212 283.649 464.214 283.464 464.985C283.309 465.726 283.248 466.512 283.278 467.345C283.155 468.764 283.032 469.735 282.908 470.26C282.785 470.753 282.6 470.985 282.353 470.954ZM286.61 451.753C286.486 451.846 286.363 451.892 286.24 451.892C286.147 451.861 285.977 451.769 285.731 451.614C285.515 451.583 285.237 451.445 284.898 451.198C284.589 450.92 284.312 450.643 284.065 450.365C283.849 450.088 283.741 449.918 283.741 449.856C283.71 449.548 283.726 449.054 283.787 448.376C283.88 447.697 284.05 447.065 284.296 446.479C284.574 445.862 284.944 445.538 285.407 445.507C285.53 445.507 285.792 445.569 286.193 445.692C286.625 445.816 287.072 445.97 287.535 446.155C287.782 446.618 288.013 447.219 288.229 447.959C288.445 448.7 288.46 449.424 288.275 450.134C288.121 450.812 287.566 451.352 286.61 451.753ZM290.833 471.139C290.587 471.046 290.263 470.8 289.862 470.399C289.461 469.967 289.106 469.504 288.798 469.011C288.489 468.486 288.335 468.054 288.335 467.715C288.489 467.376 288.69 466.774 288.936 465.911C289.214 465.047 289.522 464.075 289.862 462.996C290.108 462.657 290.294 462.271 290.417 461.839C290.571 461.377 290.71 460.96 290.833 460.59C291.08 460.035 291.358 459.403 291.666 458.693C291.975 457.984 292.268 457.259 292.545 456.519C292.854 455.778 293.131 455.131 293.378 454.575C293.81 453.65 294.164 452.848 294.442 452.17C294.751 451.46 295.044 450.766 295.321 450.088C295.63 449.409 295.953 448.653 296.293 447.82C296.755 446.864 297.172 445.924 297.542 444.998C297.943 444.042 298.282 443.194 298.56 442.454C298.868 441.713 299.053 441.189 299.115 440.881C299.084 440.634 299.115 440.464 299.208 440.372C299.3 440.248 299.423 440.171 299.578 440.14C299.732 440.048 299.979 439.986 300.318 439.955C300.657 439.924 300.889 439.909 301.012 439.909C301.382 439.971 301.752 440.279 302.122 440.834C302.523 441.359 302.724 441.806 302.724 442.176C302.724 442.669 302.477 443.595 301.984 444.952C301.521 446.278 300.842 447.851 299.948 449.671C298.868 451.984 298.051 453.773 297.496 455.038C296.971 456.303 296.617 457.197 296.432 457.722C296.246 458.246 296.169 458.585 296.2 458.739C296.2 458.739 296.324 458.693 296.57 458.601C296.817 458.508 297.187 458.292 297.681 457.953C298.02 457.737 298.406 457.459 298.837 457.12C299.269 456.781 299.686 456.472 300.087 456.195C300.518 455.917 300.858 455.747 301.104 455.686C301.259 455.562 301.475 455.408 301.752 455.223C302.03 455.038 302.292 454.868 302.539 454.714C303.125 454.282 303.587 454.144 303.927 454.298C304.266 454.452 304.574 454.714 304.852 455.084C305.191 455.485 305.315 455.917 305.222 456.38C305.16 456.812 304.682 457.382 303.788 458.092C303.109 458.585 302.384 459.063 301.613 459.526C300.842 459.958 300.133 460.343 299.485 460.683C298.868 461.022 298.421 461.299 298.143 461.515C298.143 461.515 298.282 461.716 298.56 462.117C298.837 462.518 299.1 462.903 299.346 463.273C299.593 463.767 299.902 464.399 300.272 465.17C300.642 465.911 300.919 466.435 301.104 466.743C301.444 467.237 301.783 467.561 302.122 467.715C302.492 467.869 303.032 467.823 303.742 467.576C304.204 467.453 304.59 467.468 304.898 467.623C305.238 467.746 305.515 467.962 305.731 468.27C305.854 468.517 305.916 468.764 305.916 469.011C305.916 469.257 305.716 469.55 305.315 469.89C304.451 470.476 303.603 470.969 302.77 471.37C301.968 471.802 301.197 471.771 300.457 471.278C299.809 470.784 299.192 470.229 298.606 469.612C298.051 468.964 297.419 468.178 296.709 467.252C296.709 467.129 296.617 466.867 296.432 466.466C296.246 466.065 296.123 465.834 296.061 465.772C295.938 465.525 295.799 465.309 295.645 465.124C295.522 464.908 295.46 464.8 295.46 464.8C295.367 464.461 295.244 464.183 295.09 463.967C294.966 463.752 294.797 463.628 294.581 463.597C294.458 463.69 294.319 463.844 294.164 464.06C294.01 464.276 293.856 464.538 293.702 464.847C293.517 465.309 293.332 465.772 293.147 466.235C292.962 466.666 292.807 467.144 292.684 467.669C292.561 468.162 292.483 468.764 292.453 469.473C292.483 469.812 292.345 470.183 292.036 470.584C291.728 470.954 291.327 471.139 290.833 471.139ZM310.96 470.167C310.59 470.26 310.174 470.152 309.711 469.843C309.248 469.535 308.832 469.149 308.462 468.687C308.092 468.224 307.86 467.808 307.768 467.437C307.645 466.79 307.675 466.003 307.86 465.078C308.076 464.122 308.431 463.119 308.925 462.071C309.418 460.991 310.035 459.942 310.775 458.924C311.516 457.876 312.348 456.935 313.274 456.102C314.199 455.269 315.201 454.622 316.281 454.159C316.744 453.912 317.067 453.758 317.253 453.696C317.438 453.604 317.623 453.604 317.808 453.696C317.993 453.758 318.317 453.912 318.779 454.159C319.211 454.282 319.643 454.437 320.075 454.622C320.537 454.776 320.938 455.084 321.278 455.547C321.525 456.01 321.71 456.472 321.833 456.935C321.956 457.398 322.064 457.922 322.157 458.508C322.404 459.279 322.496 459.788 322.434 460.035C322.373 460.251 322.28 460.42 322.157 460.544C321.91 460.852 321.848 461.006 321.972 461.006C321.972 461.006 321.956 461.068 321.925 461.191C321.925 461.284 321.864 461.438 321.74 461.654C321.525 462.333 321.355 462.98 321.231 463.597C321.139 464.183 321.154 464.708 321.278 465.17C321.525 465.849 321.848 466.25 322.249 466.373C322.681 466.497 323.236 466.219 323.915 465.541C324.254 465.294 324.64 465.14 325.072 465.078C325.503 464.985 325.719 465.062 325.719 465.309C325.719 465.309 325.766 465.355 325.858 465.448C325.951 465.51 326.059 465.541 326.182 465.541C326.336 465.541 326.398 465.695 326.367 466.003C326.336 466.281 326.275 466.605 326.182 466.975C326.089 467.345 325.966 467.653 325.812 467.9C325.349 468.363 325.118 468.671 325.118 468.825C325.118 468.825 325.056 468.887 324.933 469.011C324.84 469.103 324.671 469.257 324.424 469.473C323.869 469.812 323.159 469.982 322.296 469.982C321.463 469.982 320.815 469.812 320.352 469.473C319.89 469.134 319.427 468.718 318.964 468.224C318.533 467.73 318.255 467.268 318.132 466.836L317.9 466.373L316.559 467.252C316.219 467.592 315.973 467.854 315.818 468.039C315.664 468.193 315.525 468.332 315.402 468.455C315.309 468.579 315.201 468.687 315.078 468.779C314.986 468.872 314.878 468.918 314.754 468.918C314.631 468.918 314.523 468.918 314.43 468.918C314.338 468.918 314.292 468.918 314.292 468.918C314.292 469.041 314.076 469.211 313.644 469.427C313.212 469.612 312.734 469.782 312.21 469.936C311.685 470.09 311.269 470.167 310.96 470.167ZM311.932 466.281C312.117 466.281 312.395 466.173 312.765 465.957C313.166 465.71 313.598 465.417 314.06 465.078C314.523 464.739 314.939 464.399 315.309 464.06C315.71 463.721 316.003 463.443 316.188 463.227C316.312 463.104 316.451 462.903 316.605 462.626C316.79 462.348 316.99 462.101 317.206 461.885C317.916 461.084 318.363 460.451 318.548 459.989C318.733 459.495 318.656 458.971 318.317 458.416C318.193 458.076 318.039 457.891 317.854 457.86C317.669 457.829 317.283 457.937 316.697 458.184C316.327 458.4 315.926 458.755 315.494 459.248C315.063 459.742 314.615 460.297 314.153 460.914C313.721 461.531 313.32 462.163 312.95 462.811C312.58 463.459 312.271 464.045 312.024 464.569C311.809 465.093 311.701 465.51 311.701 465.818C311.701 465.942 311.731 466.049 311.793 466.142C311.886 466.235 311.932 466.281 311.932 466.281ZM330.297 470.213C329.742 469.812 329.279 469.304 328.909 468.687C328.57 468.07 328.369 467.36 328.308 466.558C328.215 466.034 328.4 465.371 328.863 464.569C329.356 463.736 330.035 462.873 330.899 461.978C331.793 461.053 332.78 460.189 333.86 459.387C335.155 458.554 336.065 457.984 336.589 457.675C337.145 457.367 337.453 457.166 337.515 457.074C337.607 456.981 337.592 456.858 337.468 456.704C337.376 456.58 337.145 456.519 336.774 456.519C336.435 456.488 335.973 456.441 335.386 456.38C335.016 456.411 334.723 456.426 334.507 456.426C334.322 456.426 334.076 456.441 333.767 456.472C333.459 456.503 332.934 456.596 332.194 456.75C331.639 456.781 331.192 456.781 330.852 456.75C330.544 456.688 330.282 456.549 330.066 456.334C329.912 456.056 329.773 455.717 329.649 455.316C329.557 454.915 329.588 454.668 329.742 454.575C329.804 454.236 330.05 453.897 330.482 453.558C330.945 453.187 331.747 452.941 332.888 452.817C333.135 452.848 333.613 452.864 334.322 452.864C335.063 452.864 335.88 452.925 336.774 453.049C338.07 453.203 339.072 453.357 339.782 453.511C340.491 453.635 341 453.804 341.309 454.02C341.648 454.236 341.864 454.545 341.956 454.946C342.141 455.408 342.157 455.933 342.003 456.519C341.879 457.105 341.509 457.737 340.892 458.416C340.306 459.094 339.396 459.819 338.162 460.59C337.33 461.176 336.651 461.67 336.127 462.071C335.602 462.472 335.155 462.857 334.785 463.227C334.446 463.597 334.06 464.029 333.628 464.523C332.95 465.355 332.472 465.895 332.194 466.142C331.947 466.358 332.055 466.543 332.518 466.697C332.641 466.821 332.857 466.898 333.166 466.929C333.474 466.929 333.783 466.913 334.091 466.882C334.338 466.882 334.631 466.882 334.97 466.882C335.34 466.851 335.572 466.867 335.664 466.929C335.911 467.052 336.235 467.052 336.636 466.929C337.068 466.805 337.515 466.682 337.977 466.558C338.162 466.528 338.456 466.497 338.856 466.466C339.257 466.435 339.658 466.404 340.059 466.373C340.46 466.312 340.753 466.25 340.938 466.188C341.278 466.065 341.663 466.019 342.095 466.049C342.558 466.049 342.851 466.049 342.974 466.049C343.159 466.204 343.267 466.497 343.298 466.929C343.329 467.36 343.236 467.792 343.02 468.224C342.805 468.656 342.419 468.933 341.864 469.057C340.969 469.365 340.352 469.581 340.013 469.705C339.705 469.797 339.427 469.828 339.18 469.797C338.594 469.951 337.869 470.059 337.006 470.121C336.142 470.183 335.263 470.229 334.369 470.26C333.474 470.26 332.657 470.26 331.917 470.26C331.176 470.229 330.636 470.213 330.297 470.213ZM353.913 470.075C352.988 470.599 352.001 470.907 350.952 471C349.934 471.062 348.978 470.923 348.083 470.584C347.189 470.213 346.464 469.674 345.909 468.964C345.6 468.563 345.307 467.931 345.03 467.067C344.752 466.173 344.706 464.97 344.891 463.459C345.076 462.04 345.508 460.605 346.186 459.156C346.896 457.706 347.76 456.426 348.777 455.316C349.795 454.205 350.906 453.45 352.109 453.049C352.54 452.894 352.972 452.786 353.404 452.725C353.867 452.632 354.468 452.617 355.208 452.678C355.918 452.771 356.55 452.956 357.105 453.234C357.661 453.48 358.062 453.758 358.308 454.066C358.802 454.56 359.126 455.038 359.28 455.501C359.434 455.963 359.496 456.411 359.465 456.842C359.311 457.829 358.864 458.894 358.123 460.035C357.414 461.176 356.411 462.024 355.116 462.579C354.592 462.795 353.975 462.934 353.265 462.996C352.556 463.058 351.584 462.965 350.35 462.718C349.61 462.564 349.117 462.641 348.87 462.95C348.654 463.258 348.561 463.86 348.592 464.754C348.654 465.309 348.777 465.803 348.962 466.235C349.178 466.636 349.564 466.913 350.119 467.067C350.829 467.191 351.337 467.206 351.646 467.114C351.954 466.99 352.34 466.821 352.803 466.605C353.049 466.45 353.281 466.281 353.497 466.096C353.743 465.911 353.975 465.726 354.191 465.541C354.437 465.355 354.638 465.217 354.792 465.124C354.946 465.001 355.1 464.924 355.255 464.893C355.409 464.862 355.563 464.847 355.717 464.847C356.057 464.877 356.381 465.062 356.689 465.402C356.997 465.741 357.198 466.065 357.29 466.373C357.29 466.62 357.136 466.975 356.828 467.437C356.519 467.869 356.103 468.332 355.579 468.825C355.085 469.288 354.53 469.705 353.913 470.075ZM353.312 459.757C353.527 459.665 353.836 459.449 354.237 459.11C354.669 458.77 355.054 458.416 355.394 458.045C355.733 457.644 355.902 457.336 355.902 457.12C355.902 456.781 355.671 456.488 355.208 456.241C354.777 455.994 354.206 455.948 353.497 456.102C353.25 456.164 352.957 456.334 352.618 456.611C352.278 456.889 351.939 457.213 351.6 457.583C351.26 457.922 350.967 458.261 350.721 458.601C350.474 458.909 350.304 459.156 350.212 459.341C350.335 459.495 350.582 459.618 350.952 459.711C351.322 459.804 351.723 459.85 352.155 459.85C352.618 459.85 353.003 459.819 353.312 459.757Z" fill="#494949"/>
<g clip-path="url(#clip1_3_113)">
<rect x="24" y="38" width="360" height="381" fill="url(#paint0_linear_3_113)"/>
<g filter="url(#filter1_f_3_113)">
<path d="M64.3158 101.342C64.3158 115.513 52.8284 127 38.6579 127C24.4874 127 13 115.513 13 101.342C13 87.1716 24.4874 75.6842 38.6579 75.6842C52.8284 75.6842 64.3158 87.1716 64.3158 101.342Z" fill="white"/>
<circle cx="142.079" cy="77.6579" r="25.6579" fill="white"/>
<path d="M162.211 95.4211C162.211 112.426 134.111 126.211 99.4474 126.211C64.7842 126.211 23.2632 103.741 23.2632 86.7368C23.2632 69.7323 51.3632 55.9474 86.0263 55.9474C120.689 55.9474 162.211 78.4165 162.211 95.4211Z" fill="white"/>
</g>
<g filter="url(#filter2_f_3_113)">
<path d="M330.684 188.658C330.684 196.027 324.711 202 317.342 202C309.973 202 304 196.027 304 188.658C304 181.289 309.973 175.316 317.342 175.316C324.711 175.316 330.684 181.289 330.684 188.658Z" fill="white"/>
<circle cx="371.121" cy="176.342" r="13.3421" fill="white"/>
<path d="M381.59 185.579C381.59 194.421 366.977 201.589 348.953 201.589C330.928 201.589 309.337 189.906 309.337 181.063C309.337 172.221 323.949 165.053 341.974 165.053C359.999 165.053 381.59 176.737 381.59 185.579Z" fill="white"/>
</g>
</g>
<rect x="25" y="39" width="358" height="379" stroke="#F5F5F5" stroke-width="2"/>
</g>
<rect x="5" y="7" width="398" height="489" rx="11" stroke="black" stroke-opacity="0.1" stroke-width="2"/>
</g>
<defs>
<filter id="filter0_d_3_113" x="0" y="0" width="420" height="511" filterUnits="userSpaceOnUse" color-interpolation-filters="sRGB">
<feFlood flood-opacity="0" result="BackgroundImageFix"/>
<feColorMatrix in="SourceAlpha" type="matrix" values="0 0 0 0 0 0 0 0 0 0 0 0 0 0 0 0 0 0 127 0" result="hardAlpha"/>
<feOffset dx="6" dy="4"/>
<feGaussianBlur stdDeviation="5"/>
<feComposite in2="hardAlpha" operator="out"/>
<feColorMatrix type="matrix" values="0 0 0 0 0 0 0 0 0 0 0 0 0 0 0 0 0 0 0.1 0"/>
<feBlend mode="normal" in2="BackgroundImageFix" result="effect1_dropShadow_3_113"/>
<feBlend mode="normal" in="SourceGraphic" in2="effect1_dropShadow_3_113" result="shape"/>
</filter>
<filter id="filter1_f_3_113" x="-11" y="28" width="202.737" height="123" filterUnits="userSpaceOnUse" color-interpolation-filters="sRGB">
<feFlood flood-opacity="0" result="BackgroundImageFix"/>
<feBlend mode="normal" in="SourceGraphic" in2="BackgroundImageFix" result="shape"/>
<feGaussianBlur stdDeviation="12" result="effect1_foregroundBlur_3_113"/>
</filter>
<filter id="filter2_f_3_113" x="280" y="139" width="128.463" height="87" filterUnits="userSpaceOnUse" color-interpolation-filters="sRGB">
<feFlood flood-opacity="0" result="BackgroundImageFix"/>
<feBlend mode="normal" in="SourceGraphic" in2="BackgroundImageFix" result="shape"/>
<feGaussianBlur stdDeviation="12" result="effect1_foregroundBlur_3_113"/>
</filter>
<linearGradient id="paint0_linear_3_113" x1="29" y1="38" x2="443.348" y2="320.068" gradientUnits="userSpaceOnUse">
<stop stop-color="#78AEFF"/>
<stop offset="0.979167" stop-color="#8ED0FF"/>
</linearGradient>
<clipPath id="clip0_3_113">
<rect x="4" y="6" width="400" height="491" rx="12" fill="white"/>
</clipPath>
<clipPath id="clip1_3_113">
<rect x="24" y="38" width="360" height="381" fill="white"/>
</clipPath>
</defs>
</svg>
