<svg width="420" height="511" viewBox="0 0 420 511" fill="none" xmlns="http://www.w3.org/2000/svg">
<g filter="url(#filter0_d_3_157)">
<g clip-path="url(#clip0_3_157)">
<rect x="4" y="6" width="400" height="491" rx="12" fill="#95819A"/>
<path d="M-10.6054 581.077C107.4 648.034 363.545 529 363.545 424C363.545 20.1176 493.69 -32.7603 375.685 -99.7178C257.68 -166.675 75.544 -68.554 -31.1272 119.442C-137.798 307.438 -128.61 514.119 -10.6054 581.077Z" fill="#30343D"/>
<path d="M95.1319 474.007C94.5767 473.853 94.1295 473.714 93.7902 473.591C93.4509 473.498 93.2813 473.452 93.2813 473.452C93.3429 473.298 93.3121 473.159 93.1887 473.036C93.0962 472.912 92.8803 472.835 92.541 472.804C92.0783 472.496 91.6002 472.064 91.1067 471.509C90.6132 470.954 90.1814 470.383 89.8113 469.797C89.4411 469.211 89.1944 468.779 89.071 468.502C88.8551 468.039 88.8705 467.761 89.1173 467.669C89.364 467.545 89.657 467.407 89.9963 467.252C90.3356 467.006 90.6903 466.821 91.0605 466.697C91.4614 466.574 91.7853 466.774 92.0321 467.299C92.433 468.008 93.0499 468.61 93.8827 469.103C94.7464 469.597 95.718 469.89 96.7975 469.982C97.9079 470.075 99.0183 469.89 100.129 469.427C100.869 469.088 101.27 468.625 101.332 468.039C101.393 467.422 101.162 466.713 100.638 465.911C100.545 465.664 100.406 465.463 100.221 465.309C100.067 465.155 99.8203 464.955 99.481 464.708C99.1725 464.461 98.7253 464.06 98.1392 463.505C97.6766 463.289 97.2448 463.088 96.8438 462.903C96.4736 462.718 96.0727 462.518 95.6409 462.302C95.1473 462.055 94.5921 461.716 93.9753 461.284C93.3584 460.821 92.7877 460.328 92.2634 459.804C91.739 459.248 91.3381 458.724 91.0605 458.23C90.567 457.768 90.2585 457.135 90.1351 456.334C90.0118 455.501 90.0272 454.622 90.1814 453.696C90.3665 452.771 90.6595 451.938 91.0605 451.198C91.2455 450.766 91.5848 450.211 92.0783 449.532C92.5718 448.823 93.127 448.098 93.7439 447.358C94.3608 446.618 94.9469 445.954 95.5021 445.368C96.0881 444.751 96.5508 444.335 96.89 444.119C97.1368 443.872 97.399 443.626 97.6766 443.379C97.9542 443.101 98.093 442.962 98.093 442.962C98.1238 442.808 98.1701 442.731 98.2318 442.731C98.3243 442.731 98.3706 442.731 98.3706 442.731C98.5248 442.639 98.8641 442.484 99.3884 442.268C99.9128 442.053 100.483 441.652 101.1 441.066C103.167 440.079 104.925 439.415 106.375 439.076C107.824 438.706 108.966 438.521 109.798 438.521C110.57 438.552 111.325 438.768 112.065 439.169C112.806 439.539 113.438 440.017 113.962 440.603C114.518 441.189 114.841 441.852 114.934 442.592C115.15 443.333 115.042 444.227 114.61 445.276C114.209 446.294 113.639 447.265 112.898 448.191C112.189 449.085 111.449 449.748 110.677 450.18C109.814 450.55 109.074 450.596 108.457 450.319C107.871 450.041 107.593 449.609 107.624 449.023C107.624 448.777 107.701 448.484 107.855 448.144C108.04 447.805 108.518 447.204 109.289 446.34C110.276 444.89 110.801 443.857 110.863 443.24C110.924 442.623 110.647 442.268 110.03 442.176C109.845 442.114 109.49 442.13 108.966 442.222C108.441 442.315 107.871 442.438 107.254 442.592C106.668 442.716 106.143 442.855 105.681 443.009C105.249 443.163 105.033 443.271 105.033 443.333C105.033 443.333 105.033 443.379 105.033 443.471C105.033 443.564 104.971 443.595 104.848 443.564C104.786 443.564 104.57 443.672 104.2 443.888C103.861 444.073 103.444 444.32 102.951 444.628C102.457 444.937 101.964 445.26 101.47 445.6C101.008 445.908 100.607 446.186 100.268 446.432C99.9282 446.679 99.7431 446.833 99.7123 446.895C99.6506 447.234 99.2959 447.543 98.6482 447.82C98.0313 448.191 97.4915 448.715 97.0288 449.394C96.5662 450.072 96.0264 450.936 95.4095 451.984C94.8852 452.694 94.515 453.465 94.2991 454.298C94.0832 455.1 94.0832 455.747 94.2991 456.241C94.4533 456.734 94.8697 457.228 95.5483 457.722C96.2577 458.184 97.2139 458.77 98.4168 459.48C99.4655 460.066 100.453 460.683 101.378 461.33C102.303 461.978 103.09 462.61 103.737 463.227C104.385 463.813 104.802 464.307 104.987 464.708C105.357 465.232 105.573 465.834 105.634 466.512C105.727 467.191 105.727 467.854 105.634 468.502C105.573 469.118 105.48 469.627 105.357 470.028C105.141 470.522 104.802 471.046 104.339 471.601C103.907 472.157 103.506 472.419 103.136 472.388C102.797 472.481 102.535 472.588 102.349 472.712C102.195 472.835 102.01 472.943 101.794 473.036C101.578 473.159 101.069 473.298 100.268 473.452C99.4655 473.637 98.5865 473.776 97.6303 473.869C96.6741 473.992 95.8413 474.038 95.1319 474.007ZM112.406 470.028C112.282 469.782 112.005 469.535 111.573 469.288C111.172 469.041 110.971 468.856 110.971 468.733C110.971 468.61 110.894 468.424 110.74 468.178C110.617 467.9 110.493 467.7 110.37 467.576C110.216 467.391 110.262 466.944 110.509 466.235C110.755 465.494 111.126 464.6 111.619 463.551C112.113 462.502 112.652 461.438 113.238 460.359C113.485 460.112 113.732 459.788 113.979 459.387C114.225 458.986 114.41 458.724 114.534 458.601C114.534 458.477 114.58 458.369 114.673 458.277C114.765 458.153 114.873 458.092 114.997 458.092L115.367 457.351C115.428 457.228 115.613 456.981 115.922 456.611C116.261 456.241 116.662 455.84 117.125 455.408C117.587 454.946 118.05 454.514 118.513 454.113C119.006 453.712 119.407 453.419 119.716 453.234C120.363 452.802 121.027 452.601 121.705 452.632C122.415 452.663 123.016 452.879 123.51 453.28C123.602 453.372 123.803 453.558 124.111 453.835C124.45 454.113 124.82 454.421 125.221 454.76C125.653 455.1 126.023 455.408 126.332 455.686L128.044 457.213L127.257 459.526C126.856 460.76 126.748 461.839 126.933 462.765C127.118 463.69 127.411 464.492 127.812 465.17C127.967 465.51 128.167 465.772 128.414 465.957C128.691 466.142 129.046 466.265 129.478 466.327C129.725 466.358 129.956 466.45 130.172 466.605C130.388 466.759 130.496 467.006 130.496 467.345C130.496 468.085 130.357 468.625 130.079 468.964C129.833 469.273 129.555 469.458 129.247 469.519C128.229 469.643 127.257 469.535 126.332 469.196C125.406 468.856 124.574 467.977 123.833 466.558C123.71 466.373 123.54 466.034 123.324 465.541C123.139 465.016 123.031 464.677 123.001 464.523C122.877 464.677 122.708 464.877 122.492 465.124C122.307 465.34 122.122 465.541 121.936 465.726C119.747 467.946 117.865 469.396 116.292 470.075C114.75 470.722 113.454 470.707 112.406 470.028ZM114.95 466.188C115.166 466.219 115.505 466.111 115.968 465.864C116.431 465.587 117.048 465.14 117.819 464.523C118.867 463.628 119.731 462.888 120.41 462.302C121.088 461.716 121.751 460.96 122.399 460.035L123.417 458.369C123.109 457.66 122.831 457.197 122.584 456.981C122.337 456.765 122.091 456.657 121.844 456.657C121.443 456.657 120.965 456.92 120.41 457.444C119.855 457.937 119.222 458.678 118.513 459.665C117.834 460.621 117.063 461.824 116.199 463.273C115.798 463.952 115.49 464.615 115.274 465.263C115.058 465.88 114.95 466.188 114.95 466.188ZM135.784 471.278C134.735 470.846 133.964 470.399 133.47 469.936C133.008 469.442 132.822 469.011 132.915 468.64C132.977 468.455 133.085 468.286 133.239 468.131C133.393 467.977 133.732 467.916 134.257 467.946C134.812 467.946 135.66 468.085 136.801 468.363C137.141 468.363 137.48 468.347 137.819 468.317C138.159 468.286 138.467 468.239 138.745 468.178C139.053 468.116 139.3 468.039 139.485 467.946C139.639 467.885 139.685 467.808 139.624 467.715C139.562 467.592 139.454 467.468 139.3 467.345C139.176 467.191 139.038 467.098 138.883 467.067C138.729 467.006 138.59 466.975 138.467 466.975C138.405 466.821 138.267 466.666 138.051 466.512C137.866 466.358 137.634 466.188 137.357 466.003C136.678 465.448 136.061 464.955 135.506 464.523C134.951 464.091 134.735 463.767 134.858 463.551C134.858 463.428 134.858 463.366 134.858 463.366C134.858 463.335 134.858 463.32 134.858 463.32C134.642 463.32 134.442 463.027 134.257 462.441C134.072 461.824 133.979 461.269 133.979 460.775C133.979 460.158 134.103 459.541 134.349 458.924C134.627 458.308 134.966 457.722 135.367 457.166C135.799 456.611 136.231 456.118 136.663 455.686C137.249 455.131 137.866 454.591 138.513 454.066C139.192 453.511 139.917 453.018 140.688 452.586C141.49 452.154 142.369 451.815 143.325 451.568C143.757 451.476 144.25 451.429 144.806 451.429C145.361 451.429 145.762 451.506 146.008 451.661C146.255 451.506 146.564 451.553 146.934 451.799C147.304 452.015 147.674 452.324 148.044 452.725C148.414 453.126 148.692 453.527 148.877 453.928C148.877 454.298 148.862 454.76 148.831 455.316C148.831 455.84 148.8 456.303 148.738 456.704C148.676 457.105 148.538 457.305 148.322 457.305C148.322 457.305 148.276 457.321 148.183 457.351C148.121 457.351 148.09 457.428 148.09 457.583C148.09 457.891 147.859 458.246 147.396 458.647C146.81 459.048 146.255 459.372 145.731 459.618C145.206 459.865 144.806 459.881 144.528 459.665C144.343 459.541 144.173 459.418 144.019 459.295C143.865 459.171 143.726 459.017 143.603 458.832C143.603 458.832 143.556 458.77 143.464 458.647C143.402 458.493 143.371 458.354 143.371 458.23C143.371 458.107 143.418 457.999 143.51 457.907C143.603 457.783 143.649 457.722 143.649 457.722C144.081 457.321 144.405 456.95 144.62 456.611C144.867 456.272 145.037 455.979 145.129 455.732C145.222 455.454 145.268 455.239 145.268 455.084C145.268 454.899 145.222 454.791 145.129 454.76C145.068 454.699 144.913 454.668 144.667 454.668C144.512 454.668 144.173 454.791 143.649 455.038C143.155 455.285 142.631 455.593 142.076 455.963C141.521 456.303 141.089 456.611 140.78 456.889C140.657 457.105 140.564 457.243 140.503 457.305C140.472 457.367 140.395 457.398 140.271 457.398C140.271 457.274 140.194 457.29 140.04 457.444C139.886 457.598 139.701 457.814 139.485 458.092C139.269 458.369 139.053 458.662 138.837 458.971C138.621 459.279 138.452 459.526 138.328 459.711C138.297 459.989 138.22 460.251 138.097 460.498C138.004 460.713 137.973 460.945 138.004 461.191C138.035 461.5 138.189 461.793 138.467 462.071C138.745 462.348 139.146 462.703 139.67 463.135C140.749 463.937 141.551 464.569 142.076 465.032C142.631 465.494 143.017 465.864 143.232 466.142C143.448 466.42 143.587 466.697 143.649 466.975C144.173 467.931 144.235 468.764 143.834 469.473C143.433 470.152 142.816 470.676 141.983 471.046C141.675 471.2 141.135 471.339 140.364 471.463C139.593 471.617 138.775 471.679 137.912 471.648C137.079 471.648 136.37 471.524 135.784 471.278ZM162.137 471.278C161.921 471.401 161.628 471.355 161.258 471.139C160.919 470.923 160.58 470.599 160.24 470.167C160.025 469.797 159.855 469.427 159.732 469.057C159.639 468.656 159.593 468.07 159.593 467.299C159.624 466.682 159.624 466.265 159.593 466.049C159.593 465.803 159.454 465.787 159.176 466.003C158.93 466.188 158.421 466.651 157.65 467.391C156.878 468.162 156.138 468.825 155.429 469.381C154.75 469.905 154.195 470.152 153.763 470.121C153.547 470.121 153.254 469.982 152.884 469.705C152.514 469.427 152.159 469.088 151.82 468.687C151.481 468.255 151.234 467.854 151.08 467.484C150.895 466.743 150.879 465.787 151.033 464.615C151.218 463.443 151.512 462.225 151.912 460.96C152.313 459.665 152.761 458.462 153.254 457.351C153.779 456.21 154.288 455.3 154.781 454.622C155.305 453.912 155.753 453.573 156.123 453.604C156.647 453.665 157.094 453.928 157.464 454.39C157.865 454.822 158.174 455.3 158.39 455.825C158.513 456.04 158.559 456.226 158.529 456.38C158.529 456.534 158.405 456.719 158.158 456.935C157.881 457.305 157.542 457.845 157.141 458.554C156.77 459.233 156.385 459.973 155.984 460.775C155.614 461.577 155.275 462.348 154.966 463.088C154.688 463.798 154.488 464.384 154.365 464.847C154.241 465.309 154.241 465.541 154.365 465.541C154.796 465.541 155.197 465.433 155.568 465.217C155.938 464.97 156.4 464.584 156.956 464.06C157.603 463.412 158.174 462.765 158.667 462.117C159.161 461.438 159.67 460.667 160.194 459.804C160.595 459.187 161.012 458.508 161.443 457.768C161.906 457.028 162.199 456.503 162.322 456.195C162.754 455.393 163.078 454.791 163.294 454.39C163.51 453.989 163.772 453.743 164.081 453.65C164.235 453.65 164.451 453.65 164.728 453.65C165.006 453.65 165.145 453.65 165.145 453.65C165.33 453.681 165.546 453.82 165.792 454.066C166.039 454.19 166.286 454.359 166.533 454.575C166.81 454.791 166.949 454.976 166.949 455.131C166.826 455.439 166.625 455.902 166.348 456.519C166.101 457.105 165.916 457.536 165.792 457.814C165.206 459.14 164.636 460.451 164.081 461.747C163.556 463.011 163.171 464.307 162.924 465.633C162.862 466.065 162.847 466.574 162.878 467.16C162.939 467.715 163.032 468.116 163.155 468.363C163.248 468.548 163.356 468.764 163.479 469.011C163.633 469.226 163.803 469.412 163.988 469.566C164.266 469.751 164.25 469.982 163.942 470.26C163.664 470.537 163.309 470.784 162.878 471C162.477 471.185 162.23 471.278 162.137 471.278ZM170.61 470.676C170.147 470.522 169.731 470.275 169.36 469.936C169.021 469.597 168.882 469.041 168.944 468.27C169.006 467.808 169.098 467.33 169.222 466.836C169.345 466.312 169.499 465.803 169.684 465.309C169.777 464.754 169.885 464.199 170.008 463.644C170.162 463.088 170.409 462.564 170.748 462.071C171.149 460.929 171.566 459.804 171.998 458.693C172.429 457.552 172.8 456.364 173.108 455.131C173.571 454.02 173.987 453.033 174.357 452.17C174.758 451.306 175.236 450.195 175.791 448.838C176.1 448.129 176.362 447.342 176.578 446.479C176.825 445.584 177.195 444.798 177.688 444.119C177.904 443.842 178.058 443.61 178.151 443.425C178.274 443.209 178.398 443.009 178.521 442.824C178.737 442.392 179.061 442.191 179.493 442.222C179.955 442.253 180.264 442.376 180.418 442.592C180.942 442.808 181.313 443.209 181.528 443.795C181.744 444.35 181.821 444.751 181.76 444.998C181.76 445.338 181.636 445.708 181.39 446.109C181.266 446.232 181.143 446.417 181.02 446.664C180.896 446.88 180.711 447.173 180.464 447.543C180.341 447.944 180.218 448.345 180.094 448.746C179.971 449.147 179.832 449.517 179.678 449.856C179.524 450.195 179.354 450.535 179.169 450.874C178.984 451.213 178.86 451.491 178.799 451.707C178.521 452.416 178.213 453.11 177.873 453.789C177.565 454.437 177.287 455.131 177.041 455.871C176.794 456.58 176.532 457.336 176.254 458.138C175.976 458.909 175.622 459.649 175.19 460.359C174.974 460.667 174.851 461.084 174.82 461.608C174.82 462.132 174.758 462.641 174.635 463.135C174.419 463.69 174.218 464.199 174.033 464.661C173.879 465.124 173.802 465.417 173.802 465.541C173.586 466.219 173.416 466.898 173.293 467.576C173.17 468.224 172.969 468.795 172.692 469.288C172.692 470.028 172.491 470.491 172.09 470.676C171.689 470.861 171.196 470.861 170.61 470.676ZM181.205 471.093C180.711 471.031 180.341 470.938 180.094 470.815C179.847 470.661 179.385 470.337 178.706 469.843C178.336 469.473 177.873 468.903 177.318 468.131C176.763 467.36 176.208 466.543 175.653 465.679C175.097 464.785 174.604 464.029 174.172 463.412L176.717 460.174C177.118 460.667 177.442 461.13 177.688 461.562C177.935 461.993 178.136 462.286 178.29 462.441C178.999 463.489 179.554 464.338 179.955 464.985C180.356 465.633 180.696 466.157 180.973 466.558C181.282 466.959 181.621 467.314 181.991 467.623C182.361 467.931 182.839 468.255 183.425 468.594C183.518 468.656 183.61 468.81 183.703 469.057C183.796 469.273 183.826 469.504 183.796 469.751C183.734 470.121 183.503 470.429 183.102 470.676C182.731 470.892 182.099 471.031 181.205 471.093ZM174.496 462.533C174.311 462.009 174.265 461.423 174.357 460.775C174.481 460.097 174.743 459.649 175.144 459.433C175.267 459.217 175.39 459.079 175.514 459.017C175.668 458.924 175.761 458.816 175.791 458.693C175.853 458.57 176.007 458.4 176.254 458.184C176.532 457.968 176.778 457.768 176.994 457.583C177.488 457.274 178.028 456.904 178.614 456.472C179.231 456.01 179.817 455.547 180.372 455.084C180.958 454.622 181.436 454.221 181.806 453.881C182.207 453.542 182.454 453.326 182.546 453.234C182.639 453.11 182.824 453.033 183.102 453.002C183.41 452.971 183.703 453.018 183.981 453.141C184.351 453.234 184.644 453.434 184.86 453.743C185.106 454.051 185.23 454.483 185.23 455.038C185.322 455.377 185.122 455.794 184.628 456.287C184.166 456.75 183.58 457.213 182.87 457.675C182.623 457.829 182.284 458.061 181.852 458.369C181.451 458.678 181.097 458.971 180.788 459.248C180.572 459.372 180.248 459.588 179.817 459.896C179.416 460.174 179.061 460.451 178.752 460.729C178.506 460.883 178.213 461.161 177.873 461.562C177.565 461.932 177.21 462.209 176.809 462.394C175.822 463.32 175.221 463.767 175.005 463.736C174.82 463.705 174.65 463.304 174.496 462.533ZM191.199 470.584C189.996 470.09 189.164 469.288 188.701 468.178C188.238 467.067 188.115 465.587 188.331 463.736C188.392 462.78 188.362 462.148 188.238 461.839C188.115 461.5 187.884 461.176 187.544 460.868C187.452 460.744 187.236 460.544 186.896 460.266C186.557 459.958 186.403 459.726 186.434 459.572C186.403 459.356 186.449 459.094 186.573 458.786C186.696 458.446 186.804 458.261 186.896 458.23C187.112 458.138 187.328 458.03 187.544 457.907C187.791 457.783 187.976 457.752 188.099 457.814C188.223 457.814 188.408 457.891 188.655 458.045C188.932 458.2 189.071 458.338 189.071 458.462C189.194 458.678 189.379 458.585 189.626 458.184C189.904 457.783 190.197 457.274 190.505 456.657C190.814 456.164 191.199 455.701 191.662 455.269C192.125 454.838 192.587 454.452 193.05 454.113C193.543 453.743 193.96 453.465 194.299 453.28C194.453 453.218 194.746 453.126 195.178 453.002C195.641 452.879 196.119 452.786 196.612 452.725C197.106 452.632 197.476 452.601 197.723 452.632C198.278 452.663 198.864 452.894 199.481 453.326C200.098 453.758 200.576 454.159 200.915 454.529C201.316 454.807 201.578 455.239 201.702 455.825C201.856 456.38 201.918 456.966 201.887 457.583C201.856 458.2 201.733 458.724 201.517 459.156C201.424 459.464 201.1 459.896 200.545 460.451C199.99 461.006 199.373 461.546 198.694 462.071C198.047 462.564 197.492 462.903 197.029 463.088C196.628 463.181 196.15 463.258 195.595 463.32C195.039 463.351 194.515 463.351 194.022 463.32C193.559 463.258 193.235 463.181 193.05 463.088C192.834 462.965 192.649 463.011 192.495 463.227C192.371 463.412 192.263 463.937 192.171 464.8C192.14 465.14 192.14 465.433 192.171 465.679C192.233 465.926 192.294 466.111 192.356 466.235C192.572 466.605 192.788 466.882 193.004 467.067C193.22 467.222 193.621 467.268 194.207 467.206C194.793 467.144 195.379 466.79 195.965 466.142C196.582 465.463 197.137 464.924 197.63 464.523C197.754 464.307 198.016 464.168 198.417 464.106C198.849 464.014 199.358 464.045 199.944 464.199C200.283 464.415 200.437 464.754 200.406 465.217C200.406 465.679 200.16 466.358 199.666 467.252C199.574 467.468 199.311 467.792 198.88 468.224C198.479 468.625 198.031 469.041 197.538 469.473C197.075 469.874 196.69 470.167 196.381 470.352C195.456 470.846 194.546 471.077 193.651 471.046C192.757 471.015 191.94 470.861 191.199 470.584ZM194.623 460.174C195.086 460.05 195.471 459.927 195.78 459.804C196.119 459.68 196.443 459.48 196.751 459.202C197.06 458.924 197.414 458.508 197.815 457.953C197.939 457.614 198 457.321 198 457.074C198.031 456.827 198.016 456.673 197.954 456.611C197.707 456.364 197.43 456.287 197.121 456.38C196.844 456.441 196.535 456.596 196.196 456.842C195.98 456.935 195.672 457.135 195.271 457.444C194.901 457.722 194.53 458.045 194.16 458.416C193.821 458.755 193.543 459.079 193.328 459.387C193.142 459.665 193.112 459.834 193.235 459.896C193.173 460.019 193.343 460.097 193.744 460.127C194.176 460.158 194.469 460.174 194.623 460.174ZM223.501 473.776C221.897 473.344 220.664 472.527 219.8 471.324C218.967 470.121 218.504 468.455 218.412 466.327C218.35 464.168 218.643 461.485 219.291 458.277C219.507 457.197 219.815 455.963 220.216 454.575C220.617 453.187 221.08 451.769 221.604 450.319C222.16 448.838 222.73 447.42 223.316 446.062C223.933 444.674 224.535 443.456 225.121 442.407C225.83 441.143 226.447 440.294 226.971 439.863C227.496 439.431 228.005 439.246 228.498 439.307C229.238 439.431 229.793 439.739 230.164 440.233C230.565 440.695 230.75 441.204 230.719 441.76C230.719 442.284 230.457 442.716 229.932 443.055C229.593 443.456 229.146 444.196 228.591 445.276C228.066 446.325 227.526 447.342 226.971 448.329C226.354 450.118 225.815 451.707 225.352 453.095C224.889 454.452 224.504 455.732 224.195 456.935C223.887 458.138 223.609 459.403 223.362 460.729C223.085 462.024 222.869 463.027 222.715 463.736C222.56 464.415 222.453 464.939 222.391 465.309C222.36 465.649 222.329 465.957 222.298 466.235C222.298 466.481 222.298 466.821 222.298 467.252C222.545 467.653 222.746 468.008 222.9 468.317C223.054 468.625 223.254 468.81 223.501 468.872C224.026 469.118 224.55 469.242 225.074 469.242C225.63 469.242 226.231 469.057 226.879 468.687C227.033 468.378 227.233 468.162 227.48 468.039C227.727 467.916 227.85 467.854 227.85 467.854C227.912 468.008 227.974 468.054 228.035 467.993C228.128 467.9 228.19 467.792 228.22 467.669C228.19 467.545 228.22 467.437 228.313 467.345C228.406 467.222 228.513 467.098 228.637 466.975C228.884 466.882 229.192 466.62 229.562 466.188C229.963 465.756 230.349 465.278 230.719 464.754C231.089 464.199 231.397 463.69 231.644 463.227C231.922 462.765 232.061 462.472 232.061 462.348C232.061 462.194 232.122 462.055 232.246 461.932C232.369 461.808 232.508 461.654 232.662 461.469C232.816 461.315 233.125 460.821 233.587 459.989C234.081 459.125 234.605 458.122 235.16 456.981C235.746 455.84 236.271 454.791 236.733 453.835C236.826 453.496 236.996 452.956 237.242 452.216C237.489 451.445 237.751 450.566 238.029 449.579C238.337 448.592 238.63 447.605 238.908 446.618C239.186 445.6 239.432 444.705 239.648 443.934C239.895 443.132 240.049 442.546 240.111 442.176C240.173 441.775 240.265 441.451 240.389 441.204C240.512 440.927 240.589 440.726 240.62 440.603C240.959 440.325 241.345 440.248 241.777 440.372C242.208 440.495 242.609 440.68 242.979 440.927C243.38 441.143 243.673 441.297 243.859 441.389C244.044 441.636 244.121 441.945 244.09 442.315C244.059 442.685 243.951 443.256 243.766 444.027C243.612 444.767 243.38 445.846 243.072 447.265C242.424 449.795 241.638 452.123 240.712 454.252C239.818 456.38 238.846 458.631 237.798 461.006C237.798 461.006 237.798 461.022 237.798 461.053C237.798 461.053 237.798 461.13 237.798 461.284C237.427 461.5 237.134 461.824 236.919 462.256C236.764 462.533 236.626 462.78 236.502 462.996C236.41 463.181 236.286 463.32 236.132 463.412C236.039 463.69 235.947 463.937 235.854 464.153C235.762 464.368 235.716 464.476 235.716 464.476C235.685 464.631 235.577 464.769 235.392 464.893C235.207 465.016 235.022 465.14 234.837 465.263C234.682 465.325 234.59 465.448 234.559 465.633C234.528 465.818 234.466 465.972 234.374 466.096C233.695 467.114 232.863 468.147 231.875 469.196C230.888 470.213 229.871 471.108 228.822 471.879C227.804 472.65 226.879 473.19 226.046 473.498C225.491 473.714 225.028 473.838 224.658 473.869C224.319 473.899 223.933 473.869 223.501 473.776ZM248.088 470.584C247.687 470.769 247.225 470.846 246.7 470.815C246.176 470.784 245.467 470.614 244.572 470.306C244.51 470.306 244.294 470.167 243.924 469.89C243.554 469.612 243.184 469.288 242.814 468.918C242.444 468.548 242.197 468.239 242.074 467.993C241.58 467.283 241.426 466.235 241.611 464.847C241.827 463.459 242.32 461.793 243.091 459.85C243.307 459.387 243.631 458.801 244.063 458.092C244.526 457.382 244.973 456.734 245.405 456.148C245.867 455.532 246.191 455.177 246.376 455.084C246.376 455.084 246.546 455.023 246.885 454.899C247.225 454.776 247.656 454.575 248.181 454.298C248.335 454.236 248.597 454.159 248.967 454.066C249.368 453.974 249.769 453.897 250.17 453.835C250.602 453.743 250.895 453.712 251.049 453.743C251.666 453.773 252.299 454.005 252.946 454.437C253.625 454.838 254.18 455.316 254.612 455.871C255.044 456.395 255.182 456.858 255.028 457.259C255.028 457.321 254.936 457.521 254.751 457.86C254.596 458.169 254.427 458.493 254.242 458.832C254.057 459.14 253.902 459.372 253.779 459.526C253.625 459.711 253.347 459.788 252.946 459.757C252.576 459.726 252.237 459.603 251.928 459.387C251.62 459.171 251.45 458.878 251.419 458.508C251.358 458.261 251.126 458.03 250.725 457.814C250.355 457.598 250.17 457.49 250.17 457.49C249.924 457.49 249.6 457.737 249.199 458.23C248.798 458.724 248.381 459.279 247.949 459.896C247.394 460.451 246.993 461.053 246.747 461.7C246.531 462.317 246.376 462.903 246.284 463.459C246.222 463.983 246.145 464.384 246.053 464.661C245.929 464.97 245.929 465.355 246.053 465.818C246.176 466.281 246.33 466.543 246.515 466.605C246.793 466.636 247.163 466.62 247.626 466.558C248.119 466.466 248.628 466.358 249.152 466.235C249.708 466.08 250.263 465.926 250.818 465.772C251.373 465.587 251.867 465.402 252.299 465.217C252.885 464.847 253.394 464.708 253.825 464.8C254.257 464.862 254.581 464.924 254.797 464.985C255.136 465.109 255.306 465.371 255.306 465.772C255.306 466.173 255.167 466.605 254.889 467.067C254.612 467.499 254.211 467.854 253.687 468.131C253.193 468.378 252.746 468.656 252.345 468.964C251.975 469.242 251.79 469.458 251.79 469.612C251.666 469.612 251.527 469.658 251.373 469.751C251.25 469.812 251.142 469.828 251.049 469.797C250.988 469.797 250.741 469.843 250.309 469.936C249.877 470.028 249.43 470.136 248.967 470.26C248.536 470.383 248.242 470.491 248.088 470.584ZM262.099 469.242C261.884 469.273 261.637 469.196 261.359 469.011C261.112 468.795 260.881 468.61 260.665 468.455C260.357 468.085 260.141 467.761 260.017 467.484C259.894 467.206 259.832 466.898 259.832 466.558C259.832 466.219 259.863 465.818 259.925 465.355C260.079 464.862 260.264 464.199 260.48 463.366C260.696 462.533 260.958 461.639 261.267 460.683C261.328 460.312 261.436 459.881 261.591 459.387C261.776 458.863 261.961 458.369 262.146 457.907C262.331 457.413 262.47 457.043 262.562 456.796C262.778 456.025 262.994 455.285 263.21 454.575C263.457 453.866 263.75 453.049 264.089 452.123C264.428 451.198 264.845 450.026 265.338 448.607C266.017 446.756 266.526 445.368 266.865 444.443C267.204 443.518 267.451 442.855 267.605 442.454C267.759 442.053 267.867 441.729 267.929 441.482C267.929 441.235 268.099 441.004 268.438 440.788C268.808 440.541 269.132 440.418 269.41 440.418C269.841 440.449 270.258 440.711 270.659 441.204C271.06 441.667 271.337 442.238 271.492 442.916C271.646 443.564 271.538 444.196 271.168 444.813C270.674 445.924 270.181 447.173 269.687 448.561C269.224 449.918 268.762 451.275 268.299 452.632C267.836 453.989 267.374 455.239 266.911 456.38C266.88 456.534 266.772 456.796 266.587 457.166C266.433 457.536 266.294 457.845 266.171 458.092C266.048 458.338 265.924 458.57 265.801 458.786C265.708 459.002 265.662 459.11 265.662 459.11C265.631 459.295 265.569 459.557 265.477 459.896C265.384 460.235 265.292 460.528 265.199 460.775C265.168 460.929 265.122 461.13 265.06 461.377C264.999 461.623 264.953 461.87 264.922 462.117C265.076 461.932 265.292 461.716 265.569 461.469C265.847 461.191 266.202 460.852 266.634 460.451C267.127 460.019 267.559 459.649 267.929 459.341C268.299 459.032 268.669 458.755 269.039 458.508C269.379 458.261 269.687 458.03 269.965 457.814C270.273 457.598 270.427 457.49 270.427 457.49C270.489 457.398 270.551 457.29 270.612 457.166C270.705 457.043 270.798 456.966 270.89 456.935C270.952 456.873 271.06 456.796 271.214 456.704C271.368 456.58 271.522 456.457 271.677 456.334C271.954 456.148 272.247 455.994 272.556 455.871C272.864 455.747 273.188 455.655 273.527 455.593C273.867 455.532 274.19 455.501 274.499 455.501C274.869 455.501 275.255 455.655 275.656 455.963C276.057 456.241 276.427 456.642 276.766 457.166C277.074 457.567 277.259 458.045 277.321 458.601C277.414 459.125 277.429 459.834 277.367 460.729C277.367 460.976 277.29 461.438 277.136 462.117C277.013 462.795 276.92 463.304 276.858 463.644L276.442 465.217H276.812C277.151 465.093 277.475 465.078 277.784 465.17C278.123 465.263 278.293 465.309 278.293 465.309C278.447 465.402 278.586 465.51 278.709 465.633C278.863 465.756 279.002 465.849 279.126 465.911C279.311 466.157 279.28 466.512 279.033 466.975C278.786 467.437 278.509 467.761 278.2 467.946C277.46 468.44 276.797 468.748 276.211 468.872C275.656 468.995 275.069 468.887 274.453 468.548C273.867 468.147 273.466 467.669 273.25 467.114C273.065 466.558 272.987 465.803 273.018 464.847C273.142 463.489 273.219 462.518 273.25 461.932C273.281 461.315 273.126 461.006 272.787 461.006C272.417 461.006 271.908 461.191 271.26 461.562C270.643 461.901 269.949 462.379 269.178 462.996C268.407 463.582 267.636 464.245 266.865 464.985C266.125 465.695 265.461 466.42 264.875 467.16C264.505 467.623 264.104 468.085 263.673 468.548C263.241 468.98 262.716 469.211 262.099 469.242ZM283.69 470.213C283.443 469.967 283.258 469.597 283.135 469.103C283.042 468.61 283.011 468.131 283.042 467.669C283.073 467.175 283.15 466.805 283.274 466.558C283.274 466.312 283.304 466.127 283.366 466.003C283.459 465.849 283.49 465.71 283.459 465.587C283.428 465.463 283.459 465.248 283.551 464.939C283.644 464.631 283.736 464.338 283.829 464.06C284.045 463.567 284.291 462.934 284.569 462.163C284.847 461.361 285.124 460.559 285.402 459.757C285.679 458.924 285.911 458.215 286.096 457.629C286.281 457.012 286.389 456.642 286.42 456.519C286.42 456.148 286.666 455.948 287.16 455.917C287.53 455.794 287.977 455.948 288.502 456.38C289.026 456.812 289.442 457.274 289.751 457.768C289.998 458.015 290.09 458.338 290.029 458.739C289.967 459.14 289.766 459.711 289.427 460.451C289.304 460.698 289.149 461.114 288.964 461.7C288.81 462.256 288.702 462.718 288.641 463.088C288.517 463.335 288.363 463.69 288.178 464.153C288.024 464.584 287.885 465.001 287.761 465.402C287.7 465.556 287.638 465.849 287.576 466.281C287.515 466.682 287.438 467.098 287.345 467.53C287.253 467.962 287.129 468.301 286.975 468.548C286.697 469.812 286.204 470.553 285.494 470.769C284.816 470.985 284.214 470.8 283.69 470.213ZM288.687 451.661C288.347 451.414 288.085 451.121 287.9 450.782C287.746 450.411 287.653 450.088 287.623 449.81C287.623 449.532 287.653 449.363 287.715 449.301C288.024 448.962 288.286 448.514 288.502 447.959C288.748 447.404 289.011 446.895 289.288 446.432C289.35 446.34 289.427 446.217 289.52 446.062C289.643 445.877 289.766 445.769 289.89 445.738C290.26 445.492 290.769 445.507 291.417 445.785C292.095 446.062 292.589 446.448 292.897 446.941C293.175 447.527 293.252 448.129 293.128 448.746C293.036 449.363 292.712 450.01 292.157 450.689C291.694 451.306 291.108 451.707 290.399 451.892C289.689 452.046 289.119 451.969 288.687 451.661ZM308.872 470.26C308.101 470.63 307.346 470.769 306.605 470.676C305.896 470.553 305.294 470.167 304.801 469.519C304.338 468.841 304.107 467.854 304.107 466.558C304.107 466.219 304.122 465.818 304.153 465.355C304.215 464.862 304.307 464.353 304.431 463.829C304.554 463.273 304.708 462.718 304.893 462.163C304.986 461.885 305.109 461.608 305.264 461.33C305.449 461.053 305.479 460.914 305.356 460.914C305.233 460.914 305.079 460.991 304.893 461.145C304.739 461.299 304.616 461.423 304.523 461.515C303.752 462.194 303.043 462.903 302.395 463.644C301.778 464.353 301.223 465.062 300.729 465.772C300.267 466.45 299.897 467.083 299.619 467.669C299.372 468.255 299.249 468.748 299.249 469.149C299.249 469.612 299.018 469.936 298.555 470.121C298.092 470.306 297.691 470.291 297.352 470.075C296.766 469.735 296.226 469.211 295.733 468.502C295.27 467.792 295.085 466.867 295.177 465.726C295.27 464.276 295.393 462.98 295.548 461.839C295.702 460.698 295.949 459.464 296.288 458.138C296.658 456.781 297.136 455.131 297.722 453.187C298.123 452.108 298.493 451.09 298.833 450.134C299.172 449.147 299.465 448.314 299.712 447.635C299.989 446.957 300.159 446.54 300.221 446.386C300.375 446.232 300.575 445.862 300.822 445.276C301.069 444.659 301.285 444.042 301.47 443.425C301.686 442.808 301.794 442.438 301.794 442.315C301.794 442.068 301.84 441.852 301.932 441.667C302.056 441.482 302.164 441.312 302.256 441.158C302.441 440.726 302.596 440.433 302.719 440.279C302.873 440.094 303.012 440.001 303.135 440.001C303.29 440.001 303.536 440.079 303.876 440.233C304.246 440.387 304.585 440.587 304.893 440.834C305.233 441.05 305.433 441.281 305.495 441.528C305.711 441.96 305.834 442.407 305.865 442.87C305.896 443.302 305.788 443.842 305.541 444.489C305.294 445.137 304.863 446.032 304.246 447.173C303.752 448.129 303.305 449.116 302.904 450.134C302.503 451.152 302.117 452.216 301.747 453.326C301.593 453.789 301.393 454.406 301.146 455.177C300.899 455.917 300.652 456.688 300.406 457.49C300.19 458.261 300.005 458.955 299.85 459.572C299.696 460.189 299.619 460.59 299.619 460.775C299.619 460.991 299.742 461.099 299.989 461.099C300.236 461.068 300.483 460.883 300.729 460.544C300.853 460.297 301.053 460.066 301.331 459.85C301.609 459.603 301.855 459.356 302.071 459.11C302.318 458.801 302.611 458.446 302.95 458.045C303.32 457.614 303.706 457.213 304.107 456.842C304.539 456.441 304.924 456.118 305.264 455.871C305.634 455.624 305.942 455.501 306.189 455.501C306.775 455.501 307.268 455.67 307.669 456.01C308.07 456.349 308.41 456.873 308.687 457.583C308.78 457.675 308.872 457.799 308.965 457.953C309.057 458.076 309.119 458.169 309.15 458.23C309.304 458.354 309.381 458.847 309.381 459.711C309.381 460.544 309.135 461.7 308.641 463.181C308.363 464.322 308.194 465.17 308.132 465.726C308.101 466.281 308.209 466.558 308.456 466.558C308.456 466.558 308.61 466.466 308.919 466.281C309.258 466.096 309.613 465.895 309.983 465.679C310.877 465.093 311.525 464.908 311.926 465.124C312.327 465.34 312.527 465.618 312.527 465.957C312.527 466.235 312.419 466.558 312.204 466.929C312.018 467.299 311.926 467.545 311.926 467.669C311.926 467.669 311.926 467.684 311.926 467.715C311.926 467.715 311.926 467.777 311.926 467.9C311.926 467.962 311.725 468.178 311.324 468.548C310.924 468.918 310.476 469.288 309.983 469.658C309.52 469.998 309.15 470.198 308.872 470.26ZM320.943 470.352C320.696 470.414 320.372 470.445 319.971 470.445C319.57 470.414 319.216 470.368 318.907 470.306C318.63 470.213 318.491 470.121 318.491 470.028C318.491 469.874 318.414 469.797 318.259 469.797C318.259 469.797 318.09 469.674 317.75 469.427C317.411 469.149 317.103 468.949 316.825 468.825C316.548 468.394 316.362 467.9 316.27 467.345C316.208 466.759 316.393 465.741 316.825 464.291C316.856 463.304 317.134 462.271 317.658 461.191C318.182 460.081 318.845 459.002 319.647 457.953C320.449 456.904 321.282 455.979 322.146 455.177C323.009 454.344 323.781 453.727 324.459 453.326C324.891 452.894 325.462 452.663 326.171 452.632C326.911 452.601 327.559 452.74 328.114 453.049C328.423 453.203 328.762 453.511 329.132 453.974C329.502 454.437 329.857 454.93 330.196 455.454C330.535 455.948 330.798 456.395 330.983 456.796C331.075 457.135 331.152 457.444 331.214 457.722C331.307 457.968 331.368 458.277 331.399 458.647C331.43 459.017 331.399 459.572 331.307 460.312C331.152 460.868 331.014 461.438 330.89 462.024C330.798 462.579 330.751 463.15 330.751 463.736C330.69 464.322 330.751 464.739 330.936 464.985C331.152 465.232 331.461 465.248 331.862 465.032C332.232 464.847 332.617 464.831 333.018 464.985C333.419 465.109 333.697 465.355 333.851 465.726C334.036 466.065 333.99 466.512 333.712 467.067C333.527 467.468 333.234 467.854 332.833 468.224C332.432 468.594 331.985 468.903 331.492 469.149C330.998 469.365 330.52 469.473 330.057 469.473C329.718 469.473 329.379 469.35 329.039 469.103C328.7 468.825 328.392 468.455 328.114 467.993C327.837 467.53 327.605 467.021 327.42 466.466L327.143 465.402L325.477 466.929C325.076 467.36 324.675 467.761 324.274 468.131C323.904 468.471 323.673 468.718 323.58 468.872C323.426 469.149 323.117 469.396 322.655 469.612C322.223 469.828 321.652 470.075 320.943 470.352ZM322.192 465.911C322.716 465.602 323.164 465.232 323.534 464.8C323.935 464.368 324.32 463.89 324.69 463.366C325.061 462.811 325.462 462.225 325.893 461.608C326.418 460.898 326.788 460.328 327.004 459.896C327.251 459.464 327.436 459.002 327.559 458.508C327.436 458.169 327.266 457.814 327.05 457.444C326.834 457.043 326.618 456.827 326.402 456.796C325.97 456.796 325.446 457.058 324.829 457.583C324.243 458.107 323.595 458.863 322.886 459.85C322.763 460.004 322.608 460.251 322.423 460.59C322.238 460.929 322.053 461.253 321.868 461.562C321.714 461.839 321.606 462.024 321.544 462.117C321.452 462.24 321.313 462.533 321.128 462.996C320.974 463.428 320.835 463.875 320.712 464.338C320.588 464.769 320.526 465.078 320.526 465.263C320.526 465.448 320.542 465.649 320.573 465.864C320.634 466.08 320.789 466.219 321.035 466.281C321.282 466.343 321.668 466.219 322.192 465.911Z" fill="white"/>
<g clip-path="url(#clip1_3_157)">
<rect x="24" y="38" width="360" height="381" fill="url(#paint0_linear_3_157)"/>
<path d="M17 38L105 149L216 435H17V38Z" fill="url(#paint1_linear_3_157)" fill-opacity="0.1"/>
</g>
<rect x="25" y="39" width="358" height="379" stroke="#F5F5F5" stroke-width="2"/>
</g>
<rect x="5" y="7" width="398" height="489" rx="11" stroke="black" stroke-opacity="0.1" stroke-width="2"/>
</g>
<defs>
<filter id="filter0_d_3_157" x="0" y="0" width="420" height="511" filterUnits="userSpaceOnUse" color-interpolation-filters="sRGB">
<feFlood flood-opacity="0" result="BackgroundImageFix"/>
<feColorMatrix in="SourceAlpha" type="matrix" values="0 0 0 0 0 0 0 0 0 0 0 0 0 0 0 0 0 0 127 0" result="hardAlpha"/>
<feOffset dx="6" dy="4"/>
<feGaussianBlur stdDeviation="5"/>
<feComposite in2="hardAlpha" operator="out"/>
<feColorMatrix type="matrix" values="0 0 0 0 0 0 0 0 0 0 0 0 0 0 0 0 0 0 0.1 0"/>
<feBlend mode="normal" in2="BackgroundImageFix" result="effect1_dropShadow_3_157"/>
<feBlend mode="normal" in="SourceGraphic" in2="effect1_dropShadow_3_157" result="shape"/>
</filter>
<linearGradient id="paint0_linear_3_157" x1="29" y1="38" x2="443.348" y2="320.068" gradientUnits="userSpaceOnUse">
<stop/>
<stop offset="0.979167" stop-color="#343434"/>
</linearGradient>
<linearGradient id="paint1_linear_3_157" x1="116.5" y1="38" x2="116.5" y2="435" gradientUnits="userSpaceOnUse">
<stop stop-color="#384732" stop-opacity="0.2"/>
<stop offset="1" stop-color="#353F30"/>
</linearGradient>
<clipPath id="clip0_3_157">
<rect x="4" y="6" width="400" height="491" rx="12" fill="white"/>
</clipPath>
<clipPath id="clip1_3_157">
<rect x="24" y="38" width="360" height="381" fill="white"/>
</clipPath>
</defs>
</svg>
