<svg width="410" height="502" viewBox="0 0 410 502" fill="none" xmlns="http://www.w3.org/2000/svg">
<g filter="url(#filter0_d_3_235)">
<g clip-path="url(#clip0_3_235)">
<g clip-path="url(#clip1_3_235)">
<path d="M155.069 398.742C158.093 400.15 161.57 401.91 160.512 411.717C157.337 420.317 151.289 427.66 136.017 427.107C123.77 424.14 110.464 420.669 111.523 396.328C112.581 383.755 125.736 366.303 148.113 366.152C180.47 366.605 196.347 395.121 194.986 417.149C193.323 448.531 168.173 464.826 133.598 467.844C115.051 467.844 93.5299 457.735 83.7018 442.496C71.4545 426.654 66.7169 394.014 77.049 372.489C87.9858 349.455 108.621 334.958 132.993 334.468C155.623 334.016 170.491 342.515 178.958 347.745L198.917 328.433" stroke="white" stroke-width="12" stroke-linecap="round" stroke-linejoin="round"/>
<path d="M81.2826 364.945C69.3109 383.563 61.2991 407.805 53.1592 422.58C47.3128 435.254 39.3495 442.496 31.0839 452.152C63.9062 471.145 114.488 472.677 147.357 465.882" stroke="white" stroke-width="12" stroke-linecap="round" stroke-linejoin="round"/>
</g>
<path d="M82.9217 142.649C77.8989 143.995 73.2817 144.073 69.07 142.882C64.9564 141.748 61.5375 139.807 58.8132 137.058C56.0683 134.232 54.23 131.081 53.2982 127.604C52.5943 124.976 52.516 122.057 53.0636 118.846C53.6112 115.635 54.9446 112.42 57.0639 109.202C59.2604 105.963 62.3926 102.97 66.4604 100.224C70.6054 97.4569 75.8849 95.2141 82.2986 93.4955C83.6123 93.1435 84.9363 92.8302 86.2706 92.5554C85.4742 90.2013 84.6985 87.9245 83.9435 85.725C77.2055 87.7789 70.9387 89.5823 65.1432 91.1352C61.2795 92.1705 57.7531 93.074 54.5642 93.8456C51.4318 94.5193 48.8686 94.999 46.8747 95.2849L42.3424 80.2247C46.1137 79.4627 50.9744 78.2845 56.9245 76.6902C63.57 74.9095 70.6378 72.8501 78.1279 70.5118C76.7739 67.3133 75.353 64.1741 73.8652 61.0942C67.112 63.4006 60.6424 65.8381 54.4564 68.4067C48.2497 70.898 42.9731 73.3057 38.6266 75.6299L31.4117 60.2947C36.2426 57.9236 41.6455 55.5234 47.6204 53.0943C53.6725 50.6444 59.882 48.318 66.2488 46.1151C64.7872 43.4423 63.1786 40.6846 61.4231 37.8421L79.0849 30.5008C80.5878 33.3281 82.2151 36.6191 83.9665 40.3737C88.5615 38.9769 92.9841 37.709 97.2342 36.5702C107.048 33.9406 114.967 32.2744 120.99 31.5715L123.707 47.7391C120.899 48.0774 117.619 48.6663 113.869 49.5056C110.118 50.3449 106.118 51.334 101.868 52.4728C98.2361 53.4459 94.509 54.5274 90.6867 55.7172C91.922 58.782 93.178 61.9239 94.4547 65.1432C99.8583 63.364 104.922 61.5517 109.645 59.7064C114.446 57.8403 118.607 56.0626 122.13 54.3733L128.387 69.841C124.843 71.4531 120.622 73.1638 115.724 74.9733C110.825 76.7828 105.684 78.6158 100.301 80.4723C101.827 84.6188 103.101 88.2942 104.125 91.4983C111.995 92.1227 119.238 94.1161 125.854 97.4784C132.526 100.743 138.779 104.451 144.612 108.602L133.158 123.349C128.691 119.66 124.41 116.666 120.316 114.367C116.222 112.068 112.177 110.419 108.182 109.419C108.721 116.066 108.008 121.599 106.045 126.018C104.138 130.338 101.179 133.823 97.1682 136.471C93.2343 139.099 88.4855 141.158 82.9217 142.649ZM70.5152 123.239C70.8465 124.475 71.9505 125.504 73.8273 126.327C75.6834 127.072 77.8091 127.123 80.2046 126.481C84.6865 125.281 87.6497 123.203 89.0943 120.248C90.5388 117.294 90.9904 113.57 90.4491 109.077C89.0375 109.372 87.5589 109.727 86.0134 110.141C80.527 111.611 76.4274 113.621 73.7146 116.17C70.9812 118.641 69.9147 120.998 70.5152 123.239Z" fill="white"/>
<path d="M226.893 251.079L205.854 247.528C216.109 226.499 216.92 206.511 208.29 187.566C201.412 192.713 194.878 197.881 188.687 203.07C182.564 208.217 177.352 212.935 173.053 217.226L160.55 203.106C164.655 198.654 170.053 193.63 176.744 188.034C183.393 182.37 190.529 176.731 198.153 171.118C193.558 165.123 188.059 159.267 181.657 153.551L198.169 141.252C204.274 147.248 209.654 153.367 214.309 159.608C218.43 156.844 222.425 154.254 226.292 151.838C230.43 149.252 234.361 146.937 238.084 144.894C241.807 142.85 245.131 141.15 248.057 139.794L257.468 157.119C253.982 158.637 250.243 160.502 246.248 162.715C242.322 164.885 238.256 167.285 234.049 169.913C230.996 171.821 227.918 173.839 224.814 175.967C238.142 201.222 238.835 226.259 226.893 251.079Z" fill="white"/>
<path d="M286.119 75.4159L287.437 59.0657C290.646 58.904 294.509 58.9296 299.025 59.1427C303.64 59.301 308.656 59.6574 314.073 60.212C319.49 60.7666 325.039 61.4422 330.719 62.2388C330.151 58.9966 329.681 55.6995 329.311 52.3475C322.004 51.4175 315.049 50.7131 308.445 50.2342C301.841 49.7554 296.303 49.6238 291.83 49.8393L291.746 34.4603C296.065 34.2007 301.449 34.2883 307.9 34.723C314.449 35.1028 321.349 35.7083 328.601 36.5394C328.66 31.9791 328.972 27.408 329.537 22.8262L347.616 26.3873C346.909 30.013 346.581 34.2049 346.631 38.9631C353.257 39.9474 359.481 41.0248 365.304 42.1951C371.204 43.3876 376.153 44.5571 380.152 45.7038C381.151 45.9904 382.025 46.2825 382.772 46.5799C383.618 46.8224 384.376 47.0814 385.046 47.3567L381.043 62.1879L378.043 61.3279C374.352 60.2694 369.914 59.2048 364.728 58.1339C359.542 57.0631 354.005 56.0578 348.116 55.1181C348.695 58.6131 349.411 62.0643 350.265 65.4717C354.605 66.3 358.769 67.1611 362.757 68.055C366.822 68.9709 370.546 69.914 373.93 70.8843C377.16 71.8104 380.011 72.7527 382.482 73.7111L378.824 89.515C378 89.1956 377.05 88.8815 375.974 88.5728C374.919 88.1872 373.777 87.8179 372.546 87.4651C368.163 86.2082 362.867 84.9395 356.66 83.6588C358.053 86.6381 359.566 89.4857 361.201 92.2015C362.858 94.8404 364.658 97.2707 366.601 99.4923L350.834 108.329C347.948 104.755 345.16 100.543 342.473 95.6946C339.862 90.868 337.532 85.4977 335.483 79.5838C329.264 78.6328 323.062 77.7698 316.876 76.9946C310.766 76.2416 305.047 75.7251 299.718 75.4453C294.389 75.1655 289.856 75.1557 286.119 75.4159ZM330.519 133.463C320.907 130.706 312.762 127.331 306.084 123.335C299.484 119.362 294.038 114.846 289.746 109.787C285.531 104.75 282.168 99.2085 279.657 93.1622L295.589 83.749C297.287 89.1461 300.151 93.962 304.18 98.1965C308.209 102.431 312.842 106.007 318.081 108.924C323.397 111.863 328.708 114.093 334.014 115.615C336.475 116.32 338.815 116.867 341.035 117.253L330.519 133.463Z" fill="white"/>
<path d="M157.635 93.1264C159.642 89.3373 162.112 85.1933 165.043 80.6943C167.974 76.1953 171.105 71.6949 174.436 67.1933C178.29 61.9844 182.392 56.7098 186.742 51.3696C191.091 46.0294 195.434 40.8332 199.769 35.7811C204.217 30.7123 208.514 25.9805 212.662 21.5856C216.81 17.1907 220.553 13.3425 223.892 10.0409L239.077 23.8151C235.99 26.5071 232.428 29.8422 228.389 33.8203C224.415 37.8461 220.276 42.2969 215.971 47.1728C220.474 53.1918 224.668 59.6289 228.552 66.484C232.484 73.2747 235.913 80.1407 238.837 87.082C241.81 93.9589 244.108 100.536 245.733 106.814L226.626 113.873C225.421 108.105 223.582 102.117 221.11 95.9086C218.75 89.6837 216.039 83.5971 212.976 77.6488C209.978 71.748 206.943 66.3675 203.872 61.5072C201.316 64.6918 198.849 67.8918 196.469 71.1072C192.234 76.8306 188.255 82.5445 184.532 88.2486C180.856 93.8885 177.54 99.446 174.583 104.921L157.635 93.1264Z" fill="white"/>
<path d="M325.16 278.2L309.08 264.16C315.72 261.92 321.88 259.28 327.56 256.24C333.24 253.12 338.2 249.8 342.44 246.28C346.68 242.68 349.96 239.04 352.28 235.36C354.68 231.68 355.88 228.16 355.88 224.8C355.88 221.12 354.44 218.44 351.56 216.76C348.76 215.08 344.56 214.24 338.96 214.24C334.88 214.24 330.36 214.72 325.4 215.68C320.52 216.56 315.48 217.84 310.28 219.52C305.16 221.2 300.12 223.2 295.16 225.52C290.28 227.84 285.8 230.4 281.72 233.2L272 215.56C276.48 212.52 281.64 209.72 287.48 207.16C293.32 204.6 299.48 202.44 305.96 200.68C312.52 198.84 319.04 197.56 325.52 196.84C319.68 195 314.08 192.92 308.72 190.6C303.36 188.28 299.16 186.12 296.12 184.12L305.12 166.24C309.6 168.72 314.32 171.12 319.28 173.44C324.32 175.68 329.44 177.56 334.64 179.08C339.84 180.6 344.92 181.52 349.88 181.84L347 196.84C352.36 197.56 357.12 199.04 361.28 201.28C365.44 203.44 368.72 206.44 371.12 210.28C373.52 214.12 374.72 218.96 374.72 224.8C374.72 231.12 373.24 236.96 370.28 242.32C367.32 247.6 363.4 252.44 358.52 256.84C353.72 261.16 348.4 265.12 342.56 268.72C336.72 272.24 330.92 275.4 325.16 278.2Z" fill="white"/>
<path d="M57.6211 276.461C58.6454 276.482 60.1597 276.681 62.164 277.059C64.217 277.5 66.2869 278.03 68.3738 278.647C70.5094 279.327 72.189 280.005 73.4125 280.68L70.5781 289.207C68.745 288.395 66.4729 287.668 63.7617 287.026C61.0505 286.384 58.534 285.995 56.2124 285.861L57.6211 276.461ZM68.3969 265.47C69.3917 265.715 70.9495 266.234 73.0703 267.026C75.1277 267.868 77.202 268.797 79.2933 269.814C81.3847 270.831 82.9712 271.782 84.053 272.666L79.4343 280.445C77.8064 279.375 75.7299 278.246 73.2046 277.058C70.6159 275.918 68.1829 275.113 65.9056 274.642L68.3969 265.47ZM96.9308 186.551C97.71 187.567 98.574 189.021 99.5229 190.915C100.472 192.809 101.208 195.017 101.732 197.539C102.304 200.125 102.367 202.9 101.919 205.865C101.521 208.894 100.346 211.963 98.3965 215.073C96.4318 218.295 93.4185 221.464 89.3565 224.581C87.5159 225.993 85.5853 227.222 83.5647 228.269C81.5293 229.427 79.4357 230.378 77.2837 231.122C77.5759 231.503 77.8681 231.884 78.1603 232.264C79.7188 234.295 81.3163 236.246 82.953 238.116C88.4216 233.416 93.8002 228.532 99.0888 223.466C104.377 218.399 109.29 213.369 113.828 208.375C118.302 203.429 122.043 198.844 125.053 194.618L138.781 205.412C135.122 210.237 130.96 215.195 126.296 220.286C121.568 225.427 116.591 230.506 111.366 235.523C106.078 240.59 100.794 245.4 95.5159 249.955C97.6308 251.659 99.5826 253.086 101.371 254.234C103.097 255.432 104.571 256.367 105.794 257.042L91.5207 268.6C90.1703 268.022 88.6398 267.079 86.9293 265.77C85.2041 264.573 83.3962 263.137 81.5056 261.461C80.8075 261.997 80.1093 262.533 79.4112 263.068L76.9359 264.968C72.8846 263.236 69.1669 262.005 65.7826 261.274L62.4387 273.672C59.8249 273.156 57.4376 272.871 55.2769 272.814L49.092 262.586C54.7878 259.627 61.6342 255.079 69.6312 248.943C68.1554 247.151 66.7357 245.367 65.3721 243.59C62.4014 239.718 59.8284 235.642 57.6532 231.362C54.5863 230.388 51.5445 228.789 48.5279 226.566C45.5599 224.406 42.7124 221.55 39.9851 217.995C36.2838 213.172 33.7707 207.991 32.4457 202.453C31.1208 196.916 30.8762 191.406 31.7119 185.924C32.5477 180.443 34.3634 175.319 37.1592 170.552L56.5795 168.658C52.9395 173.77 50.5607 178.621 49.4431 183.209C48.3742 187.861 48.1083 192.048 48.6452 195.771C49.1822 199.493 50.0321 202.572 51.195 205.007C51.424 201.101 52.3991 197.378 54.1203 193.838C55.8415 190.299 58.5109 187.142 62.1286 184.366C66.0637 181.346 70.2266 179.412 74.6176 178.564C78.9937 177.828 83.1492 178.118 87.0839 179.435C91.0186 180.752 94.3009 183.124 96.9308 186.551ZM83.4917 197.62C81.8358 195.462 80.0419 194.569 78.1099 194.943C76.1631 195.428 74.4916 196.207 73.0953 197.278C69.9853 199.664 68.1919 202.452 67.7149 205.642C67.2867 208.895 67.6023 212.131 68.6618 215.352C71.0129 215.262 73.2158 214.782 75.2703 213.911C77.2614 213.089 78.8916 212.191 80.161 211.217C82.5093 209.415 84.029 207.19 84.7199 204.543C85.4595 201.958 85.0501 199.651 83.4917 197.62Z" fill="white"/>
<path d="M369.381 329.154C368.655 334.514 367.689 340.139 366.485 346.03C365.28 351.922 363.72 357.566 361.805 362.964C359.861 368.287 357.437 372.939 354.534 376.92C351.706 380.871 348.282 383.639 344.262 385.222C340.466 386.717 337.011 387.004 333.896 386.081C330.781 385.158 327.938 383.398 325.367 380.799C322.766 378.127 320.391 374.935 318.242 371.225C316.063 367.44 314.063 363.455 312.243 359.271C310.394 355.013 308.663 350.836 307.05 346.743C304.001 339.002 301.154 331.009 298.508 322.765C295.862 314.521 293.519 306.717 291.478 299.352L310.543 292.745C311.24 295.824 312.362 299.982 313.909 305.22C315.456 310.457 317.283 316.186 319.39 322.407C321.467 328.553 323.678 334.604 326.024 340.558L327.827 345.136C329.029 348.188 330.269 351.225 331.545 354.247C332.867 357.166 334.184 359.528 335.497 361.332C336.78 363.062 337.98 363.707 339.096 363.268C340.957 362.535 343.126 358.327 345.603 350.645C348.08 342.962 349.898 331.971 351.058 317.671L369.381 329.154ZM296.5 403.778L275.05 402.039C276.435 395.732 276.938 389.042 276.559 381.969C276.255 374.866 275.275 367.686 273.619 360.427C271.935 353.094 269.788 346.116 267.178 339.491C266.357 337.407 265.476 335.39 264.536 333.438C263.67 331.458 262.781 329.53 261.87 327.653L282.018 322.812C282.9 324.614 283.774 326.505 284.64 328.486C285.551 330.362 286.417 332.343 287.238 334.427C290.082 341.647 292.456 349.31 294.359 357.417C296.263 365.523 297.453 373.566 297.931 381.546C298.409 389.527 297.932 396.937 296.5 403.778Z" fill="white"/>
</g>
</g>
<defs>
<filter id="filter0_d_3_235" x="0" y="-3" width="420" height="511" filterUnits="userSpaceOnUse" color-interpolation-filters="sRGB">
<feFlood flood-opacity="0" result="BackgroundImageFix"/>
<feColorMatrix in="SourceAlpha" type="matrix" values="0 0 0 0 0 0 0 0 0 0 0 0 0 0 0 0 0 0 127 0" result="hardAlpha"/>
<feOffset dx="6" dy="4"/>
<feGaussianBlur stdDeviation="5"/>
<feComposite in2="hardAlpha" operator="out"/>
<feColorMatrix type="matrix" values="0 0 0 0 0 0 0 0 0 0 0 0 0 0 0 0 0 0 0.1 0"/>
<feBlend mode="normal" in2="BackgroundImageFix" result="effect1_dropShadow_3_235"/>
<feBlend mode="normal" in="SourceGraphic" in2="effect1_dropShadow_3_235" result="shape"/>
</filter>
<clipPath id="clip0_3_235">
<rect x="4" y="3" width="400" height="491" rx="12" fill="white"/>
</clipPath>
<clipPath id="clip1_3_235">
<rect width="178" height="178" fill="white" transform="translate(26 310)"/>
</clipPath>
</defs>
</svg>
