<svg width="420" height="511" viewBox="0 0 420 511" fill="none" xmlns="http://www.w3.org/2000/svg">
<g filter="url(#filter0_d_3_142)">
<g clip-path="url(#clip0_3_142)">
<rect x="4" y="6" width="400" height="491" rx="12" fill="#9D3033"/>
<path d="M-10.6055 -93.7798C107.4 -160.737 363.545 -41.7032 363.545 63.2968C363.545 467.179 493.69 520.057 375.685 587.015C257.68 653.972 75.544 555.851 -31.1272 367.855C-137.798 179.858 -128.611 -26.8223 -10.6055 -93.7798Z" fill="#F6F3EF"/>
<path d="M89.0775 474.007C88.5223 473.853 88.0751 473.714 87.7358 473.591C87.3965 473.498 87.2268 473.452 87.2268 473.452C87.2885 473.298 87.2577 473.159 87.1343 473.036C87.0418 472.912 86.8259 472.835 86.4866 472.804C86.0239 472.496 85.5458 472.064 85.0523 471.509C84.5588 470.954 84.127 470.383 83.7569 469.797C83.3867 469.211 83.14 468.779 83.0166 468.502C82.8007 468.039 82.8161 467.761 83.0629 467.669C83.3096 467.545 83.6026 467.407 83.9419 467.252C84.2812 467.006 84.6359 466.821 85.0061 466.697C85.407 466.574 85.7309 466.774 85.9777 467.299C86.3786 468.008 86.9955 468.61 87.8283 469.103C88.692 469.597 89.6635 469.89 90.7431 469.982C91.8535 470.075 92.9639 469.89 94.0743 469.427C94.8146 469.088 95.2155 468.625 95.2772 468.039C95.3389 467.422 95.1076 466.713 94.5832 465.911C94.4907 465.664 94.3519 465.463 94.1668 465.309C94.0126 465.155 93.7658 464.955 93.4266 464.708C93.1181 464.461 92.6709 464.06 92.0848 463.505C91.6222 463.289 91.1903 463.088 90.7894 462.903C90.4192 462.718 90.0183 462.518 89.5864 462.302C89.0929 462.055 88.5377 461.716 87.9208 461.284C87.304 460.821 86.7333 460.328 86.209 459.804C85.6846 459.248 85.2837 458.724 85.0061 458.23C84.5125 457.768 84.2041 457.135 84.0807 456.334C83.9573 455.501 83.9728 454.622 84.127 453.696C84.3121 452.771 84.6051 451.938 85.0061 451.198C85.1911 450.766 85.5304 450.211 86.0239 449.532C86.5174 448.823 87.0726 448.098 87.6895 447.358C88.3064 446.618 88.8924 445.954 89.4476 445.368C90.0337 444.751 90.4963 444.335 90.8356 444.119C91.0824 443.872 91.3446 443.626 91.6222 443.379C91.8998 443.101 92.0386 442.962 92.0386 442.962C92.0694 442.808 92.1157 442.731 92.1774 442.731C92.2699 442.731 92.3162 442.731 92.3162 442.731C92.4704 442.639 92.8097 442.484 93.334 442.268C93.8584 442.053 94.429 441.652 95.0459 441.066C97.1125 440.079 98.8706 439.415 100.32 439.076C101.77 438.706 102.911 438.521 103.744 438.521C104.515 438.552 105.271 438.768 106.011 439.169C106.751 439.539 107.384 440.017 107.908 440.603C108.463 441.189 108.787 441.852 108.88 442.592C109.095 443.333 108.988 444.227 108.556 445.276C108.155 446.294 107.584 447.265 106.844 448.191C106.134 449.085 105.394 449.748 104.623 450.18C103.759 450.55 103.019 450.596 102.402 450.319C101.816 450.041 101.539 449.609 101.569 449.023C101.569 448.777 101.647 448.484 101.801 448.144C101.986 447.805 102.464 447.204 103.235 446.34C104.222 444.89 104.746 443.857 104.808 443.24C104.87 442.623 104.592 442.268 103.975 442.176C103.79 442.114 103.436 442.13 102.911 442.222C102.387 442.315 101.816 442.438 101.199 442.592C100.613 442.716 100.089 442.855 99.6263 443.009C99.1945 443.163 98.9785 443.271 98.9785 443.333C98.9785 443.333 98.9785 443.379 98.9785 443.471C98.9785 443.564 98.9169 443.595 98.7935 443.564C98.7318 443.564 98.5159 443.672 98.1457 443.888C97.8065 444.073 97.3901 444.32 96.8965 444.628C96.403 444.937 95.9095 445.26 95.416 445.6C94.9534 445.908 94.5524 446.186 94.2131 446.432C93.8738 446.679 93.6887 446.833 93.6579 446.895C93.5962 447.234 93.2415 447.543 92.5938 447.82C91.9769 448.191 91.4371 448.715 90.9744 449.394C90.5118 450.072 89.972 450.936 89.3551 451.984C88.8308 452.694 88.4606 453.465 88.2447 454.298C88.0288 455.1 88.0288 455.747 88.2447 456.241C88.3989 456.734 88.8153 457.228 89.4939 457.722C90.2033 458.184 91.1595 458.77 92.3624 459.48C93.4111 460.066 94.3982 460.683 95.3235 461.33C96.2488 461.978 97.0353 462.61 97.6831 463.227C98.3308 463.813 98.7472 464.307 98.9323 464.708C99.3024 465.232 99.5183 465.834 99.58 466.512C99.6725 467.191 99.6725 467.854 99.58 468.502C99.5183 469.118 99.4258 469.627 99.3024 470.028C99.0865 470.522 98.7472 471.046 98.2845 471.601C97.8527 472.157 97.4517 472.419 97.0816 472.388C96.7423 472.481 96.4801 472.588 96.2951 472.712C96.1409 472.835 95.9558 472.943 95.7399 473.036C95.524 473.159 95.015 473.298 94.2131 473.452C93.4111 473.637 92.5321 473.776 91.5759 473.869C90.6197 473.992 89.7869 474.038 89.0775 474.007ZM106.351 470.028C106.228 469.782 105.95 469.535 105.518 469.288C105.117 469.041 104.917 468.856 104.917 468.733C104.917 468.61 104.84 468.424 104.686 468.178C104.562 467.9 104.439 467.7 104.315 467.576C104.161 467.391 104.208 466.944 104.454 466.235C104.701 465.494 105.071 464.6 105.565 463.551C106.058 462.502 106.598 461.438 107.184 460.359C107.431 460.112 107.677 459.788 107.924 459.387C108.171 458.986 108.356 458.724 108.479 458.601C108.479 458.477 108.526 458.369 108.618 458.277C108.711 458.153 108.819 458.092 108.942 458.092L109.312 457.351C109.374 457.228 109.559 456.981 109.867 456.611C110.207 456.241 110.608 455.84 111.07 455.408C111.533 454.946 111.996 454.514 112.458 454.113C112.952 453.712 113.353 453.419 113.661 453.234C114.309 452.802 114.972 452.601 115.651 452.632C116.36 452.663 116.962 452.879 117.455 453.28C117.548 453.372 117.748 453.558 118.057 453.835C118.396 454.113 118.766 454.421 119.167 454.76C119.599 455.1 119.969 455.408 120.277 455.686L121.989 457.213L121.203 459.526C120.802 460.76 120.694 461.839 120.879 462.765C121.064 463.69 121.357 464.492 121.758 465.17C121.912 465.51 122.113 465.772 122.359 465.957C122.637 466.142 122.992 466.265 123.424 466.327C123.67 466.358 123.902 466.45 124.118 466.605C124.333 466.759 124.441 467.006 124.441 467.345C124.441 468.085 124.303 468.625 124.025 468.964C123.778 469.273 123.501 469.458 123.192 469.519C122.174 469.643 121.203 469.535 120.277 469.196C119.352 468.856 118.519 467.977 117.779 466.558C117.656 466.373 117.486 466.034 117.27 465.541C117.085 465.016 116.977 464.677 116.946 464.523C116.823 464.677 116.653 464.877 116.437 465.124C116.252 465.34 116.067 465.541 115.882 465.726C113.692 467.946 111.811 469.396 110.238 470.075C108.695 470.722 107.4 470.707 106.351 470.028ZM108.896 466.188C109.112 466.219 109.451 466.111 109.914 465.864C110.376 465.587 110.993 465.14 111.764 464.523C112.813 463.628 113.677 462.888 114.355 462.302C115.034 461.716 115.697 460.96 116.345 460.035L117.363 458.369C117.054 457.66 116.777 457.197 116.53 456.981C116.283 456.765 116.036 456.657 115.79 456.657C115.389 456.657 114.91 456.92 114.355 457.444C113.8 457.937 113.168 458.678 112.458 459.665C111.78 460.621 111.009 461.824 110.145 463.273C109.744 463.952 109.436 464.615 109.22 465.263C109.004 465.88 108.896 466.188 108.896 466.188ZM128.572 471.139C128.326 471.046 128.002 470.8 127.601 470.399C127.2 469.967 126.845 469.504 126.537 469.011C126.228 468.486 126.074 468.054 126.074 467.715C126.228 467.376 126.429 466.774 126.676 465.911C126.953 465.047 127.262 464.075 127.601 462.996C127.848 462.657 128.033 462.271 128.156 461.839C128.31 461.377 128.449 460.96 128.572 460.59C128.819 460.035 129.097 459.403 129.405 458.693C129.714 457.984 130.007 457.259 130.284 456.519C130.593 455.778 130.87 455.131 131.117 454.575C131.549 453.65 131.904 452.848 132.181 452.17C132.49 451.46 132.783 450.766 133.06 450.088C133.369 449.409 133.693 448.653 134.032 447.82C134.495 446.864 134.911 445.924 135.281 444.998C135.682 444.042 136.021 443.194 136.299 442.454C136.607 441.713 136.792 441.189 136.854 440.881C136.823 440.634 136.854 440.464 136.947 440.372C137.039 440.248 137.163 440.171 137.317 440.14C137.471 440.048 137.718 439.986 138.057 439.955C138.396 439.924 138.628 439.909 138.751 439.909C139.121 439.971 139.491 440.279 139.862 440.834C140.262 441.359 140.463 441.806 140.463 442.176C140.463 442.669 140.216 443.595 139.723 444.952C139.26 446.278 138.581 447.851 137.687 449.671C136.607 451.984 135.79 453.773 135.235 455.038C134.71 456.303 134.356 457.197 134.171 457.722C133.986 458.246 133.909 458.585 133.939 458.739C133.939 458.739 134.063 458.693 134.31 458.601C134.556 458.508 134.926 458.292 135.42 457.953C135.759 457.737 136.145 457.459 136.577 457.12C137.008 456.781 137.425 456.472 137.826 456.195C138.258 455.917 138.597 455.747 138.844 455.686C138.998 455.562 139.214 455.408 139.491 455.223C139.769 455.038 140.031 454.868 140.278 454.714C140.864 454.282 141.327 454.144 141.666 454.298C142.005 454.452 142.314 454.714 142.591 455.084C142.931 455.485 143.054 455.917 142.961 456.38C142.9 456.812 142.422 457.382 141.527 458.092C140.849 458.585 140.124 459.063 139.353 459.526C138.581 459.958 137.872 460.343 137.224 460.683C136.607 461.022 136.16 461.299 135.883 461.515C135.883 461.515 136.021 461.716 136.299 462.117C136.577 462.518 136.839 462.903 137.086 463.273C137.332 463.767 137.641 464.399 138.011 465.17C138.381 465.911 138.659 466.435 138.844 466.743C139.183 467.237 139.522 467.561 139.862 467.715C140.232 467.869 140.771 467.823 141.481 467.576C141.943 467.453 142.329 467.468 142.637 467.623C142.977 467.746 143.254 467.962 143.47 468.27C143.594 468.517 143.655 468.764 143.655 469.011C143.655 469.257 143.455 469.55 143.054 469.89C142.19 470.476 141.342 470.969 140.509 471.37C139.707 471.802 138.936 471.771 138.196 471.278C137.548 470.784 136.931 470.229 136.345 469.612C135.79 468.964 135.158 468.178 134.448 467.252C134.448 467.129 134.356 466.867 134.171 466.466C133.986 466.065 133.862 465.834 133.801 465.772C133.677 465.525 133.538 465.309 133.384 465.124C133.261 464.908 133.199 464.8 133.199 464.8C133.107 464.461 132.983 464.183 132.829 463.967C132.706 463.752 132.536 463.628 132.32 463.597C132.197 463.69 132.058 463.844 131.904 464.06C131.749 464.276 131.595 464.538 131.441 464.847C131.256 465.309 131.071 465.772 130.886 466.235C130.701 466.666 130.547 467.144 130.423 467.669C130.3 468.162 130.223 468.764 130.192 469.473C130.223 469.812 130.084 470.183 129.775 470.584C129.467 470.954 129.066 471.139 128.572 471.139ZM157.213 471.278C156.997 471.401 156.704 471.355 156.333 471.139C155.994 470.923 155.655 470.599 155.316 470.167C155.1 469.797 154.93 469.427 154.807 469.057C154.714 468.656 154.668 468.07 154.668 467.299C154.699 466.682 154.699 466.265 154.668 466.049C154.668 465.803 154.529 465.787 154.251 466.003C154.005 466.188 153.496 466.651 152.725 467.391C151.954 468.162 151.213 468.825 150.504 469.381C149.825 469.905 149.27 470.152 148.838 470.121C148.622 470.121 148.329 469.982 147.959 469.705C147.589 469.427 147.234 469.088 146.895 468.687C146.556 468.255 146.309 467.854 146.155 467.484C145.97 466.743 145.954 465.787 146.109 464.615C146.294 463.443 146.587 462.225 146.988 460.96C147.389 459.665 147.836 458.462 148.329 457.351C148.854 456.21 149.363 455.3 149.856 454.622C150.381 453.912 150.828 453.573 151.198 453.604C151.722 453.665 152.169 453.928 152.54 454.39C152.941 454.822 153.249 455.3 153.465 455.825C153.588 456.04 153.635 456.226 153.604 456.38C153.604 456.534 153.48 456.719 153.234 456.935C152.956 457.305 152.617 457.845 152.216 458.554C151.846 459.233 151.46 459.973 151.059 460.775C150.689 461.577 150.35 462.348 150.041 463.088C149.764 463.798 149.563 464.384 149.44 464.847C149.316 465.309 149.316 465.541 149.44 465.541C149.872 465.541 150.273 465.433 150.643 465.217C151.013 464.97 151.475 464.584 152.031 464.06C152.678 463.412 153.249 462.765 153.743 462.117C154.236 461.438 154.745 460.667 155.269 459.804C155.67 459.187 156.087 458.508 156.519 457.768C156.981 457.028 157.274 456.503 157.398 456.195C157.829 455.393 158.153 454.791 158.369 454.39C158.585 453.989 158.847 453.743 159.156 453.65C159.31 453.65 159.526 453.65 159.803 453.65C160.081 453.65 160.22 453.65 160.22 453.65C160.405 453.681 160.621 453.82 160.868 454.066C161.114 454.19 161.361 454.359 161.608 454.575C161.885 454.791 162.024 454.976 162.024 455.131C161.901 455.439 161.7 455.902 161.423 456.519C161.176 457.105 160.991 457.536 160.868 457.814C160.282 459.14 159.711 460.451 159.156 461.747C158.631 463.011 158.246 464.307 157.999 465.633C157.937 466.065 157.922 466.574 157.953 467.16C158.014 467.715 158.107 468.116 158.23 468.363C158.323 468.548 158.431 468.764 158.554 469.011C158.708 469.226 158.878 469.412 159.063 469.566C159.341 469.751 159.325 469.982 159.017 470.26C158.739 470.537 158.385 470.784 157.953 471C157.552 471.185 157.305 471.278 157.213 471.278ZM168.183 470.028C168.091 470.059 167.89 470.044 167.582 469.982C167.304 469.92 167.011 469.843 166.703 469.751C166.425 469.658 166.255 469.581 166.194 469.519C166.07 469.396 165.901 469.18 165.685 468.872C165.469 468.532 165.345 468.085 165.315 467.53C165.315 466.975 165.577 466.312 166.101 465.541C166.255 465.232 166.44 464.769 166.656 464.153C166.872 463.536 167.088 462.888 167.304 462.209C167.551 461.5 167.767 460.868 167.952 460.312C168.168 459.757 168.322 459.372 168.414 459.156C168.476 458.631 168.445 458.261 168.322 458.045C168.229 457.799 167.967 457.66 167.535 457.629C167.227 457.629 166.98 457.521 166.795 457.305C166.641 457.089 166.564 456.704 166.564 456.148C166.625 455.717 166.733 455.346 166.888 455.038C167.073 454.699 167.319 454.421 167.628 454.205C167.936 454.051 168.322 453.943 168.785 453.881C169.278 453.82 169.756 453.804 170.219 453.835C170.682 453.866 171.005 453.974 171.19 454.159C171.406 454.282 171.576 454.56 171.699 454.992C171.854 455.393 171.977 455.809 172.07 456.241C172.162 456.673 172.224 456.997 172.255 457.213C172.563 456.966 172.902 456.627 173.272 456.195C173.673 455.732 174.074 455.3 174.475 454.899C174.969 454.56 175.555 454.221 176.233 453.881C176.912 453.511 177.406 453.326 177.714 453.326C178.053 453.326 178.47 453.496 178.963 453.835C179.457 454.144 179.765 454.421 179.889 454.668C180.197 455.192 180.413 455.747 180.536 456.334C180.691 456.889 180.598 457.382 180.259 457.814C179.95 458.215 179.518 458.616 178.963 459.017C178.408 459.387 177.714 459.495 176.881 459.341C176.696 459.279 176.496 459.048 176.28 458.647C176.095 458.246 175.987 457.953 175.956 457.768C175.956 457.675 175.817 457.768 175.539 458.045C175.293 458.292 174.984 458.601 174.614 458.971C174.275 459.341 173.951 459.68 173.643 459.989C173.118 460.636 172.563 461.515 171.977 462.626C171.391 463.736 170.697 465.078 169.895 466.651C169.525 467.422 169.216 468.162 168.97 468.872C168.723 469.55 168.461 469.936 168.183 470.028ZM185.272 470.167C184.902 470.26 184.485 470.152 184.023 469.843C183.56 469.535 183.143 469.149 182.773 468.687C182.403 468.224 182.172 467.808 182.079 467.437C181.956 466.79 181.987 466.003 182.172 465.078C182.388 464.122 182.742 463.119 183.236 462.071C183.73 460.991 184.346 459.942 185.087 458.924C185.827 457.876 186.66 456.935 187.585 456.102C188.51 455.269 189.513 454.622 190.592 454.159C191.055 453.912 191.379 453.758 191.564 453.696C191.749 453.604 191.934 453.604 192.119 453.696C192.304 453.758 192.628 453.912 193.091 454.159C193.523 454.282 193.954 454.437 194.386 454.622C194.849 454.776 195.25 455.084 195.589 455.547C195.836 456.01 196.021 456.472 196.144 456.935C196.268 457.398 196.376 457.922 196.468 458.508C196.715 459.279 196.808 459.788 196.746 460.035C196.684 460.251 196.592 460.42 196.468 460.544C196.221 460.852 196.16 461.006 196.283 461.006C196.283 461.006 196.268 461.068 196.237 461.191C196.237 461.284 196.175 461.438 196.052 461.654C195.836 462.333 195.666 462.98 195.543 463.597C195.45 464.183 195.466 464.708 195.589 465.17C195.836 465.849 196.16 466.25 196.561 466.373C196.993 466.497 197.548 466.219 198.226 465.541C198.566 465.294 198.951 465.14 199.383 465.078C199.815 464.985 200.031 465.062 200.031 465.309C200.031 465.309 200.077 465.355 200.17 465.448C200.262 465.51 200.37 465.541 200.493 465.541C200.648 465.541 200.709 465.695 200.678 466.003C200.648 466.281 200.586 466.605 200.493 466.975C200.401 467.345 200.277 467.653 200.123 467.9C199.661 468.363 199.429 468.671 199.429 468.825C199.429 468.825 199.368 468.887 199.244 469.011C199.152 469.103 198.982 469.257 198.735 469.473C198.18 469.812 197.471 469.982 196.607 469.982C195.774 469.982 195.126 469.812 194.664 469.473C194.201 469.134 193.738 468.718 193.276 468.224C192.844 467.73 192.566 467.268 192.443 466.836L192.212 466.373L190.87 467.252C190.531 467.592 190.284 467.854 190.13 468.039C189.975 468.193 189.837 468.332 189.713 468.455C189.621 468.579 189.513 468.687 189.389 468.779C189.297 468.872 189.189 468.918 189.066 468.918C188.942 468.918 188.834 468.918 188.742 468.918C188.649 468.918 188.603 468.918 188.603 468.918C188.603 469.041 188.387 469.211 187.955 469.427C187.523 469.612 187.045 469.782 186.521 469.936C185.997 470.09 185.58 470.167 185.272 470.167ZM186.243 466.281C186.428 466.281 186.706 466.173 187.076 465.957C187.477 465.71 187.909 465.417 188.372 465.078C188.834 464.739 189.251 464.399 189.621 464.06C190.022 463.721 190.315 463.443 190.5 463.227C190.623 463.104 190.762 462.903 190.916 462.626C191.101 462.348 191.302 462.101 191.518 461.885C192.227 461.084 192.674 460.451 192.859 459.989C193.044 459.495 192.967 458.971 192.628 458.416C192.505 458.076 192.35 457.891 192.165 457.86C191.98 457.829 191.595 457.937 191.009 458.184C190.639 458.4 190.238 458.755 189.806 459.248C189.374 459.742 188.927 460.297 188.464 460.914C188.032 461.531 187.631 462.163 187.261 462.811C186.891 463.459 186.583 464.045 186.336 464.569C186.12 465.093 186.012 465.51 186.012 465.818C186.012 465.942 186.043 466.049 186.105 466.142C186.197 466.235 186.243 466.281 186.243 466.281ZM218.358 475.21C218.358 475.21 218.204 475.149 217.896 475.025C217.587 474.933 217.248 474.84 216.878 474.748C216.539 474.655 216.276 474.609 216.091 474.609C215.598 474.485 215.243 474.208 215.027 473.776C214.811 473.375 214.765 472.928 214.888 472.434C215.012 472.311 215.104 472.049 215.166 471.648C215.228 471.247 215.259 470.923 215.259 470.676C215.382 470.429 215.459 470.26 215.49 470.167C215.521 470.044 215.598 469.735 215.721 469.242C215.814 468.718 215.968 467.993 216.184 467.067C216.431 466.111 216.693 465.093 216.97 464.014C217.279 462.934 217.572 461.901 217.849 460.914C218.127 459.927 218.374 459.094 218.59 458.416C218.837 457.737 219.006 457.351 219.099 457.259C219.099 457.259 219.099 457.213 219.099 457.12C219.099 456.997 219.099 456.873 219.099 456.75C219.099 456.75 219.114 456.611 219.145 456.334C219.207 456.025 219.361 455.686 219.608 455.316C219.731 454.976 219.839 454.606 219.931 454.205C220.024 453.804 220.07 453.542 220.07 453.419C220.194 453.265 220.363 452.894 220.579 452.308C220.826 451.691 221.057 451.09 221.273 450.504C221.458 450.01 221.659 449.486 221.875 448.931C222.121 448.376 222.322 447.898 222.476 447.497C222.661 447.096 222.754 446.895 222.754 446.895C222.754 446.772 222.754 446.71 222.754 446.71C222.754 446.679 222.754 446.664 222.754 446.664C222.877 446.54 223.17 445.924 223.633 444.813C224.126 443.672 224.789 442.207 225.622 440.418C225.746 440.171 225.931 439.786 226.177 439.261C226.424 438.706 226.548 438.367 226.548 438.243C227.01 437.781 227.458 437.626 227.889 437.781C228.352 437.904 228.753 438.166 229.092 438.567C229.462 438.968 229.725 439.338 229.879 439.678L230.341 440.418L228.63 443.749C228.136 444.613 227.704 445.399 227.334 446.109C226.995 446.818 226.825 447.234 226.825 447.358C226.825 447.358 226.748 447.543 226.594 447.913C226.47 448.283 226.316 448.761 226.131 449.347C225.946 449.902 225.761 450.458 225.576 451.013C225.237 451.969 224.913 452.771 224.604 453.419C224.296 454.036 224.142 454.406 224.142 454.529C224.142 454.467 224.45 454.421 225.067 454.39C225.715 454.359 226.517 454.344 227.473 454.344C228.429 454.344 229.401 454.344 230.388 454.344C231.406 454.313 232.315 454.298 233.117 454.298C233.919 454.267 234.475 454.221 234.783 454.159L237.189 453.928L238.484 449.81C238.731 448.946 239.055 447.898 239.456 446.664C239.857 445.43 240.212 444.381 240.52 443.518C241.014 442.099 241.538 441.112 242.093 440.557C242.648 439.971 243.111 439.678 243.481 439.678C243.574 439.678 243.743 439.77 243.99 439.955C244.268 440.109 244.545 440.294 244.823 440.51C245.1 440.726 245.27 440.927 245.332 441.112C245.702 441.451 245.872 441.837 245.841 442.268C245.841 442.7 245.594 443.271 245.1 443.98C244.607 444.813 244.191 445.723 243.851 446.71C243.543 447.666 243.265 448.453 243.018 449.07C243.018 449.44 242.972 449.748 242.88 449.995C242.787 450.211 242.679 450.381 242.556 450.504C242.494 450.566 242.371 450.797 242.186 451.198C242.001 451.599 241.831 452 241.677 452.401C241.523 452.802 241.445 453.049 241.445 453.141C241.445 453.357 241.399 453.619 241.307 453.928C241.214 454.236 241.106 454.452 240.983 454.575C240.921 454.76 240.782 455.223 240.566 455.963C240.35 456.704 240.104 457.583 239.826 458.601C239.548 459.588 239.255 460.559 238.947 461.515C238.639 462.441 238.361 463.212 238.114 463.829C238.114 464.045 238.037 464.322 237.883 464.661C237.729 464.97 237.652 465.248 237.652 465.494C237.528 465.864 237.374 466.327 237.189 466.882C237.004 467.437 236.911 467.792 236.911 467.946C236.757 468.656 236.587 469.473 236.402 470.399C236.248 471.324 236.109 472.141 235.986 472.851C235.893 473.56 235.847 473.961 235.847 474.054C235.045 474.146 234.444 474.038 234.043 473.73C233.642 473.421 233.272 473.205 232.932 473.082C232.346 472.743 231.992 472.311 231.868 471.787C231.776 471.293 231.899 470.692 232.238 469.982C232.393 469.735 232.578 469.134 232.794 468.178C233.04 467.191 233.287 466.219 233.534 465.263C233.719 464.8 233.919 464.214 234.135 463.505C234.351 462.795 234.552 462.101 234.737 461.423C234.953 460.713 235.138 460.112 235.292 459.618C235.446 459.125 235.554 458.847 235.616 458.786C235.616 458.662 235.616 458.554 235.616 458.462C235.616 458.369 235.616 458.323 235.616 458.323C235.554 458.261 235.246 458.215 234.691 458.184C234.135 458.122 233.426 458.107 232.562 458.138C231.729 458.138 230.82 458.169 229.833 458.23C228.846 458.261 227.905 458.338 227.01 458.462C226.671 458.462 226.177 458.462 225.53 458.462C224.913 458.462 224.481 458.462 224.234 458.462C223.895 458.462 223.602 458.462 223.355 458.462C223.139 458.462 223.031 458.462 223.031 458.462C222.97 458.554 222.846 458.863 222.661 459.387C222.507 459.911 222.306 460.544 222.06 461.284C221.844 462.024 221.613 462.78 221.366 463.551C221.15 464.322 220.949 465.032 220.764 465.679C220.61 466.296 220.502 466.743 220.44 467.021C220.317 467.576 220.147 468.27 219.931 469.103C219.746 469.936 219.531 470.784 219.284 471.648C219.068 472.542 218.867 473.313 218.682 473.961C218.528 474.609 218.42 475.025 218.358 475.21ZM244.972 470.028C244.848 469.782 244.571 469.535 244.139 469.288C243.738 469.041 243.538 468.856 243.538 468.733C243.538 468.61 243.46 468.424 243.306 468.178C243.183 467.9 243.059 467.7 242.936 467.576C242.782 467.391 242.828 466.944 243.075 466.235C243.322 465.494 243.692 464.6 244.185 463.551C244.679 462.502 245.219 461.438 245.805 460.359C246.051 460.112 246.298 459.788 246.545 459.387C246.792 458.986 246.977 458.724 247.1 458.601C247.1 458.477 247.146 458.369 247.239 458.277C247.331 458.153 247.439 458.092 247.563 458.092L247.933 457.351C247.995 457.228 248.18 456.981 248.488 456.611C248.827 456.241 249.228 455.84 249.691 455.408C250.154 454.946 250.616 454.514 251.079 454.113C251.572 453.712 251.973 453.419 252.282 453.234C252.93 452.802 253.593 452.601 254.271 452.632C254.981 452.663 255.582 452.879 256.076 453.28C256.168 453.372 256.369 453.558 256.677 453.835C257.017 454.113 257.387 454.421 257.788 454.76C258.219 455.1 258.59 455.408 258.898 455.686L260.61 457.213L259.823 459.526C259.422 460.76 259.314 461.839 259.499 462.765C259.685 463.69 259.978 464.492 260.379 465.17C260.533 465.51 260.733 465.772 260.98 465.957C261.258 466.142 261.612 466.265 262.044 466.327C262.291 466.358 262.522 466.45 262.738 466.605C262.954 466.759 263.062 467.006 263.062 467.345C263.062 468.085 262.923 468.625 262.646 468.964C262.399 469.273 262.121 469.458 261.813 469.519C260.795 469.643 259.823 469.535 258.898 469.196C257.973 468.856 257.14 467.977 256.4 466.558C256.276 466.373 256.107 466.034 255.891 465.541C255.706 465.016 255.598 464.677 255.567 464.523C255.443 464.677 255.274 464.877 255.058 465.124C254.873 465.34 254.688 465.541 254.503 465.726C252.313 467.946 250.431 469.396 248.858 470.075C247.316 470.722 246.02 470.707 244.972 470.028ZM247.516 466.188C247.732 466.219 248.072 466.111 248.534 465.864C248.997 465.587 249.614 465.14 250.385 464.523C251.434 463.628 252.297 462.888 252.976 462.302C253.654 461.716 254.318 460.96 254.965 460.035L255.983 458.369C255.675 457.66 255.397 457.197 255.15 456.981C254.904 456.765 254.657 456.657 254.41 456.657C254.009 456.657 253.531 456.92 252.976 457.444C252.421 457.937 251.788 458.678 251.079 459.665C250.4 460.621 249.629 461.824 248.766 463.273C248.365 463.952 248.056 464.615 247.84 465.263C247.624 465.88 247.516 466.188 247.516 466.188ZM267.286 470.306C267.07 470.306 266.777 470.152 266.407 469.843C266.067 469.535 265.867 469.257 265.805 469.011C265.713 468.764 265.713 468.409 265.805 467.946C265.928 467.453 266.098 466.882 266.314 466.235C266.561 465.217 266.73 464.476 266.823 464.014C266.915 463.551 267.008 463.15 267.101 462.811C267.193 462.472 267.316 461.978 267.471 461.33C267.656 460.929 267.795 460.544 267.887 460.174C268.01 459.773 268.134 459.372 268.257 458.971C268.411 458.57 268.581 458.169 268.766 457.768C268.982 456.966 269.244 456.21 269.553 455.501C269.892 454.76 270.216 454.144 270.524 453.65C270.586 453.558 270.725 453.388 270.941 453.141C271.157 452.894 271.326 452.771 271.45 452.771C271.696 452.524 272.036 452.447 272.467 452.54C272.899 452.601 273.269 452.756 273.578 453.002C273.948 453.403 274.148 453.881 274.179 454.437C274.241 454.961 274.025 455.701 273.532 456.657C273.161 457.614 272.807 458.369 272.467 458.924C272.159 459.449 271.851 460.066 271.542 460.775C271.881 460.282 272.298 459.773 272.791 459.248C273.285 458.724 273.67 458.308 273.948 457.999C274.349 457.567 274.719 457.228 275.058 456.981C275.429 456.704 275.922 456.364 276.539 455.963C277.063 455.593 277.588 455.254 278.112 454.946C278.667 454.637 279.33 454.545 280.101 454.668C280.41 454.637 280.734 454.791 281.073 455.131C281.443 455.47 281.721 455.917 281.906 456.472C282.122 456.997 282.122 457.567 281.906 458.184C281.196 458.03 280.564 458.061 280.009 458.277C279.454 458.462 278.976 458.693 278.575 458.971C278.205 459.248 277.911 459.464 277.696 459.618C277.387 459.804 277.032 460.05 276.631 460.359C276.23 460.636 275.799 460.96 275.336 461.33C274.873 461.67 274.38 462.055 273.855 462.487C273.115 463.104 272.56 463.644 272.19 464.106C271.82 464.569 271.527 465.062 271.311 465.587C271.126 466.049 270.894 466.605 270.617 467.252C270.339 467.9 270.077 468.486 269.83 469.011C269.584 469.504 269.383 469.812 269.229 469.936C269.075 470.244 268.751 470.414 268.257 470.445C267.795 470.476 267.471 470.429 267.286 470.306ZM295.201 471.278C294.985 471.401 294.692 471.355 294.322 471.139C293.982 470.923 293.643 470.599 293.304 470.167C293.088 469.797 292.918 469.427 292.795 469.057C292.702 468.656 292.656 468.07 292.656 467.299C292.687 466.682 292.687 466.265 292.656 466.049C292.656 465.803 292.517 465.787 292.24 466.003C291.993 466.188 291.484 466.651 290.713 467.391C289.942 468.162 289.201 468.825 288.492 469.381C287.813 469.905 287.258 470.152 286.826 470.121C286.61 470.121 286.317 469.982 285.947 469.705C285.577 469.427 285.222 469.088 284.883 468.687C284.544 468.255 284.297 467.854 284.143 467.484C283.958 466.743 283.942 465.787 284.097 464.615C284.282 463.443 284.575 462.225 284.976 460.96C285.377 459.665 285.824 458.462 286.317 457.351C286.842 456.21 287.351 455.3 287.844 454.622C288.369 453.912 288.816 453.573 289.186 453.604C289.71 453.665 290.158 453.928 290.528 454.39C290.929 454.822 291.237 455.3 291.453 455.825C291.576 456.04 291.623 456.226 291.592 456.38C291.592 456.534 291.468 456.719 291.222 456.935C290.944 457.305 290.605 457.845 290.204 458.554C289.834 459.233 289.448 459.973 289.047 460.775C288.677 461.577 288.338 462.348 288.029 463.088C287.752 463.798 287.551 464.384 287.428 464.847C287.304 465.309 287.304 465.541 287.428 465.541C287.86 465.541 288.261 465.433 288.631 465.217C289.001 464.97 289.464 464.584 290.019 464.06C290.666 463.412 291.237 462.765 291.731 462.117C292.224 461.438 292.733 460.667 293.257 459.804C293.658 459.187 294.075 458.508 294.507 457.768C294.969 457.028 295.262 456.503 295.386 456.195C295.817 455.393 296.141 454.791 296.357 454.39C296.573 453.989 296.835 453.743 297.144 453.65C297.298 453.65 297.514 453.65 297.792 453.65C298.069 453.65 298.208 453.65 298.208 453.65C298.393 453.681 298.609 453.82 298.856 454.066C299.102 454.19 299.349 454.359 299.596 454.575C299.874 454.791 300.012 454.976 300.012 455.131C299.889 455.439 299.688 455.902 299.411 456.519C299.164 457.105 298.979 457.536 298.856 457.814C298.27 459.14 297.699 460.451 297.144 461.747C296.619 463.011 296.234 464.307 295.987 465.633C295.925 466.065 295.91 466.574 295.941 467.16C296.003 467.715 296.095 468.116 296.218 468.363C296.311 468.548 296.419 468.764 296.542 469.011C296.697 469.226 296.866 469.412 297.051 469.566C297.329 469.751 297.313 469.982 297.005 470.26C296.727 470.537 296.373 470.784 295.941 471C295.54 471.185 295.293 471.278 295.201 471.278ZM318.339 469.89C317.661 469.828 317.09 469.689 316.627 469.473C316.196 469.226 315.841 468.748 315.563 468.039C315.44 467.545 315.378 467.037 315.378 466.512C315.409 465.957 315.455 465.433 315.517 464.939C315.579 464.415 315.61 463.967 315.61 463.597C315.61 463.536 315.61 463.412 315.61 463.227C315.61 463.042 315.61 462.873 315.61 462.718C315.548 462.256 315.424 461.978 315.239 461.885C315.085 461.762 314.808 461.778 314.407 461.932C313.759 462.24 313.049 462.657 312.278 463.181C311.538 463.674 310.752 464.261 309.919 464.939C309.117 465.587 308.284 466.281 307.42 467.021C306.742 467.761 306.233 468.363 305.894 468.825C305.585 469.288 305.261 469.519 304.922 469.519C304.675 469.643 304.413 469.612 304.135 469.427C303.858 469.242 303.565 469.026 303.256 468.779C303.04 468.532 302.778 468.224 302.47 467.854C302.192 467.453 302.023 467.191 301.961 467.067C301.961 466.574 301.992 466.127 302.053 465.726C302.146 465.325 302.269 464.908 302.424 464.476C302.609 464.045 302.825 463.551 303.071 462.996C303.195 462.78 303.303 462.564 303.395 462.348C303.519 462.101 303.657 461.839 303.812 461.562C303.935 461.13 304.105 460.636 304.321 460.081C304.567 459.526 304.799 459.002 305.015 458.508C305.354 457.706 305.616 457.012 305.801 456.426C305.986 455.84 306.14 455.208 306.264 454.529C306.233 454.467 306.248 454.375 306.31 454.252C306.372 454.128 306.464 454.051 306.588 454.02H306.634H306.68C306.896 453.866 307.297 453.851 307.883 453.974C308.5 454.066 308.963 454.236 309.271 454.483C309.919 455.038 310.227 455.763 310.196 456.657C310.166 457.552 309.703 458.724 308.808 460.174C308.592 460.667 308.361 461.13 308.114 461.562C307.898 461.963 307.791 462.24 307.791 462.394C307.791 462.394 307.914 462.302 308.161 462.117C308.407 461.932 308.7 461.716 309.04 461.469C309.379 461.191 309.672 460.976 309.919 460.821C310.073 460.667 310.412 460.39 310.937 459.989C311.461 459.557 312.032 459.11 312.648 458.647C313.265 458.184 313.759 457.829 314.129 457.583C314.468 457.336 314.9 457.089 315.424 456.842C315.949 456.565 316.273 456.426 316.396 456.426C316.705 456.426 317.075 456.534 317.506 456.75C317.969 456.966 318.386 457.228 318.756 457.536C319.157 457.814 319.388 458.076 319.45 458.323C319.45 458.446 319.434 458.616 319.403 458.832C319.373 459.017 319.357 459.187 319.357 459.341C319.326 459.834 319.311 460.436 319.311 461.145C319.342 461.824 319.357 462.518 319.357 463.227C319.357 463.906 319.295 464.523 319.172 465.078C319.172 465.078 319.187 465.109 319.218 465.17C319.249 465.201 319.28 465.263 319.311 465.355C319.28 465.386 319.265 465.448 319.265 465.541C319.295 465.602 319.311 465.633 319.311 465.633C319.373 465.849 319.434 466.065 319.496 466.281C319.588 466.497 319.696 466.743 319.82 467.021C319.943 467.268 320.082 467.592 320.236 467.993C320.205 468.394 319.974 468.795 319.542 469.196C319.141 469.566 318.74 469.797 318.339 469.89ZM329.628 471.416C329.227 471.447 328.903 471.401 328.656 471.278C328.409 471.185 328.101 471.031 327.731 470.815C327.052 470.291 326.481 469.643 326.019 468.872C325.587 468.101 325.386 467.453 325.417 466.929C325.479 466.651 325.479 466.404 325.417 466.188C325.386 465.972 325.371 465.864 325.371 465.864C325.186 465.71 325.124 465.618 325.186 465.587C325.248 465.525 325.294 465.433 325.325 465.309C325.572 465.248 325.602 465.078 325.417 464.8C325.325 464.554 325.371 463.998 325.556 463.135C325.772 462.24 326.05 461.407 326.389 460.636C326.543 460.297 326.759 459.85 327.037 459.295C327.345 458.739 327.684 458.184 328.055 457.629C328.425 457.043 328.764 456.58 329.072 456.241C329.751 455.47 330.352 454.838 330.877 454.344C331.432 453.851 332.049 453.48 332.727 453.234C333.344 452.987 333.961 452.879 334.578 452.91C335.226 452.941 335.796 453.157 336.29 453.558C337.03 453.773 337.693 454.113 338.279 454.575C338.865 455.007 339.266 455.624 339.482 456.426C339.729 457.321 339.806 458.385 339.714 459.618C339.652 460.821 339.128 462.379 338.141 464.291C337.555 465.494 336.969 466.466 336.382 467.206C335.827 467.946 335.149 468.656 334.347 469.334C333.761 469.828 333.005 470.26 332.08 470.63C331.154 471 330.337 471.262 329.628 471.416ZM333.653 464.43C334.054 463.875 334.362 463.335 334.578 462.811C334.825 462.286 335.056 461.562 335.272 460.636C335.365 460.297 335.411 459.881 335.411 459.387C335.442 458.894 335.426 458.446 335.365 458.045C335.334 457.614 335.226 457.382 335.041 457.351C334.64 457.197 334.223 457.197 333.792 457.351C333.391 457.475 332.912 457.845 332.357 458.462C331.864 459.017 331.463 459.541 331.154 460.035C330.877 460.498 330.615 461.068 330.368 461.747C330.152 462.394 329.905 463.243 329.628 464.291C329.381 465.309 329.365 466.127 329.581 466.743C329.828 467.36 330.291 467.53 330.969 467.252C331.648 466.975 332.542 466.034 333.653 464.43Z" fill="#494949"/>
<path d="M8.43317 93.8377C13.3303 91.1782 23.486 84.1371 24.9315 77.2488C25.9599 72.3484 25.83 70.3824 25.4524 69.7696C25.2767 69.7064 25.103 69.6453 24.9315 69.5863C25.1054 69.4951 25.2993 69.521 25.4524 69.7696C35.3985 73.3481 51.979 83.7135 42.5298 98.1824C32.9136 112.907 15.792 101.421 8.43317 93.8377Z" fill="#FFC7C7" fill-opacity="0.8"/>
<path d="M197.409 212.775C202.306 210.115 212.462 203.074 213.907 196.186C214.936 191.285 214.806 189.319 214.428 188.706C214.252 188.643 214.079 188.582 213.907 188.523C214.081 188.432 214.275 188.458 214.428 188.706C224.374 192.285 240.955 202.65 231.506 217.119C221.889 231.844 204.768 220.358 197.409 212.775Z" fill="#FFC7C7" fill-opacity="0.8"/>
<path d="M82.2527 134.472C88.6757 134.665 103.56 133.929 111.713 129.44C117.514 126.247 119.431 124.726 119.775 124.102C119.707 123.977 119.638 123.854 119.57 123.734C119.794 123.743 119.914 123.849 119.775 124.102C123.613 131.181 125.5 146.258 103.534 152.84C81.1788 159.537 80.0319 143.385 82.2527 134.472Z" fill="#FFC7C7" fill-opacity="0.8"/>
<path d="M271.229 253.409C277.652 253.602 292.536 252.865 300.689 248.377C306.49 245.184 308.407 243.662 308.751 243.038C308.683 242.913 308.614 242.791 308.545 242.671C308.77 242.68 308.89 242.785 308.751 243.038C312.589 250.117 314.476 265.195 292.509 271.776C270.155 278.474 269.008 262.322 271.229 253.409Z" fill="#FFC7C7" fill-opacity="0.8"/>
<path d="M42.7714 204.312C36.3485 204.505 21.4642 203.768 13.3107 199.28C7.51027 196.087 5.59275 194.565 5.2494 193.942C5.31722 193.816 5.38565 193.694 5.45457 193.574C5.22988 193.583 5.11011 193.688 5.2494 193.942C1.41123 201.02 -0.476126 216.098 21.4905 222.679C43.8453 229.377 44.9923 213.225 42.7714 204.312Z" fill="#FFC7C7" fill-opacity="0.8"/>
<path d="M231.747 323.249C225.324 323.442 210.44 322.705 202.287 318.217C196.486 315.024 194.569 313.502 194.225 312.878C194.293 312.753 194.362 312.631 194.43 312.511C194.206 312.52 194.086 312.625 194.225 312.878C190.387 319.957 188.5 335.035 210.466 341.616C232.821 348.314 233.968 332.162 231.747 323.249Z" fill="#FFC7C7" fill-opacity="0.8"/>
<path d="M107.309 27.9173C100.886 27.7245 86.0019 28.461 77.8484 32.9493C72.048 36.1422 70.1305 37.6639 69.7871 38.2879C69.8549 38.4129 69.9234 38.5355 69.9923 38.6555C69.7676 38.6463 69.6478 38.541 69.7871 38.2879C65.9489 31.209 64.0616 16.1316 86.0282 9.55003C108.383 2.85215 109.53 19.0041 107.309 27.9173Z" fill="#FFC7C7" fill-opacity="0.8"/>
<path d="M296.285 146.854C289.862 146.661 274.978 147.398 266.824 151.886C261.024 155.079 259.106 156.601 258.763 157.225C258.831 157.35 258.899 157.472 258.968 157.592C258.743 157.583 258.624 157.478 258.763 157.225C254.925 150.146 253.037 135.068 275.004 128.487C297.359 121.789 298.506 137.941 296.285 146.854Z" fill="#FFC7C7" fill-opacity="0.8"/>
<path d="M252.433 368.838C257.33 366.178 267.486 359.137 268.932 352.249C269.96 347.348 269.83 345.382 269.452 344.77C269.277 344.706 269.103 344.645 268.932 344.586C269.105 344.495 269.299 344.521 269.452 344.77C279.399 348.348 295.979 358.714 286.53 373.182C276.914 387.907 259.792 376.421 252.433 368.838Z" fill="#FFC7C7" fill-opacity="0.8"/>
<path d="M326.253 409.472C332.676 409.665 347.56 408.928 355.713 404.44C361.514 401.247 363.431 399.726 363.775 399.102C363.707 398.977 363.639 398.854 363.57 398.734C363.794 398.743 363.914 398.849 363.775 399.102C367.613 406.181 369.5 421.258 347.534 427.839C325.179 434.537 324.032 418.385 326.253 409.472Z" fill="#FFC7C7" fill-opacity="0.8"/>
<path d="M286.771 479.312C280.348 479.505 265.464 478.768 257.311 474.28C251.51 471.087 249.593 469.565 249.249 468.942C249.317 468.816 249.386 468.694 249.455 468.574C249.23 468.583 249.11 468.688 249.249 468.942C245.411 476.02 243.524 491.098 265.491 497.679C287.845 504.377 288.992 488.225 286.771 479.312Z" fill="#FFC7C7" fill-opacity="0.8"/>
<path d="M351.309 302.917C344.886 302.725 330.002 303.461 321.848 307.949C316.048 311.142 314.13 312.664 313.787 313.288C313.855 313.413 313.923 313.536 313.992 313.656C313.768 313.646 313.648 313.541 313.787 313.288C309.949 306.209 308.062 291.132 330.028 284.55C352.383 277.852 353.53 294.004 351.309 302.917Z" fill="#FFC7C7" fill-opacity="0.8"/>
<g clip-path="url(#clip1_3_142)">
<rect x="24" y="38" width="360" height="381" fill="url(#paint0_linear_3_142)"/>
<rect x="24" y="38" width="360" height="381" fill="black" fill-opacity="0.19"/>
<g filter="url(#filter1_f_3_142)">
<ellipse cx="215.5" cy="398.5" rx="108.5" ry="113.5" fill="url(#paint1_linear_3_142)"/>
</g>
<path d="M67.4992 424C76.8327 414.424 81.2995 390.615 24.4983 371.988C-32.3029 353.361 55.1656 353.724 106 356.234" stroke="black" stroke-opacity="0.14" stroke-width="4"/>
<path d="M49.5 327C131.5 223.167 269.9 30.3 167.5 89.5C39.5 163.5 149.5 304.5 216.5 270.5C283.5 236.5 388 116.5 347.5 66.5C307 16.5 106.5 -69 24.5 26.5" stroke="black" stroke-opacity="0.1" stroke-width="4"/>
<path d="M352 456.5C348.833 369 336 182.2 310 135" stroke="black" stroke-opacity="0.14" stroke-width="4"/>
<path d="M373 475.5C369.833 388 357 201.2 331 154" stroke="black" stroke-opacity="0.14" stroke-width="4"/>
</g>
<rect x="25" y="39" width="358" height="379" stroke="#F5F5F5" stroke-width="2"/>
</g>
<rect x="5" y="7" width="398" height="489" rx="11" stroke="black" stroke-opacity="0.1" stroke-width="2"/>
</g>
<defs>
<filter id="filter0_d_3_142" x="0" y="0" width="420" height="511" filterUnits="userSpaceOnUse" color-interpolation-filters="sRGB">
<feFlood flood-opacity="0" result="BackgroundImageFix"/>
<feColorMatrix in="SourceAlpha" type="matrix" values="0 0 0 0 0 0 0 0 0 0 0 0 0 0 0 0 0 0 127 0" result="hardAlpha"/>
<feOffset dx="6" dy="4"/>
<feGaussianBlur stdDeviation="5"/>
<feComposite in2="hardAlpha" operator="out"/>
<feColorMatrix type="matrix" values="0 0 0 0 0 0 0 0 0 0 0 0 0 0 0 0 0 0 0.1 0"/>
<feBlend mode="normal" in2="BackgroundImageFix" result="effect1_dropShadow_3_142"/>
<feBlend mode="normal" in="SourceGraphic" in2="effect1_dropShadow_3_142" result="shape"/>
</filter>
<filter id="filter1_f_3_142" x="-52" y="126" width="535" height="545" filterUnits="userSpaceOnUse" color-interpolation-filters="sRGB">
<feFlood flood-opacity="0" result="BackgroundImageFix"/>
<feBlend mode="normal" in="SourceGraphic" in2="BackgroundImageFix" result="shape"/>
<feGaussianBlur stdDeviation="79.5" result="effect1_foregroundBlur_3_142"/>
</filter>
<linearGradient id="paint0_linear_3_142" x1="29" y1="38" x2="443.348" y2="320.068" gradientUnits="userSpaceOnUse">
<stop stop-color="#FF7777"/>
<stop offset="0.979167" stop-color="#510018"/>
</linearGradient>
<linearGradient id="paint1_linear_3_142" x1="215.5" y1="285" x2="215.5" y2="512" gradientUnits="userSpaceOnUse">
<stop stop-color="#FFD8F1"/>
<stop offset="1" stop-color="#FB2A78"/>
</linearGradient>
<clipPath id="clip0_3_142">
<rect x="4" y="6" width="400" height="491" rx="12" fill="white"/>
</clipPath>
<clipPath id="clip1_3_142">
<rect x="24" y="38" width="360" height="381" fill="white"/>
</clipPath>
</defs>
</svg>
