<svg width="420" height="511" viewBox="0 0 420 511" fill="none" xmlns="http://www.w3.org/2000/svg">
<g filter="url(#filter0_d_3_224)">
<g clip-path="url(#clip0_3_224)">
<rect x="4" y="6" width="400" height="491" rx="12" fill="#8B2931"/>
<path d="M386.15 -93.7798C268.145 -160.737 12 -41.7032 12 63.2968C12 467.179 -118.145 520.057 -0.140363 587.015C117.865 653.972 300.001 555.851 406.672 367.855C513.343 179.858 504.155 -26.8223 386.15 -93.7798Z" fill="#FBFBFB"/>
<path d="M153.761 480.438C153.052 480.839 152.281 481.024 151.448 480.994C150.615 480.963 149.829 480.778 149.088 480.438C148.317 480.099 147.685 479.667 147.191 479.143C146.976 478.896 146.898 478.433 146.96 477.755C146.991 477.107 147.068 476.583 147.191 476.182C147.346 475.627 147.546 475.349 147.793 475.349C148.132 475.349 148.518 475.642 148.95 476.228C149.813 476.999 150.661 477.215 151.494 476.876C152.358 476.537 153.268 475.627 154.224 474.146C154.409 473.683 154.702 473.02 155.103 472.157C155.504 471.293 155.92 470.368 156.352 469.381C156.815 468.394 157.231 467.484 157.601 466.651C157.972 465.787 158.218 465.17 158.342 464.8C158.342 464.8 158.342 464.754 158.342 464.661C158.373 464.538 158.45 464.415 158.573 464.291C158.604 464.168 158.681 463.921 158.804 463.551C158.928 463.181 159.051 462.749 159.175 462.256C159.298 461.916 159.468 461.407 159.683 460.729C159.93 460.05 160.177 459.341 160.424 458.601C160.701 457.86 160.933 457.243 161.118 456.75C161.272 456.102 161.457 455.408 161.673 454.668C161.92 453.897 162.12 453.311 162.274 452.91C162.398 452.663 162.583 452.17 162.83 451.429C163.076 450.658 163.354 449.825 163.662 448.931C164.033 447.728 164.356 446.679 164.634 445.785C164.942 444.89 165.158 444.181 165.282 443.656C165.436 443.101 165.482 442.777 165.421 442.685C165.421 442.685 165.143 442.731 164.588 442.824C164.063 442.916 163.477 443.024 162.83 443.148C162.305 443.363 161.765 443.502 161.21 443.564C160.686 443.626 160.47 443.456 160.563 443.055C160.563 442.932 160.563 442.824 160.563 442.731C160.563 442.608 160.563 442.546 160.563 442.546C160.47 442.608 160.347 442.546 160.192 442.361C160.038 442.176 159.899 441.945 159.776 441.667C159.653 441.359 159.591 441.127 159.591 440.973C159.591 440.726 159.946 440.449 160.655 440.14C161.395 439.801 162.244 439.57 163.2 439.446C163.817 439.354 164.557 439.277 165.421 439.215C166.315 439.122 166.963 439.045 167.364 438.984C167.487 438.891 167.765 438.922 168.196 439.076C168.628 439.23 169.076 439.415 169.538 439.631C170.001 439.847 170.309 440.048 170.464 440.233C170.649 440.48 170.757 440.742 170.787 441.019C170.849 441.297 170.818 441.682 170.695 442.176C170.572 442.669 170.34 443.379 170.001 444.304C169.692 445.199 169.245 446.432 168.659 448.006C167.981 449.918 167.379 451.661 166.855 453.234C166.33 454.776 165.852 456.056 165.421 457.074C165.328 457.413 165.158 457.907 164.912 458.554C164.696 459.202 164.48 459.865 164.264 460.544C164.048 461.191 163.878 461.731 163.755 462.163C163.508 462.749 163.277 463.381 163.061 464.06C162.845 464.739 162.675 465.278 162.552 465.679C162.552 465.926 162.49 466.204 162.367 466.512C162.244 466.821 162.105 467.052 161.951 467.206C161.951 467.206 161.843 467.484 161.627 468.039C161.411 468.563 161.149 469.196 160.84 469.936C160.593 470.553 160.316 471.231 160.007 471.972C159.73 472.743 159.468 473.329 159.221 473.73C159.067 474.1 158.882 474.439 158.666 474.748C158.45 475.087 158.342 475.318 158.342 475.442C158.342 475.442 158.326 475.488 158.295 475.58C158.295 475.673 158.234 475.719 158.11 475.719C158.11 475.719 158.064 475.75 157.972 475.812C157.879 475.904 157.833 476.028 157.833 476.182C157.771 476.367 157.571 476.66 157.231 477.061C156.892 477.462 156.506 477.894 156.075 478.356C155.643 478.85 155.211 479.282 154.779 479.652C154.347 480.022 154.008 480.284 153.761 480.438ZM170.704 470.213C170.457 469.967 170.272 469.597 170.149 469.103C170.056 468.61 170.025 468.131 170.056 467.669C170.087 467.175 170.164 466.805 170.288 466.558C170.288 466.312 170.318 466.127 170.38 466.003C170.473 465.849 170.503 465.71 170.473 465.587C170.442 465.463 170.473 465.248 170.565 464.939C170.658 464.631 170.75 464.338 170.843 464.06C171.059 463.567 171.305 462.934 171.583 462.163C171.861 461.361 172.138 460.559 172.416 459.757C172.693 458.924 172.925 458.215 173.11 457.629C173.295 457.012 173.403 456.642 173.434 456.519C173.434 456.148 173.68 455.948 174.174 455.917C174.544 455.794 174.991 455.948 175.516 456.38C176.04 456.812 176.456 457.274 176.765 457.768C177.012 458.015 177.104 458.338 177.042 458.739C176.981 459.14 176.78 459.711 176.441 460.451C176.318 460.698 176.163 461.114 175.978 461.7C175.824 462.256 175.716 462.718 175.654 463.088C175.531 463.335 175.377 463.69 175.192 464.153C175.038 464.584 174.899 465.001 174.775 465.402C174.714 465.556 174.652 465.849 174.59 466.281C174.529 466.682 174.452 467.098 174.359 467.53C174.266 467.962 174.143 468.301 173.989 468.548C173.711 469.812 173.218 470.553 172.508 470.769C171.83 470.985 171.228 470.8 170.704 470.213ZM175.701 451.661C175.361 451.414 175.099 451.121 174.914 450.782C174.76 450.411 174.667 450.088 174.637 449.81C174.637 449.532 174.667 449.363 174.729 449.301C175.038 448.962 175.3 448.514 175.516 447.959C175.762 447.404 176.025 446.895 176.302 446.432C176.364 446.34 176.441 446.217 176.534 446.062C176.657 445.877 176.78 445.769 176.904 445.738C177.274 445.492 177.783 445.507 178.43 445.785C179.109 446.062 179.603 446.448 179.911 446.941C180.189 447.527 180.266 448.129 180.142 448.746C180.05 449.363 179.726 450.01 179.171 450.689C178.708 451.306 178.122 451.707 177.413 451.892C176.703 452.046 176.133 451.969 175.701 451.661ZM181.914 469.751C181.636 469.535 181.328 469.257 180.988 468.918C180.68 468.579 180.572 468.101 180.665 467.484C180.757 466.62 180.881 465.864 181.035 465.217C181.189 464.538 181.374 463.767 181.59 462.903C181.652 462.533 181.806 461.901 182.053 461.006C182.33 460.112 182.654 459.14 183.024 458.092C183.394 457.043 183.78 456.056 184.181 455.131C184.582 454.174 184.937 453.465 185.245 453.002C185.584 452.694 186.078 452.54 186.726 452.54C187.404 452.54 187.867 452.663 188.114 452.91C188.453 453.187 188.561 453.681 188.437 454.39C188.314 455.069 187.882 456.133 187.142 457.583C186.988 457.953 186.787 458.354 186.54 458.786C186.325 459.187 186.17 459.526 186.078 459.804C185.985 460.05 186.016 460.158 186.17 460.127C186.355 459.788 186.695 459.403 187.188 458.971C187.682 458.508 188.206 458.061 188.761 457.629C189.316 457.197 189.841 456.812 190.334 456.472C190.828 456.133 191.167 455.917 191.352 455.825C191.599 455.67 191.877 455.547 192.185 455.454C192.524 455.331 192.756 455.239 192.879 455.177C193.588 454.838 194.359 454.714 195.192 454.807C196.056 454.868 196.58 455.131 196.765 455.593C196.796 455.84 196.889 456.025 197.043 456.148C197.228 456.272 197.321 456.334 197.321 456.334C197.444 456.334 197.506 456.38 197.506 456.472C197.536 456.565 197.552 456.611 197.552 456.611C197.552 456.827 197.336 457.135 196.904 457.536C196.503 457.937 196.056 458.153 195.562 458.184C195.161 458.215 194.807 458.292 194.498 458.416C194.19 458.539 193.82 458.693 193.388 458.878C192.216 459.557 191.152 460.158 190.196 460.683C189.27 461.207 188.314 462.009 187.327 463.088C187.111 463.335 186.88 463.567 186.633 463.782C186.386 463.998 186.139 464.307 185.893 464.708C185.738 464.862 185.584 465.201 185.43 465.726C185.276 466.25 185.137 466.759 185.014 467.252C184.921 467.715 184.875 467.993 184.875 468.085C184.875 468.085 184.829 468.239 184.736 468.548C184.644 468.825 184.489 469.103 184.273 469.381C183.903 469.874 183.533 470.183 183.163 470.306C182.824 470.429 182.407 470.244 181.914 469.751ZM203.213 470.352C202.966 470.414 202.642 470.445 202.241 470.445C201.84 470.414 201.485 470.368 201.177 470.306C200.899 470.213 200.761 470.121 200.761 470.028C200.761 469.874 200.683 469.797 200.529 469.797C200.529 469.797 200.36 469.674 200.02 469.427C199.681 469.149 199.373 468.949 199.095 468.825C198.817 468.394 198.632 467.9 198.54 467.345C198.478 466.759 198.663 465.741 199.095 464.291C199.126 463.304 199.403 462.271 199.928 461.191C200.452 460.081 201.115 459.002 201.917 457.953C202.719 456.904 203.552 455.979 204.416 455.177C205.279 454.344 206.05 453.727 206.729 453.326C207.161 452.894 207.731 452.663 208.441 452.632C209.181 452.601 209.829 452.74 210.384 453.049C210.692 453.203 211.032 453.511 211.402 453.974C211.772 454.437 212.127 454.93 212.466 455.454C212.805 455.948 213.067 456.395 213.252 456.796C213.345 457.135 213.422 457.444 213.484 457.722C213.576 457.968 213.638 458.277 213.669 458.647C213.7 459.017 213.669 459.572 213.576 460.312C213.422 460.868 213.283 461.438 213.16 462.024C213.067 462.579 213.021 463.15 213.021 463.736C212.959 464.322 213.021 464.739 213.206 464.985C213.422 465.232 213.731 465.248 214.132 465.032C214.502 464.847 214.887 464.831 215.288 464.985C215.689 465.109 215.967 465.355 216.121 465.726C216.306 466.065 216.26 466.512 215.982 467.067C215.797 467.468 215.504 467.854 215.103 468.224C214.702 468.594 214.255 468.903 213.761 469.149C213.268 469.365 212.79 469.473 212.327 469.473C211.988 469.473 211.649 469.35 211.309 469.103C210.97 468.825 210.662 468.455 210.384 467.993C210.106 467.53 209.875 467.021 209.69 466.466L209.412 465.402L207.747 466.929C207.346 467.36 206.945 467.761 206.544 468.131C206.174 468.471 205.942 468.718 205.85 468.872C205.696 469.149 205.387 469.396 204.925 469.612C204.493 469.828 203.922 470.075 203.213 470.352ZM204.462 465.911C204.986 465.602 205.433 465.232 205.804 464.8C206.205 464.368 206.59 463.89 206.96 463.366C207.33 462.811 207.731 462.225 208.163 461.608C208.688 460.898 209.058 460.328 209.274 459.896C209.52 459.464 209.705 459.002 209.829 458.508C209.705 458.169 209.536 457.814 209.32 457.444C209.104 457.043 208.888 456.827 208.672 456.796C208.24 456.796 207.716 457.058 207.099 457.583C206.513 458.107 205.865 458.863 205.156 459.85C205.032 460.004 204.878 460.251 204.693 460.59C204.508 460.929 204.323 461.253 204.138 461.562C203.984 461.839 203.876 462.024 203.814 462.117C203.722 462.24 203.583 462.533 203.398 462.996C203.243 463.428 203.105 463.875 202.981 464.338C202.858 464.769 202.796 465.078 202.796 465.263C202.796 465.448 202.812 465.649 202.843 465.864C202.904 466.08 203.058 466.219 203.305 466.281C203.552 466.343 203.937 466.219 204.462 465.911ZM220.894 469.473C220.77 469.473 220.508 469.381 220.107 469.196C219.706 469.011 219.506 468.918 219.506 468.918C219.506 468.795 219.459 468.64 219.367 468.455C219.305 468.27 219.274 468.116 219.274 467.993C219.058 467.869 218.843 467.669 218.627 467.391C218.411 467.114 218.364 466.805 218.488 466.466C218.673 466.127 218.92 465.618 219.228 464.939C219.567 464.23 219.922 463.443 220.292 462.579C220.693 461.685 221.063 460.821 221.403 459.989C221.742 459.156 222.035 458.446 222.282 457.86C222.528 457.243 222.667 456.873 222.698 456.75C222.698 456.627 222.713 456.411 222.744 456.102C222.806 455.794 223.007 455.532 223.346 455.316C223.747 455.038 224.163 455.023 224.595 455.269C225.027 455.516 225.397 455.948 225.705 456.565C226.014 457.151 226.168 457.845 226.168 458.647C226.168 458.863 226.014 459.418 225.705 460.312C225.397 461.176 224.981 462.209 224.456 463.412C223.963 464.615 223.407 465.834 222.791 467.067C222.328 467.962 221.973 468.594 221.726 468.964C221.511 469.304 221.233 469.473 220.894 469.473ZM227.186 451.753C226.816 451.753 226.369 451.583 225.844 451.244C225.351 450.905 224.903 450.473 224.502 449.949C224.101 449.424 223.901 448.869 223.901 448.283C223.901 448.129 224.04 447.851 224.317 447.45C224.595 447.019 224.857 446.602 225.104 446.201C225.382 445.8 225.52 445.569 225.52 445.507C225.767 445.507 226.06 445.553 226.399 445.646C226.739 445.738 227.016 445.846 227.232 445.97C227.571 446.741 228.019 447.404 228.574 447.959C229.129 448.484 229.407 449.085 229.407 449.764C229.407 450.442 229.237 450.951 228.898 451.29C228.558 451.599 227.988 451.753 227.186 451.753ZM228.448 482.89C227.77 483.014 227.307 483.029 227.06 482.937C226.814 482.844 226.474 482.69 226.043 482.474C225.703 482.227 225.457 482.042 225.302 481.919C225.148 481.796 225.04 481.672 224.979 481.549C224.67 480.901 224.624 480.423 224.84 480.115C225.056 479.806 225.364 479.606 225.765 479.513C226.197 479.451 226.567 479.421 226.875 479.421C227.091 479.544 227.446 479.606 227.94 479.606C228.464 479.606 228.788 479.544 228.911 479.421C228.911 479.421 229.05 479.328 229.328 479.143C229.636 478.989 230.037 478.865 230.53 478.773C231.487 478.31 232.242 477.832 232.798 477.339C233.353 476.876 233.97 476.074 234.648 474.933C234.926 474.501 235.219 473.992 235.527 473.406C235.836 472.851 236.052 472.295 236.175 471.74C236.422 471.123 236.699 470.291 237.008 469.242C237.347 468.193 237.64 467.16 237.887 466.142C238.134 465.093 238.272 464.307 238.303 463.782C238.488 462.055 238.843 460.39 239.367 458.786C239.892 457.151 240.308 455.424 240.617 453.604C240.802 453.172 240.94 452.925 241.033 452.864C241.126 452.771 241.326 452.725 241.634 452.725C241.974 452.725 242.375 452.833 242.837 453.049C243.3 453.234 243.639 453.496 243.855 453.835C244.164 454.421 244.302 455.115 244.272 455.917C244.272 456.688 244.071 457.367 243.67 457.953C243.362 458.385 243.084 459.063 242.837 459.989C242.621 460.883 242.406 462.009 242.19 463.366C242.035 464.045 241.866 464.847 241.681 465.772C241.526 466.666 241.357 467.669 241.172 468.779C241.048 469.088 240.879 469.566 240.663 470.213C240.447 470.83 240.308 471.324 240.246 471.694C240.216 471.817 240.123 472.064 239.969 472.434C239.815 472.804 239.66 473.159 239.506 473.498C239.352 473.869 239.244 474.115 239.182 474.239C237.702 477.231 235.99 479.39 234.047 480.716C232.134 482.042 230.268 482.767 228.448 482.89ZM232.335 469.797C231.996 469.797 231.641 469.612 231.271 469.242C230.931 468.872 230.7 468.579 230.577 468.363C230.453 468.054 230.222 467.761 229.883 467.484C229.543 467.206 229.25 466.867 229.004 466.466C228.757 466.065 228.695 465.571 228.819 464.985C228.942 464.584 229.127 463.983 229.374 463.181C229.621 462.348 229.914 461.438 230.253 460.451C230.592 459.433 230.931 458.431 231.271 457.444C231.641 456.457 231.98 455.578 232.289 454.807C232.597 454.036 232.859 453.496 233.075 453.187C233.26 452.941 233.553 452.756 233.954 452.632C234.355 452.509 234.756 452.478 235.157 452.54C235.558 452.601 235.851 452.786 236.036 453.095C236.375 453.527 236.561 453.959 236.591 454.39C236.653 454.791 236.437 455.439 235.944 456.334C235.82 456.673 235.666 457.043 235.481 457.444C235.296 457.814 235.203 458.061 235.203 458.184C235.173 458.246 235.111 458.462 235.018 458.832C234.957 459.171 234.88 459.495 234.787 459.804C234.694 460.112 234.602 460.266 234.509 460.266C234.386 460.39 234.247 460.713 234.093 461.238C233.97 461.762 233.846 462.348 233.723 462.996C233.63 463.613 233.569 464.168 233.538 464.661C233.507 465.124 233.553 465.355 233.677 465.355C234.633 465.355 235.558 465.062 236.453 464.476C237.347 463.86 238.319 462.842 239.367 461.423L239.784 465.772C239.352 465.988 238.951 466.219 238.581 466.466C238.211 466.682 237.871 466.944 237.563 467.252C237.47 467.376 237.255 467.545 236.915 467.761C236.576 467.977 236.237 468.178 235.897 468.363C235.589 468.517 235.388 468.594 235.296 468.594C235.296 468.594 235.25 468.61 235.157 468.64C235.095 468.64 235.065 468.702 235.065 468.825C235.065 468.887 234.864 469.011 234.463 469.196C234.062 469.35 233.646 469.489 233.214 469.612C232.782 469.735 232.489 469.797 232.335 469.797ZM248.196 470.028C248.073 469.782 247.795 469.535 247.363 469.288C246.962 469.041 246.762 468.856 246.762 468.733C246.762 468.61 246.685 468.424 246.53 468.178C246.407 467.9 246.284 467.7 246.16 467.576C246.006 467.391 246.052 466.944 246.299 466.235C246.546 465.494 246.916 464.6 247.409 463.551C247.903 462.502 248.443 461.438 249.029 460.359C249.276 460.112 249.522 459.788 249.769 459.387C250.016 458.986 250.201 458.724 250.324 458.601C250.324 458.477 250.371 458.369 250.463 458.277C250.556 458.153 250.664 458.092 250.787 458.092L251.157 457.351C251.219 457.228 251.404 456.981 251.712 456.611C252.052 456.241 252.453 455.84 252.915 455.408C253.378 454.946 253.841 454.514 254.303 454.113C254.797 453.712 255.198 453.419 255.506 453.234C256.154 452.802 256.817 452.601 257.496 452.632C258.205 452.663 258.806 452.879 259.3 453.28C259.392 453.372 259.593 453.558 259.901 453.835C260.241 454.113 260.611 454.421 261.012 454.76C261.444 455.1 261.814 455.408 262.122 455.686L263.834 457.213L263.048 459.526C262.647 460.76 262.539 461.839 262.724 462.765C262.909 463.69 263.202 464.492 263.603 465.17C263.757 465.51 263.957 465.772 264.204 465.957C264.482 466.142 264.837 466.265 265.268 466.327C265.515 466.358 265.746 466.45 265.962 466.605C266.178 466.759 266.286 467.006 266.286 467.345C266.286 468.085 266.147 468.625 265.87 468.964C265.623 469.273 265.345 469.458 265.037 469.519C264.019 469.643 263.048 469.535 262.122 469.196C261.197 468.856 260.364 467.977 259.624 466.558C259.5 466.373 259.331 466.034 259.115 465.541C258.93 465.016 258.822 464.677 258.791 464.523C258.668 464.677 258.498 464.877 258.282 465.124C258.097 465.34 257.912 465.541 257.727 465.726C255.537 467.946 253.655 469.396 252.082 470.075C250.54 470.722 249.245 470.707 248.196 470.028ZM250.741 466.188C250.957 466.219 251.296 466.111 251.759 465.864C252.221 465.587 252.838 465.14 253.609 464.523C254.658 463.628 255.522 462.888 256.2 462.302C256.879 461.716 257.542 460.96 258.19 460.035L259.207 458.369C258.899 457.66 258.621 457.197 258.375 456.981C258.128 456.765 257.881 456.657 257.634 456.657C257.233 456.657 256.755 456.92 256.2 457.444C255.645 457.937 255.013 458.678 254.303 459.665C253.625 460.621 252.853 461.824 251.99 463.273C251.589 463.952 251.28 464.615 251.065 465.263C250.849 465.88 250.741 466.188 250.741 466.188Z" fill="#3A3A3A"/>
<rect x="25" y="39" width="358" height="379" fill="url(#paint0_linear_3_224)"/>
<path d="M150.5 168.5C151.333 168.833 152.5 169.6 150.5 170C148 170.5 147.5 166.5 151 166.5C154.5 166.5 153 170 152.5 170.5C152 171 151 172 151.5 174" stroke="black" stroke-opacity="0.2"/>
<path d="M334.553 355.949C342.28 356.282 353.937 359.167 338.743 368.044C319.75 379.14 304.498 348.301 333.043 338.41C361.589 328.52 359.133 360.979 356.452 366.424C353.771 371.868 348.408 382.757 358.074 397.47" stroke="white" stroke-opacity="0.2" stroke-width="4"/>
<path d="M54.1438 218.56C58.1875 221.967 63.2929 228.406 51.3656 226.91C36.4564 225.041 41.0684 201.844 60.6448 208.358C80.2212 214.871 65.3487 231.563 61.626 233.416C57.9033 235.269 50.4579 238.974 49.5502 251.038" stroke="white" stroke-opacity="0.2" stroke-width="4"/>
<path d="M100.817 58.511C106.1 58.3072 114.211 59.6308 104.385 66.5554C92.1023 75.2111 79.8947 54.9542 98.7548 46.5902C117.615 38.2262 117.856 60.5811 116.351 64.4574C114.846 68.3338 111.836 76.0865 119.287 85.6175" stroke="white" stroke-opacity="0.2" stroke-width="4"/>
<rect x="25" y="39" width="358" height="379" stroke="#F5F5F5" stroke-width="2"/>
</g>
<rect x="5" y="7" width="398" height="489" rx="11" stroke="black" stroke-opacity="0.1" stroke-width="2"/>
</g>
<defs>
<filter id="filter0_d_3_224" x="0" y="0" width="420" height="511" filterUnits="userSpaceOnUse" color-interpolation-filters="sRGB">
<feFlood flood-opacity="0" result="BackgroundImageFix"/>
<feColorMatrix in="SourceAlpha" type="matrix" values="0 0 0 0 0 0 0 0 0 0 0 0 0 0 0 0 0 0 127 0" result="hardAlpha"/>
<feOffset dx="6" dy="4"/>
<feGaussianBlur stdDeviation="5"/>
<feComposite in2="hardAlpha" operator="out"/>
<feColorMatrix type="matrix" values="0 0 0 0 0 0 0 0 0 0 0 0 0 0 0 0 0 0 0.1 0"/>
<feBlend mode="normal" in2="BackgroundImageFix" result="effect1_dropShadow_3_224"/>
<feBlend mode="normal" in="SourceGraphic" in2="effect1_dropShadow_3_224" result="shape"/>
</filter>
<linearGradient id="paint0_linear_3_224" x1="29" y1="38" x2="443.348" y2="320.068" gradientUnits="userSpaceOnUse">
<stop/>
<stop offset="0.979167" stop-color="#343434"/>
</linearGradient>
<clipPath id="clip0_3_224">
<rect x="4" y="6" width="400" height="491" rx="12" fill="white"/>
</clipPath>
</defs>
</svg>
