<svg width="420" height="511" viewBox="0 0 420 511" fill="none" xmlns="http://www.w3.org/2000/svg">
<g filter="url(#filter0_d_3_75)">
<g clip-path="url(#clip0_3_75)">
<rect x="4" y="6" width="400" height="491" rx="12" fill="#EA8351"/>
<path d="M386.15 581.077C268.145 648.034 86.0091 549.913 -20.6621 361.917C-127.333 173.92 -118.145 -32.7603 -0.140378 -99.7177C117.865 -166.675 300.001 -68.5539 406.672 119.442C513.343 307.438 504.155 514.119 386.15 581.077Z" fill="#40474F"/>
<path d="M74.0092 474.933C73.3923 474.593 72.9759 474.192 72.76 473.73C72.5441 473.267 72.4515 472.758 72.4824 472.203C72.5441 471.648 72.652 471.077 72.8062 470.491C73.053 469.504 73.3152 468.687 73.5928 468.039C73.9012 467.36 74.1942 466.666 74.4718 465.957C74.7803 465.217 75.0425 464.276 75.2584 463.135C75.7519 461.993 76.1837 460.914 76.5538 459.896C76.9548 458.878 77.2633 458.045 77.4792 457.398C77.6951 456.75 77.803 456.426 77.803 456.426C77.8339 456.303 77.9573 455.979 78.1732 455.454C78.4199 454.93 78.7129 454.298 79.0522 453.558C79.4224 452.786 79.7771 452.015 80.1164 451.244C80.6407 449.764 81.1342 448.514 81.5969 447.497C82.0596 446.448 82.5222 445.507 82.9849 444.674C83.4784 443.842 84.0027 443.009 84.5579 442.176C84.9281 441.528 85.4524 441.143 86.131 441.019C86.8096 440.896 87.4573 440.973 88.0742 441.251C88.6911 441.497 89.0921 441.929 89.2771 442.546C89.4313 442.855 89.5547 443.209 89.6473 443.61C89.7706 444.011 89.8786 444.613 89.9711 445.415C90.0945 446.186 90.1716 447.312 90.2025 448.792C90.2641 450.55 90.295 452.17 90.295 453.65C90.3258 455.1 90.3875 456.441 90.4801 457.675C90.6034 458.909 90.8039 460.035 91.0815 461.053C91.1741 461.608 91.2666 462.286 91.3591 463.088C91.4517 463.86 91.5442 464.631 91.6367 465.402C91.7601 466.173 91.8835 466.821 92.0068 467.345C92.1302 467.838 92.2536 468.085 92.377 468.085C92.5312 468.085 92.7008 467.962 92.8859 467.715C93.1018 467.437 93.3794 466.867 93.7187 466.003C94.058 465.14 94.4898 463.813 95.0142 462.024C95.5385 460.235 96.1708 457.829 96.9111 454.807C97.0653 454.282 97.2658 453.434 97.5126 452.262C97.7902 451.09 97.9907 449.902 98.114 448.7C98.3299 447.928 98.5459 447.08 98.7618 446.155C98.9777 445.23 99.1627 444.412 99.317 443.703C99.502 442.993 99.5946 442.592 99.5946 442.5C99.5946 442.284 99.5946 442.099 99.5946 441.945C99.6254 441.79 99.6254 441.636 99.5946 441.482C99.7488 441.482 99.8876 441.281 100.011 440.881C100.134 440.449 100.196 440.079 100.196 439.77C100.196 439.246 100.258 438.829 100.381 438.521C100.535 438.182 100.69 437.935 100.844 437.781C101.183 437.164 101.615 436.855 102.139 436.855C102.694 436.824 103.203 436.979 103.666 437.318C104.129 437.626 104.406 438.012 104.499 438.475C104.56 438.814 104.468 439.585 104.221 440.788C104.005 441.96 103.666 443.549 103.203 445.553C103.203 445.893 103.111 446.448 102.926 447.219C102.741 447.99 102.54 448.807 102.324 449.671C102.139 450.535 102 451.275 101.908 451.892C101.785 452.694 101.646 453.45 101.491 454.159C101.337 454.838 101.183 455.161 101.029 455.131C100.227 458.616 99.3786 461.592 98.4842 464.06C97.6205 466.497 96.8494 468.486 96.1708 470.028C95.4306 471.725 94.4744 472.804 93.3023 473.267C92.1611 473.761 91.0969 473.375 90.1099 472.11C89.5239 471.308 89.0304 470.522 88.6294 469.751C88.2284 468.98 87.9046 468.07 87.6578 467.021C87.411 465.972 87.1951 464.646 87.0101 463.042C86.825 461.747 86.6554 460.482 86.5011 459.248C86.3778 457.984 86.2852 456.704 86.2235 455.408C86.1618 454.082 86.1464 452.678 86.1773 451.198C86.2081 449.44 86.131 448.407 85.9459 448.098C85.7917 447.79 85.5604 447.959 85.2519 448.607C84.9435 449.255 84.5888 450.134 84.1878 451.244C83.9719 451.861 83.7097 452.571 83.4013 453.372C83.1237 454.144 82.8307 454.915 82.5222 455.686C82.2138 456.457 81.9516 457.12 81.7357 457.675C81.5198 458.23 81.381 458.585 81.3193 458.739C81.1342 459.11 80.9183 459.603 80.6716 460.22C80.4248 460.806 80.2243 461.438 80.0701 462.117C78.9597 465.016 78.1269 467.515 77.5717 469.612C77.0473 471.679 76.6618 473.051 76.415 473.73C76.1066 474.593 75.8136 475.118 75.536 475.303C75.2892 475.488 74.7803 475.364 74.0092 474.933ZM104.69 470.028C104.567 469.782 104.289 469.535 103.858 469.288C103.457 469.041 103.256 468.856 103.256 468.733C103.256 468.61 103.179 468.424 103.025 468.178C102.901 467.9 102.778 467.7 102.655 467.576C102.5 467.391 102.547 466.944 102.793 466.235C103.04 465.494 103.41 464.6 103.904 463.551C104.397 462.502 104.937 461.438 105.523 460.359C105.77 460.112 106.017 459.788 106.263 459.387C106.51 458.986 106.695 458.724 106.819 458.601C106.819 458.477 106.865 458.369 106.957 458.277C107.05 458.153 107.158 458.092 107.281 458.092L107.651 457.351C107.713 457.228 107.898 456.981 108.207 456.611C108.546 456.241 108.947 455.84 109.41 455.408C109.872 454.946 110.335 454.514 110.798 454.113C111.291 453.712 111.692 453.419 112 453.234C112.648 452.802 113.311 452.601 113.99 452.632C114.699 452.663 115.301 452.879 115.794 453.28C115.887 453.372 116.087 453.558 116.396 453.835C116.735 454.113 117.105 454.421 117.506 454.76C117.938 455.1 118.308 455.408 118.617 455.686L120.328 457.213L119.542 459.526C119.141 460.76 119.033 461.839 119.218 462.765C119.403 463.69 119.696 464.492 120.097 465.17C120.251 465.51 120.452 465.772 120.699 465.957C120.976 466.142 121.331 466.265 121.763 466.327C122.009 466.358 122.241 466.45 122.457 466.605C122.673 466.759 122.781 467.006 122.781 467.345C122.781 468.085 122.642 468.625 122.364 468.964C122.117 469.273 121.84 469.458 121.531 469.519C120.514 469.643 119.542 469.535 118.617 469.196C117.691 468.856 116.858 467.977 116.118 466.558C115.995 466.373 115.825 466.034 115.609 465.541C115.424 465.016 115.316 464.677 115.285 464.523C115.162 464.677 114.992 464.877 114.776 465.124C114.591 465.34 114.406 465.541 114.221 465.726C112.031 467.946 110.15 469.396 108.577 470.075C107.035 470.722 105.739 470.707 104.69 470.028ZM107.235 466.188C107.451 466.219 107.79 466.111 108.253 465.864C108.716 465.587 109.332 465.14 110.104 464.523C111.152 463.628 112.016 462.888 112.694 462.302C113.373 461.716 114.036 460.96 114.684 460.035L115.702 458.369C115.393 457.66 115.116 457.197 114.869 456.981C114.622 456.765 114.376 456.657 114.129 456.657C113.728 456.657 113.25 456.92 112.694 457.444C112.139 457.937 111.507 458.678 110.798 459.665C110.119 460.621 109.348 461.824 108.484 463.273C108.083 463.952 107.775 464.615 107.559 465.263C107.343 465.88 107.235 466.188 107.235 466.188ZM126.495 469.751C126.218 469.535 125.909 469.257 125.57 468.918C125.262 468.579 125.154 468.101 125.246 467.484C125.339 466.62 125.462 465.864 125.616 465.217C125.77 464.538 125.956 463.767 126.171 462.903C126.233 462.533 126.387 461.901 126.634 461.006C126.912 460.112 127.236 459.14 127.606 458.092C127.976 457.043 128.361 456.056 128.762 455.131C129.163 454.174 129.518 453.465 129.826 453.002C130.166 452.694 130.659 452.54 131.307 452.54C131.986 452.54 132.448 452.663 132.695 452.91C133.034 453.187 133.142 453.681 133.019 454.39C132.895 455.069 132.464 456.133 131.723 457.583C131.569 457.953 131.369 458.354 131.122 458.786C130.906 459.187 130.752 459.526 130.659 459.804C130.567 460.05 130.598 460.158 130.752 460.127C130.937 459.788 131.276 459.403 131.77 458.971C132.263 458.508 132.788 458.061 133.343 457.629C133.898 457.197 134.422 456.812 134.916 456.472C135.409 456.133 135.749 455.917 135.934 455.825C136.18 455.67 136.458 455.547 136.766 455.454C137.106 455.331 137.337 455.239 137.46 455.177C138.17 454.838 138.941 454.714 139.774 454.807C140.637 454.868 141.162 455.131 141.347 455.593C141.378 455.84 141.47 456.025 141.624 456.148C141.809 456.272 141.902 456.334 141.902 456.334C142.025 456.334 142.087 456.38 142.087 456.472C142.118 456.565 142.133 456.611 142.133 456.611C142.133 456.827 141.917 457.135 141.486 457.536C141.085 457.937 140.637 458.153 140.144 458.184C139.743 458.215 139.388 458.292 139.08 458.416C138.771 458.539 138.401 458.693 137.969 458.878C136.797 459.557 135.733 460.158 134.777 460.683C133.852 461.207 132.895 462.009 131.908 463.088C131.693 463.335 131.461 463.567 131.214 463.782C130.968 463.998 130.721 464.307 130.474 464.708C130.32 464.862 130.166 465.201 130.012 465.726C129.857 466.25 129.719 466.759 129.595 467.252C129.503 467.715 129.456 467.993 129.456 468.085C129.456 468.085 129.41 468.239 129.318 468.548C129.225 468.825 129.071 469.103 128.855 469.381C128.485 469.874 128.115 470.183 127.744 470.306C127.405 470.429 126.989 470.244 126.495 469.751ZM154.919 471.278C154.703 471.401 154.41 471.355 154.04 471.139C153.701 470.923 153.362 470.599 153.022 470.167C152.806 469.797 152.637 469.427 152.513 469.057C152.421 468.656 152.375 468.07 152.375 467.299C152.405 466.682 152.405 466.265 152.375 466.049C152.375 465.803 152.236 465.787 151.958 466.003C151.711 466.188 151.202 466.651 150.431 467.391C149.66 468.162 148.92 468.825 148.211 469.381C147.532 469.905 146.977 470.152 146.545 470.121C146.329 470.121 146.036 469.982 145.666 469.705C145.296 469.427 144.941 469.088 144.602 468.687C144.262 468.255 144.016 467.854 143.861 467.484C143.676 466.743 143.661 465.787 143.815 464.615C144 463.443 144.293 462.225 144.694 460.96C145.095 459.665 145.543 458.462 146.036 457.351C146.56 456.21 147.069 455.3 147.563 454.622C148.087 453.912 148.534 453.573 148.905 453.604C149.429 453.665 149.876 453.928 150.246 454.39C150.647 454.822 150.956 455.3 151.172 455.825C151.295 456.04 151.341 456.226 151.31 456.38C151.31 456.534 151.187 456.719 150.94 456.935C150.663 457.305 150.323 457.845 149.922 458.554C149.552 459.233 149.167 459.973 148.766 460.775C148.396 461.577 148.056 462.348 147.748 463.088C147.47 463.798 147.27 464.384 147.146 464.847C147.023 465.309 147.023 465.541 147.146 465.541C147.578 465.541 147.979 465.433 148.349 465.217C148.719 464.97 149.182 464.584 149.737 464.06C150.385 463.412 150.956 462.765 151.449 462.117C151.943 461.438 152.452 460.667 152.976 459.804C153.377 459.187 153.793 458.508 154.225 457.768C154.688 457.028 154.981 456.503 155.104 456.195C155.536 455.393 155.86 454.791 156.076 454.39C156.292 453.989 156.554 453.743 156.862 453.65C157.017 453.65 157.233 453.65 157.51 453.65C157.788 453.65 157.927 453.65 157.927 453.65C158.112 453.681 158.327 453.82 158.574 454.066C158.821 454.19 159.068 454.359 159.314 454.575C159.592 454.791 159.731 454.976 159.731 455.131C159.608 455.439 159.407 455.902 159.129 456.519C158.883 457.105 158.698 457.536 158.574 457.814C157.988 459.14 157.418 460.451 156.862 461.747C156.338 463.011 155.952 464.307 155.706 465.633C155.644 466.065 155.629 466.574 155.659 467.16C155.721 467.715 155.814 468.116 155.937 468.363C156.03 468.548 156.138 468.764 156.261 469.011C156.415 469.226 156.585 469.412 156.77 469.566C157.047 469.751 157.032 469.982 156.724 470.26C156.446 470.537 156.091 470.784 155.659 471C155.258 471.185 155.012 471.278 154.919 471.278ZM168.203 471.278C167.771 471.154 167.339 470.938 166.908 470.63C166.476 470.321 166.029 469.967 165.566 469.566C165.196 469.072 164.934 468.625 164.779 468.224C164.625 467.792 164.533 467.299 164.502 466.743C164.502 466.157 164.502 465.417 164.502 464.523C164.502 464.153 164.563 463.628 164.687 462.95C164.841 462.271 164.995 461.562 165.15 460.821C165.335 460.081 165.504 459.433 165.658 458.878C165.813 458.292 165.905 457.907 165.936 457.722C166.029 457.321 165.874 457.089 165.473 457.028C165.072 456.966 164.625 456.95 164.132 456.981C163.669 456.981 163.361 456.935 163.206 456.842C163.083 456.812 163.021 456.657 163.021 456.38C163.021 456.071 163.021 455.917 163.021 455.917C163.021 455.794 162.96 455.717 162.836 455.686C162.713 455.624 162.605 455.516 162.512 455.362C162.451 455.239 162.528 455.007 162.744 454.668C162.96 454.329 163.237 454.128 163.576 454.066C163.854 454.005 164.27 453.959 164.826 453.928C165.381 453.866 165.936 453.758 166.491 453.604C167.077 453.419 167.525 453.141 167.833 452.771C168.111 452.092 168.419 451.368 168.758 450.596C169.098 449.795 169.421 449.101 169.73 448.514C170.038 447.898 170.254 447.512 170.378 447.358C170.902 447.08 171.442 446.972 171.997 447.034C172.552 447.065 172.984 447.327 173.292 447.82C173.447 448.036 173.57 448.191 173.663 448.283C173.786 448.376 173.832 448.514 173.801 448.7C173.801 448.885 173.678 449.224 173.431 449.717C173.215 450.18 172.845 450.905 172.321 451.892C172.167 452.2 172.028 452.478 171.904 452.725C171.781 452.941 171.719 453.049 171.719 453.049C171.843 453.079 172.028 453.095 172.275 453.095C172.521 453.095 172.83 453.079 173.2 453.049C173.539 452.987 173.909 452.941 174.31 452.91C174.711 452.848 175.066 452.848 175.374 452.91C176.084 452.91 176.608 453.11 176.947 453.511C177.287 453.912 177.472 454.421 177.503 455.038C177.564 455.377 177.441 455.67 177.133 455.917C176.824 456.164 176.253 456.287 175.421 456.287C175.143 456.287 174.742 456.303 174.218 456.334C173.693 456.364 173.154 456.395 172.598 456.426C172.043 456.457 171.565 456.503 171.164 456.565C170.794 456.596 170.609 456.642 170.609 456.704C170.516 456.765 170.362 457.012 170.146 457.444C169.961 457.845 169.761 458.338 169.545 458.924C169.36 459.51 169.19 460.066 169.036 460.59C168.82 461.639 168.666 462.657 168.573 463.644C168.481 464.631 168.465 465.494 168.527 466.235C168.619 466.944 168.805 467.453 169.082 467.761C169.36 468.039 169.776 468.039 170.331 467.761C170.917 467.453 171.457 467.098 171.951 466.697C172.506 466.235 172.984 466.096 173.385 466.281C173.786 466.435 174.033 466.774 174.125 467.299C174.249 467.792 174.11 468.332 173.709 468.918C173.339 469.504 172.814 469.998 172.136 470.399C171.457 470.8 170.763 471.077 170.054 471.231C169.344 471.416 168.727 471.432 168.203 471.278ZM183.427 471.416C183.026 471.447 182.702 471.401 182.456 471.278C182.209 471.185 181.901 471.031 181.53 470.815C180.852 470.291 180.281 469.643 179.819 468.872C179.387 468.101 179.186 467.453 179.217 466.929C179.279 466.651 179.279 466.404 179.217 466.188C179.186 465.972 179.171 465.864 179.171 465.864C178.986 465.71 178.924 465.618 178.986 465.587C179.047 465.525 179.094 465.433 179.125 465.309C179.371 465.248 179.402 465.078 179.217 464.8C179.125 464.554 179.171 463.998 179.356 463.135C179.572 462.24 179.849 461.407 180.189 460.636C180.343 460.297 180.559 459.85 180.836 459.295C181.145 458.739 181.484 458.184 181.854 457.629C182.224 457.043 182.564 456.58 182.872 456.241C183.551 455.47 184.152 454.838 184.677 454.344C185.232 453.851 185.849 453.48 186.527 453.234C187.144 452.987 187.761 452.879 188.378 452.91C189.026 452.941 189.596 453.157 190.09 453.558C190.83 453.773 191.493 454.113 192.079 454.575C192.665 455.007 193.066 455.624 193.282 456.426C193.529 457.321 193.606 458.385 193.513 459.618C193.452 460.821 192.927 462.379 191.94 464.291C191.354 465.494 190.768 466.466 190.182 467.206C189.627 467.946 188.948 468.656 188.146 469.334C187.56 469.828 186.805 470.26 185.879 470.63C184.954 471 184.137 471.262 183.427 471.416ZM187.452 464.43C187.853 463.875 188.162 463.335 188.378 462.811C188.625 462.286 188.856 461.562 189.072 460.636C189.164 460.297 189.211 459.881 189.211 459.387C189.241 458.894 189.226 458.446 189.164 458.045C189.134 457.614 189.026 457.382 188.84 457.351C188.44 457.197 188.023 457.197 187.591 457.351C187.19 457.475 186.712 457.845 186.157 458.462C185.664 459.017 185.263 459.541 184.954 460.035C184.677 460.498 184.414 461.068 184.168 461.747C183.952 462.394 183.705 463.243 183.427 464.291C183.181 465.309 183.165 466.127 183.381 466.743C183.628 467.36 184.09 467.53 184.769 467.252C185.448 466.975 186.342 466.034 187.452 464.43ZM215.605 473.776C214.001 473.344 212.768 472.527 211.904 471.324C211.071 470.121 210.609 468.455 210.516 466.327C210.454 464.168 210.747 461.485 211.395 458.277C211.611 457.197 211.919 455.963 212.32 454.575C212.721 453.187 213.184 451.769 213.708 450.319C214.264 448.838 214.834 447.42 215.42 446.062C216.037 444.674 216.639 443.456 217.225 442.407C217.934 441.143 218.551 440.294 219.075 439.863C219.6 439.431 220.109 439.246 220.602 439.307C221.342 439.431 221.898 439.739 222.268 440.233C222.669 440.695 222.854 441.204 222.823 441.76C222.823 442.284 222.561 442.716 222.036 443.055C221.697 443.456 221.25 444.196 220.695 445.276C220.17 446.325 219.63 447.342 219.075 448.329C218.458 450.118 217.919 451.707 217.456 453.095C216.993 454.452 216.608 455.732 216.299 456.935C215.991 458.138 215.713 459.403 215.467 460.729C215.189 462.024 214.973 463.027 214.819 463.736C214.665 464.415 214.557 464.939 214.495 465.309C214.464 465.649 214.433 465.957 214.402 466.235C214.402 466.481 214.402 466.821 214.402 467.252C214.649 467.653 214.85 468.008 215.004 468.317C215.158 468.625 215.359 468.81 215.605 468.872C216.13 469.118 216.654 469.242 217.178 469.242C217.734 469.242 218.335 469.057 218.983 468.687C219.137 468.378 219.337 468.162 219.584 468.039C219.831 467.916 219.954 467.854 219.954 467.854C220.016 468.008 220.078 468.054 220.139 467.993C220.232 467.9 220.294 467.792 220.324 467.669C220.294 467.545 220.324 467.437 220.417 467.345C220.51 467.222 220.618 467.098 220.741 466.975C220.988 466.882 221.296 466.62 221.666 466.188C222.067 465.756 222.453 465.278 222.823 464.754C223.193 464.199 223.501 463.69 223.748 463.227C224.026 462.765 224.165 462.472 224.165 462.348C224.165 462.194 224.226 462.055 224.35 461.932C224.473 461.808 224.612 461.654 224.766 461.469C224.92 461.315 225.229 460.821 225.691 459.989C226.185 459.125 226.709 458.122 227.264 456.981C227.851 455.84 228.375 454.791 228.838 453.835C228.93 453.496 229.1 452.956 229.346 452.216C229.593 451.445 229.855 450.566 230.133 449.579C230.441 448.592 230.734 447.605 231.012 446.618C231.29 445.6 231.536 444.705 231.752 443.934C231.999 443.132 232.153 442.546 232.215 442.176C232.277 441.775 232.369 441.451 232.493 441.204C232.616 440.927 232.693 440.726 232.724 440.603C233.063 440.325 233.449 440.248 233.881 440.372C234.312 440.495 234.713 440.68 235.084 440.927C235.484 441.143 235.778 441.297 235.963 441.389C236.148 441.636 236.225 441.945 236.194 442.315C236.163 442.685 236.055 443.256 235.87 444.027C235.716 444.767 235.484 445.846 235.176 447.265C234.528 449.795 233.742 452.123 232.816 454.252C231.922 456.38 230.95 458.631 229.902 461.006C229.902 461.006 229.902 461.022 229.902 461.053C229.902 461.053 229.902 461.13 229.902 461.284C229.532 461.5 229.238 461.824 229.023 462.256C228.868 462.533 228.73 462.78 228.606 462.996C228.514 463.181 228.39 463.32 228.236 463.412C228.144 463.69 228.051 463.937 227.958 464.153C227.866 464.368 227.82 464.476 227.82 464.476C227.789 464.631 227.681 464.769 227.496 464.893C227.311 465.016 227.126 465.14 226.941 465.263C226.786 465.325 226.694 465.448 226.663 465.633C226.632 465.818 226.57 465.972 226.478 466.096C225.799 467.114 224.967 468.147 223.98 469.196C222.993 470.213 221.975 471.108 220.926 471.879C219.908 472.65 218.983 473.19 218.15 473.498C217.595 473.714 217.132 473.838 216.762 473.869C216.423 473.899 216.037 473.869 215.605 473.776ZM233.9 470.63C233.252 470.352 232.774 469.982 232.466 469.519C232.157 469.057 232.096 468.455 232.281 467.715C232.497 466.944 233.052 465.972 233.946 464.8C234.872 463.597 236.229 462.101 238.018 460.312C238.974 459.356 239.776 458.493 240.424 457.722C241.102 456.92 241.442 456.426 241.442 456.241C239.992 456.21 238.465 456.256 236.861 456.38C235.72 456.472 234.98 456.349 234.64 456.01C234.301 455.67 234.085 455.285 233.993 454.853C233.746 454.483 233.746 454.144 233.993 453.835C234.27 453.527 234.625 453.28 235.057 453.095C235.519 452.879 235.89 452.771 236.167 452.771C236.291 452.678 236.645 452.632 237.231 452.632C237.848 452.632 238.558 452.663 239.36 452.725C240.161 452.756 240.902 452.817 241.58 452.91C242.259 452.971 242.722 453.049 242.968 453.141C243.338 453.234 243.77 453.388 244.264 453.604C244.788 453.82 245.235 454.097 245.606 454.437C245.976 454.776 246.161 455.161 246.161 455.593C246.161 455.933 246.053 456.411 245.837 457.028C245.652 457.614 245.39 458.076 245.05 458.416C244.248 459.279 243.354 460.174 242.367 461.099C241.38 462.024 240.47 462.934 239.637 463.829C239.144 464.353 238.619 464.908 238.064 465.494C237.509 466.049 237.2 466.543 237.139 466.975C237.231 467.129 237.355 467.206 237.509 467.206C237.663 467.206 238.002 467.144 238.527 467.021C239.082 466.898 239.992 466.743 241.256 466.558C242.799 466.096 243.878 465.988 244.495 466.235C245.143 466.45 245.498 466.759 245.559 467.16C245.528 467.314 245.436 467.592 245.282 467.993C245.127 468.394 244.912 468.764 244.634 469.103C244.387 469.442 244.048 469.612 243.616 469.612C243.616 469.612 243.431 469.658 243.061 469.751C242.691 469.843 242.243 469.951 241.719 470.075C241.226 470.198 240.732 470.321 240.239 470.445C238.912 470.784 237.879 471.015 237.139 471.139C236.398 471.262 235.797 471.278 235.334 471.185C234.903 471.093 234.424 470.907 233.9 470.63ZM260.246 470.907C259.937 470.599 259.69 470.183 259.505 469.658C259.32 469.103 259.135 468.471 258.95 467.761C258.888 467.515 258.858 467.237 258.858 466.929C258.888 466.62 258.888 466.373 258.858 466.188C258.765 466.404 258.611 466.682 258.395 467.021C258.21 467.36 258.025 467.607 257.84 467.761C257.716 467.885 257.439 468.131 257.007 468.502C256.575 468.841 256.143 469.118 255.712 469.334C254.694 469.982 253.784 470.291 252.982 470.26C252.211 470.198 251.532 469.797 250.946 469.057C250.453 468.656 250.052 468.147 249.743 467.53C249.435 466.913 249.373 466.173 249.558 465.309C249.62 464.23 249.774 463.181 250.021 462.163C250.267 461.114 250.776 459.726 251.548 457.999C252.195 456.734 252.689 455.747 253.028 455.038C253.367 454.329 253.583 453.912 253.676 453.789C254.138 453.635 254.709 453.65 255.388 453.835C256.066 453.989 256.436 454.282 256.498 454.714C256.683 455.023 256.683 455.609 256.498 456.472C256.313 457.305 255.943 458.261 255.388 459.341C254.956 460.39 254.539 461.407 254.138 462.394C253.768 463.381 253.537 464.214 253.444 464.893C253.383 465.571 253.568 465.988 254 466.142C254.277 466.296 254.678 466.281 255.203 466.096C255.758 465.911 256.406 465.355 257.146 464.43C257.886 463.505 258.673 462.04 259.505 460.035C259.752 459.418 259.937 458.878 260.061 458.416C260.184 457.922 260.261 457.382 260.292 456.796C260.23 456.426 260.323 456.04 260.569 455.64C260.847 455.239 261.171 454.93 261.541 454.714C261.664 454.56 261.834 454.421 262.05 454.298C262.266 454.144 262.405 454.144 262.466 454.298L263.207 454.252C263.33 454.221 263.469 454.344 263.623 454.622C263.777 454.899 263.932 455.1 264.086 455.223C264.425 455.501 264.579 456.102 264.548 457.028C264.518 457.953 264.147 459.248 263.438 460.914C262.852 462.179 262.451 463.135 262.235 463.782C262.05 464.43 261.942 465.062 261.911 465.679C261.911 466.235 261.957 466.713 262.05 467.114C262.143 467.484 262.42 467.869 262.883 468.27C263.222 468.486 263.407 468.856 263.438 469.381C263.5 469.874 263.515 470.306 263.484 470.676C263.423 470.954 263.176 471.139 262.744 471.231C262.343 471.355 261.896 471.386 261.402 471.324C260.94 471.262 260.554 471.123 260.246 470.907ZM289.399 469.89C289.183 469.828 288.844 469.627 288.381 469.288C287.918 468.949 287.502 468.44 287.132 467.761C286.793 467.083 286.638 466.204 286.669 465.124C286.7 464.199 286.762 463.551 286.854 463.181C286.978 462.78 286.931 462.564 286.715 462.533C286.561 462.502 286.253 462.641 285.79 462.95C285.327 463.258 284.726 463.752 283.986 464.43C283.245 465.109 282.351 466.003 281.302 467.114C280.932 467.422 280.516 467.808 280.053 468.27C279.621 468.702 279.174 469.026 278.711 469.242C278.28 469.458 277.894 469.412 277.555 469.103L277.092 468.687C276.876 468.502 276.691 468.255 276.537 467.946C276.383 467.638 276.336 467.376 276.398 467.16L277.694 463.551C278.064 462.749 278.31 462.163 278.434 461.793C278.588 461.423 278.65 461.191 278.619 461.099C278.619 461.006 278.542 460.976 278.388 461.006C278.202 461.037 277.94 461.207 277.601 461.515C277.262 461.793 277.03 462.024 276.907 462.209C276.784 462.209 276.614 462.333 276.398 462.579C276.213 462.826 276.028 463.042 275.843 463.227C275.658 463.412 275.334 463.767 274.871 464.291C274.409 464.785 273.915 465.309 273.391 465.864C272.99 466.235 272.527 466.728 272.003 467.345C271.478 467.962 271.016 468.517 270.615 469.011C270.214 469.504 269.967 469.751 269.874 469.751C269.319 469.72 268.81 469.535 268.348 469.196C267.916 468.856 267.623 468.44 267.469 467.946C267.284 467.607 267.268 466.99 267.422 466.096C267.577 465.17 267.87 463.705 268.301 461.7C268.425 461.238 268.533 460.837 268.625 460.498C268.749 460.158 268.872 459.819 268.995 459.48C269.119 459.14 269.258 458.755 269.412 458.323C269.597 457.891 269.828 457.367 270.106 456.75C270.26 456.318 270.322 455.917 270.291 455.547C270.26 455.146 270.229 454.822 270.198 454.575C270.198 454.113 270.337 453.743 270.615 453.465C270.923 453.187 271.262 453.002 271.633 452.91C272.003 452.786 272.296 452.756 272.512 452.817C273.375 452.91 273.961 453.218 274.27 453.743C274.578 454.267 274.748 454.776 274.779 455.269C274.81 455.732 274.748 456.148 274.594 456.519C274.439 456.889 274.316 457.197 274.224 457.444L273.715 458.693C273.406 459.403 273.175 459.927 273.021 460.266C272.897 460.575 272.82 460.791 272.789 460.914C272.789 461.006 272.789 461.099 272.789 461.191C272.82 461.284 272.959 461.238 273.206 461.053C273.452 460.868 273.745 460.621 274.085 460.312C274.455 459.973 274.794 459.68 275.103 459.433C275.658 458.971 276.244 458.508 276.861 458.045C277.508 457.552 278.141 457.12 278.758 456.75C279.375 456.38 279.883 456.133 280.284 456.01C280.809 456.102 281.287 456.364 281.719 456.796C282.181 457.228 282.474 457.598 282.598 457.907C282.752 458.369 282.767 458.786 282.644 459.156C282.551 459.526 282.474 459.865 282.413 460.174C282.382 460.297 282.32 460.528 282.228 460.868C282.135 461.207 282.043 461.531 281.95 461.839C281.858 462.117 281.811 462.256 281.811 462.256C281.811 462.256 281.904 462.163 282.089 461.978C282.274 461.793 282.521 461.577 282.829 461.33C283.138 461.053 283.446 460.806 283.754 460.59C285.297 459.418 286.515 458.678 287.409 458.369C288.335 458.03 289.121 458.292 289.769 459.156C290.139 459.495 290.371 459.958 290.463 460.544C290.586 461.13 290.648 461.916 290.648 462.903C290.679 463.304 290.71 463.752 290.741 464.245C290.802 464.739 290.864 465.17 290.926 465.541C291.018 465.911 291.095 466.142 291.157 466.235C291.25 466.358 291.419 466.481 291.666 466.605C291.913 466.697 292.144 466.774 292.36 466.836C292.792 467.052 293.023 467.453 293.054 468.039C293.116 468.594 292.9 469.026 292.406 469.334C291.944 469.612 291.45 469.782 290.926 469.843C290.432 469.905 289.923 469.92 289.399 469.89ZM299.686 470.352C299.439 470.414 299.115 470.445 298.714 470.445C298.313 470.414 297.958 470.368 297.65 470.306C297.372 470.213 297.234 470.121 297.234 470.028C297.234 469.874 297.156 469.797 297.002 469.797C297.002 469.797 296.833 469.674 296.493 469.427C296.154 469.149 295.846 468.949 295.568 468.825C295.29 468.394 295.105 467.9 295.013 467.345C294.951 466.759 295.136 465.741 295.568 464.291C295.599 463.304 295.876 462.271 296.401 461.191C296.925 460.081 297.588 459.002 298.39 457.953C299.192 456.904 300.025 455.979 300.889 455.177C301.752 454.344 302.523 453.727 303.202 453.326C303.634 452.894 304.204 452.663 304.914 452.632C305.654 452.601 306.302 452.74 306.857 453.049C307.165 453.203 307.505 453.511 307.875 453.974C308.245 454.437 308.6 454.93 308.939 455.454C309.278 455.948 309.54 456.395 309.725 456.796C309.818 457.135 309.895 457.444 309.957 457.722C310.049 457.968 310.111 458.277 310.142 458.647C310.173 459.017 310.142 459.572 310.049 460.312C309.895 460.868 309.756 461.438 309.633 462.024C309.54 462.579 309.494 463.15 309.494 463.736C309.432 464.322 309.494 464.739 309.679 464.985C309.895 465.232 310.204 465.248 310.605 465.032C310.975 464.847 311.36 464.831 311.761 464.985C312.162 465.109 312.44 465.355 312.594 465.726C312.779 466.065 312.733 466.512 312.455 467.067C312.27 467.468 311.977 467.854 311.576 468.224C311.175 468.594 310.728 468.903 310.234 469.149C309.741 469.365 309.263 469.473 308.8 469.473C308.461 469.473 308.122 469.35 307.782 469.103C307.443 468.825 307.135 468.455 306.857 467.993C306.579 467.53 306.348 467.021 306.163 466.466L305.885 465.402L304.22 466.929C303.819 467.36 303.418 467.761 303.017 468.131C302.647 468.471 302.415 468.718 302.323 468.872C302.169 469.149 301.86 469.396 301.398 469.612C300.966 469.828 300.395 470.075 299.686 470.352ZM300.935 465.911C301.459 465.602 301.906 465.232 302.277 464.8C302.678 464.368 303.063 463.89 303.433 463.366C303.803 462.811 304.204 462.225 304.636 461.608C305.161 460.898 305.531 460.328 305.747 459.896C305.993 459.464 306.178 459.002 306.302 458.508C306.178 458.169 306.009 457.814 305.793 457.444C305.577 457.043 305.361 456.827 305.145 456.796C304.713 456.796 304.189 457.058 303.572 457.583C302.986 458.107 302.338 458.863 301.629 459.85C301.505 460.004 301.351 460.251 301.166 460.59C300.981 460.929 300.796 461.253 300.611 461.562C300.457 461.839 300.349 462.024 300.287 462.117C300.195 462.24 300.056 462.533 299.871 462.996C299.716 463.428 299.578 463.875 299.454 464.338C299.331 464.769 299.269 465.078 299.269 465.263C299.269 465.448 299.285 465.649 299.316 465.864C299.377 466.08 299.531 466.219 299.778 466.281C300.025 466.343 300.41 466.219 300.935 465.911ZM317.135 470.676C316.673 470.522 316.256 470.275 315.886 469.936C315.547 469.597 315.408 469.041 315.47 468.27C315.531 467.808 315.624 467.33 315.747 466.836C315.871 466.312 316.025 465.803 316.21 465.309C316.303 464.754 316.411 464.199 316.534 463.644C316.688 463.088 316.935 462.564 317.274 462.071C317.675 460.929 318.092 459.804 318.523 458.693C318.955 457.552 319.325 456.364 319.634 455.131C320.096 454.02 320.513 453.033 320.883 452.17C321.284 451.306 321.762 450.195 322.317 448.838C322.626 448.129 322.888 447.342 323.104 446.479C323.351 445.584 323.721 444.798 324.214 444.119C324.43 443.842 324.584 443.61 324.677 443.425C324.8 443.209 324.924 443.009 325.047 442.824C325.263 442.392 325.587 442.191 326.019 442.222C326.481 442.253 326.79 442.376 326.944 442.592C327.468 442.808 327.838 443.209 328.054 443.795C328.27 444.35 328.347 444.751 328.286 444.998C328.286 445.338 328.162 445.708 327.915 446.109C327.792 446.232 327.669 446.417 327.545 446.664C327.422 446.88 327.237 447.173 326.99 447.543C326.867 447.944 326.743 448.345 326.62 448.746C326.497 449.147 326.358 449.517 326.204 449.856C326.049 450.195 325.88 450.535 325.695 450.874C325.51 451.213 325.386 451.491 325.325 451.707C325.047 452.416 324.738 453.11 324.399 453.789C324.091 454.437 323.813 455.131 323.566 455.871C323.32 456.58 323.057 457.336 322.78 458.138C322.502 458.909 322.148 459.649 321.716 460.359C321.5 460.667 321.376 461.084 321.346 461.608C321.346 462.132 321.284 462.641 321.161 463.135C320.945 463.69 320.744 464.199 320.559 464.661C320.405 465.124 320.328 465.417 320.328 465.541C320.112 466.219 319.942 466.898 319.819 467.576C319.695 468.224 319.495 468.795 319.217 469.288C319.217 470.028 319.017 470.491 318.616 470.676C318.215 470.861 317.721 470.861 317.135 470.676ZM327.73 471.093C327.237 471.031 326.867 470.938 326.62 470.815C326.373 470.661 325.911 470.337 325.232 469.843C324.862 469.473 324.399 468.903 323.844 468.131C323.289 467.36 322.734 466.543 322.178 465.679C321.623 464.785 321.13 464.029 320.698 463.412L323.243 460.174C323.644 460.667 323.967 461.13 324.214 461.562C324.461 461.993 324.661 462.286 324.816 462.441C325.525 463.489 326.08 464.338 326.481 464.985C326.882 465.633 327.221 466.157 327.499 466.558C327.808 466.959 328.147 467.314 328.517 467.623C328.887 467.931 329.365 468.255 329.951 468.594C330.044 468.656 330.136 468.81 330.229 469.057C330.321 469.273 330.352 469.504 330.321 469.751C330.26 470.121 330.028 470.429 329.627 470.676C329.257 470.892 328.625 471.031 327.73 471.093ZM321.022 462.533C320.837 462.009 320.79 461.423 320.883 460.775C321.006 460.097 321.269 459.649 321.669 459.433C321.793 459.217 321.916 459.079 322.04 459.017C322.194 458.924 322.286 458.816 322.317 458.693C322.379 458.57 322.533 458.4 322.78 458.184C323.057 457.968 323.304 457.768 323.52 457.583C324.014 457.274 324.553 456.904 325.139 456.472C325.756 456.01 326.342 455.547 326.898 455.084C327.484 454.622 327.962 454.221 328.332 453.881C328.733 453.542 328.98 453.326 329.072 453.234C329.165 453.11 329.35 453.033 329.627 453.002C329.936 452.971 330.229 453.018 330.506 453.141C330.877 453.234 331.17 453.434 331.385 453.743C331.632 454.051 331.756 454.483 331.756 455.038C331.848 455.377 331.648 455.794 331.154 456.287C330.691 456.75 330.105 457.213 329.396 457.675C329.149 457.829 328.81 458.061 328.378 458.369C327.977 458.678 327.622 458.971 327.314 459.248C327.098 459.372 326.774 459.588 326.342 459.896C325.941 460.174 325.587 460.451 325.278 460.729C325.032 460.883 324.738 461.161 324.399 461.562C324.091 461.932 323.736 462.209 323.335 462.394C322.348 463.32 321.747 463.767 321.531 463.736C321.346 463.705 321.176 463.304 321.022 462.533ZM336.059 469.473C335.936 469.473 335.674 469.381 335.273 469.196C334.872 469.011 334.671 468.918 334.671 468.918C334.671 468.795 334.625 468.64 334.533 468.455C334.471 468.27 334.44 468.116 334.44 467.993C334.224 467.869 334.008 467.669 333.792 467.391C333.576 467.114 333.53 466.805 333.654 466.466C333.839 466.127 334.085 465.618 334.394 464.939C334.733 464.23 335.088 463.443 335.458 462.579C335.859 461.685 336.229 460.821 336.568 459.989C336.908 459.156 337.201 458.446 337.447 457.86C337.694 457.243 337.833 456.873 337.864 456.75C337.864 456.627 337.879 456.411 337.91 456.102C337.972 455.794 338.172 455.532 338.512 455.316C338.913 455.038 339.329 455.023 339.761 455.269C340.193 455.516 340.563 455.948 340.871 456.565C341.18 457.151 341.334 457.845 341.334 458.647C341.334 458.863 341.18 459.418 340.871 460.312C340.563 461.176 340.146 462.209 339.622 463.412C339.128 464.615 338.573 465.834 337.956 467.067C337.494 467.962 337.139 468.594 336.892 468.964C336.676 469.304 336.399 469.473 336.059 469.473ZM342.352 451.753C341.982 451.753 341.534 451.583 341.01 451.244C340.516 450.905 340.069 450.473 339.668 449.949C339.267 449.424 339.067 448.869 339.067 448.283C339.067 448.129 339.206 447.851 339.483 447.45C339.761 447.019 340.023 446.602 340.27 446.201C340.547 445.8 340.686 445.569 340.686 445.507C340.933 445.507 341.226 445.553 341.565 445.646C341.904 445.738 342.182 445.846 342.398 445.97C342.737 446.741 343.184 447.404 343.74 447.959C344.295 448.484 344.572 449.085 344.572 449.764C344.572 450.442 344.403 450.951 344.064 451.29C343.724 451.599 343.154 451.753 342.352 451.753Z" fill="#E1E1E1"/>
<g clip-path="url(#clip1_3_75)">
<rect x="24" y="38" width="360" height="381" fill="url(#paint0_linear_3_75)"/>
<g filter="url(#filter1_f_3_75)">
<path d="M64.3158 101.342C64.3158 115.513 52.8284 127 38.6579 127C24.4874 127 13 115.513 13 101.342C13 87.1716 24.4874 75.6842 38.6579 75.6842C52.8284 75.6842 64.3158 87.1716 64.3158 101.342Z" fill="white"/>
<circle cx="142.079" cy="77.6579" r="25.6579" fill="white"/>
<path d="M162.211 95.4211C162.211 112.426 134.111 126.211 99.4474 126.211C64.7843 126.211 23.2632 103.741 23.2632 86.7368C23.2632 69.7323 51.3632 55.9474 86.0263 55.9474C120.689 55.9474 162.211 78.4165 162.211 95.4211Z" fill="white"/>
</g>
<g filter="url(#filter2_f_3_75)">
<path d="M330.684 188.658C330.684 196.027 324.711 202 317.342 202C309.973 202 304 196.027 304 188.658C304 181.289 309.973 175.316 317.342 175.316C324.711 175.316 330.684 181.289 330.684 188.658Z" fill="white"/>
<circle cx="371.121" cy="176.342" r="13.3421" fill="white"/>
<path d="M381.589 185.579C381.589 194.421 366.977 201.589 348.953 201.589C330.928 201.589 309.337 189.906 309.337 181.063C309.337 172.221 323.949 165.053 341.974 165.053C359.999 165.053 381.589 176.737 381.589 185.579Z" fill="white"/>
</g>
</g>
<rect x="25" y="39" width="358" height="379" stroke="#F5F5F5" stroke-width="2"/>
</g>
</g>
<defs>
<filter id="filter0_d_3_75" x="0" y="0" width="420" height="511" filterUnits="userSpaceOnUse" color-interpolation-filters="sRGB">
<feFlood flood-opacity="0" result="BackgroundImageFix"/>
<feColorMatrix in="SourceAlpha" type="matrix" values="0 0 0 0 0 0 0 0 0 0 0 0 0 0 0 0 0 0 127 0" result="hardAlpha"/>
<feOffset dx="6" dy="4"/>
<feGaussianBlur stdDeviation="5"/>
<feComposite in2="hardAlpha" operator="out"/>
<feColorMatrix type="matrix" values="0 0 0 0 0 0 0 0 0 0 0 0 0 0 0 0 0 0 0.1 0"/>
<feBlend mode="normal" in2="BackgroundImageFix" result="effect1_dropShadow_3_75"/>
<feBlend mode="normal" in="SourceGraphic" in2="effect1_dropShadow_3_75" result="shape"/>
</filter>
<filter id="filter1_f_3_75" x="-11" y="28" width="202.737" height="123" filterUnits="userSpaceOnUse" color-interpolation-filters="sRGB">
<feFlood flood-opacity="0" result="BackgroundImageFix"/>
<feBlend mode="normal" in="SourceGraphic" in2="BackgroundImageFix" result="shape"/>
<feGaussianBlur stdDeviation="12" result="effect1_foregroundBlur_3_75"/>
</filter>
<filter id="filter2_f_3_75" x="280" y="139" width="128.463" height="87" filterUnits="userSpaceOnUse" color-interpolation-filters="sRGB">
<feFlood flood-opacity="0" result="BackgroundImageFix"/>
<feBlend mode="normal" in="SourceGraphic" in2="BackgroundImageFix" result="shape"/>
<feGaussianBlur stdDeviation="12" result="effect1_foregroundBlur_3_75"/>
</filter>
<linearGradient id="paint0_linear_3_75" x1="29" y1="38" x2="443.348" y2="320.068" gradientUnits="userSpaceOnUse">
<stop stop-color="#78AEFF"/>
<stop offset="0.979167" stop-color="#8ED0FF"/>
</linearGradient>
<clipPath id="clip0_3_75">
<rect x="4" y="6" width="400" height="491" rx="12" fill="white"/>
</clipPath>
<clipPath id="clip1_3_75">
<rect x="24" y="38" width="360" height="381" fill="white"/>
</clipPath>
</defs>
</svg>
